<?xml version="1.0" encoding="utf-8"?>
<!-- Generator: Adobe Illustrator 27.5.0, SVG Export Plug-In . SVG Version: 6.00 Build 0)  -->
<svg version="1.1" id="Layer_3" xmlns="http://www.w3.org/2000/svg" xmlns:xlink="http://www.w3.org/1999/xlink" x="0px" y="0px"
	 viewBox="0 0 700 280" style="enable-background:new 0 0 700 280;" xml:space="preserve">
<g>
	<defs>
		<rect id="SVGID_1_" width="700" height="280"/>
	</defs>
	<clipPath id="SVGID_00000027575489989562198440000002080908971793505682_">
		<use xlink:href="#SVGID_1_"  style="overflow:visible;"/>
	</clipPath>
	<g id="Ñëîé-4" style="clip-path:url(#SVGID_00000027575489989562198440000002080908971793505682_);">
		
			<linearGradient id="SVGID_00000140699301972133738580000000623123952637627061_" gradientUnits="userSpaceOnUse" x1="-2648.8909" y1="1930.407" x2="-2649.635" y2="1962.1119" gradientTransform="matrix(7 0 0 -7 18894 13728)">
			<stop  offset="0" style="stop-color:#ECFBC4"/>
			<stop  offset="1" style="stop-color:#6CCFDF"/>
		</linearGradient>
		<path style="fill:url(#SVGID_00000140699301972133738580000000623123952637627061_);" d="M0,0h700v280H0V0z"/>
		<path style="fill:#68A38D;" d="M496.176,102.9l13.43,7.627l6.642-14.726l-5.051,20.481L496.176,102.9z"/>
		<path style="fill:#68A38D;" d="M447.145,134.842l8.242,2.899l2.22-8.864l-0.757,11.909L447.145,134.842z"/>
		<path style="fill:#68A38D;" d="M267.279,73.528l5.07,9.41l9.307-6.192l-10.491,10.151L267.279,73.528z"/>
		
			<linearGradient id="SVGID_00000090261600315263415570000013745341806844669848_" gradientUnits="userSpaceOnUse" x1="-2621.5562" y1="1916.6852" x2="-2620.3325" y2="1891.6541" gradientTransform="matrix(6.915 1.0875 1.0875 -6.915 16538.5195 16216.6172)">
			<stop  offset="0" style="stop-color:#46B6C1"/>
			<stop  offset="1" style="stop-color:#A4C93F"/>
		</linearGradient>
		
			<path style="opacity:0.6628;fill:url(#SVGID_00000090261600315263415570000013745341806844669848_);enable-background:new    ;" d="
			M489.198-11.102l5.601,1.642l4.746,253.128l-19.739-3.104l0.139-124.281l4.872-10.014L489.198-11.102z"/>
		
			<linearGradient id="SVGID_00000127033051449317206890000004075302123545607858_" gradientUnits="userSpaceOnUse" x1="-2356.1294" y1="1978.4905" x2="-2354.9058" y2="1953.4594" gradientTransform="matrix(10.6992 4.5083 2.2599 -5.3632 20973.7168 21323.5098)">
			<stop  offset="0" style="stop-color:#4BC2CE"/>
			<stop  offset="1" style="stop-color:#A4C93F"/>
		</linearGradient>
		
			<path style="opacity:0.6628;fill:url(#SVGID_00000127033051449317206890000004075302123545607858_);enable-background:new    ;" d="
			M247.29-14.023l8.604,4.304l-13.216,219.367l-30.54-12.869l13.138-78.788l-30.18-35.615l16.217,12.22l3.658,2.756l3.941,2.97
			l6.656,5.016L247.29-14.023z"/>
		
			<linearGradient id="SVGID_00000140009556391465035010000004729777127515530408_" gradientUnits="userSpaceOnUse" x1="-2266.3582" y1="2131.9509" x2="-2265.1345" y2="2106.9199" gradientTransform="matrix(9.5165 6.6508 3.3339 -4.7704 14557.4131 25325.9766)">
			<stop  offset="0" style="stop-color:#49B7C2"/>
			<stop  offset="1" style="stop-color:#A4C93F"/>
		</linearGradient>
		
			<path style="opacity:0.6628;fill:url(#SVGID_00000140009556391465035010000004729777127515530408_);enable-background:new    ;" d="
			M130.052-17.082l-0.589,11.506L72.349,168.561l-15.958,0.61L130.052-17.082z"/>
		
			<linearGradient id="SVGID_00000149341919466796914690000007858823957307417001_" gradientUnits="userSpaceOnUse" x1="-2691.9905" y1="1903.671" x2="-2690.7666" y2="1878.6399" gradientTransform="matrix(11.5185 1.4566 1.0072 -7.9644 29755.6445 19193.1426)">
			<stop  offset="0" style="stop-color:#56BFC9"/>
			<stop  offset="1" style="stop-color:#A4C93F"/>
		</linearGradient>
		
			<path style="opacity:0.6628;fill:url(#SVGID_00000149341919466796914690000007858823957307417001_);enable-background:new    ;" d="
			M652.667-30.9l4.369,14.134l22.157,246.744l-14.299,11.596L652.667-30.9z"/>
		
			<linearGradient id="SVGID_00000131347666480907598350000016052072920593552307_" gradientUnits="userSpaceOnUse" x1="-2483.4434" y1="1948.9633" x2="-2482.2197" y2="1923.932" gradientTransform="matrix(11.3025 2.6553 1.836 -7.815 24884.6758 21946.4668)">
			<stop  offset="0" style="stop-color:#56BFC9"/>
			<stop  offset="1" style="stop-color:#A4C93F"/>
		</linearGradient>
		
			<path style="opacity:0.6628;fill:url(#SVGID_00000131347666480907598350000016052072920593552307_);enable-background:new    ;" d="
			M391.139-7.241L398.813,0l0.343,233.276l-28.629-6.166L391.139-7.241z"/>
		
			<linearGradient id="SVGID_00000172442451988012609590000014297086578939795620_" gradientUnits="userSpaceOnUse" x1="-2297.4812" y1="2015.3278" x2="-2296.2576" y2="1990.2965" gradientTransform="matrix(10.7011 4.5037 2.4299 -5.7737 19834.5918 22063.459)">
			<stop  offset="0" style="stop-color:#52B9C3"/>
			<stop  offset="1" style="stop-color:#A4C93F"/>
		</linearGradient>
		
			<path style="opacity:0.6628;fill:url(#SVGID_00000172442451988012609590000014297086578939795620_);enable-background:new    ;" d="
			M169.585-27.324l8.588,4.345l-3.646,213.803l-46.16,7.3l20.258-110.802L100.49,23.726l24.664,22.525l5.752-27.536l0.422,31.888
			l20.466,19.978L169.585-27.324z"/>
		
			<linearGradient id="SVGID_00000080889341080102136920000010657765025579213999_" gradientUnits="userSpaceOnUse" x1="-2626.3511" y1="1886.125" x2="-2625.1274" y2="1861.0936" gradientTransform="matrix(10.499 2.172 1.4181 -6.8548 25489.8301 18747.0879)">
			<stop  offset="0" style="stop-color:#43B3BE"/>
			<stop  offset="1" style="stop-color:#A4C93F"/>
		</linearGradient>
		
			<path style="opacity:0.6628;fill:url(#SVGID_00000080889341080102136920000010657765025579213999_);enable-background:new    ;" d="
			M567.292-13.886l8.53,2.533l8.846,145.872l50.471-58.474l-48.23,76.961l4.418,93.445l-29.968-6.2L567.292-13.886z"/>
		
			<linearGradient id="SVGID_00000089537734722598014530000015068726901794187411_" gradientUnits="userSpaceOnUse" x1="-2649.8181" y1="1928.4065" x2="-2635.437" y2="1968.5986" gradientTransform="matrix(7 0 0 -7 18894 13728)">
			<stop  offset="0" style="stop-color:#AACA51"/>
			<stop  offset="1" style="stop-color:#F7D8B1"/>
		</linearGradient>
		<path style="fill:url(#SVGID_00000089537734722598014530000015068726901794187411_);" d="M-10.589,97.812
			c0,0,25.685-48.51,56.511-43.671c47.246,7.417,18.046,60.225,18.046,60.225l5.631,1.916c0,0,9.006-18.47,30.892-18.47
			s23.108,26.335,29.536,35.367c7.786,10.94,21.439,17.814,48.147,6.821c21.043-8.662,45.101-32.436,66.625-42.188
			c39.385-17.845,74.059,10.355,86.526,31.534c10.341,17.566,12.349,50.959,12.349,50.959l3.617,0.231
			c0,0,1.198-60.824,41.633-60.824c42.657,0,37.076,70.358,37.076,70.358l3.803,2.082c0,0,15.116-21.142,24.921-22.338
			c29.571-3.607,34.255,35.425,34.255,35.425s12.585,46.647,30.295,47.568s37.162-33.081,40.543-43.882
			c3.382-10.802-5.645-25.927,17.535-31.479c23.179-5.552,37.138,31.479,37.138,31.479h4.675c0,0-0.122-43.975,24.728-56.967
			c47.536-24.853,93.782,46.166,93.782,46.166l-21.721,120.959H-19.106L-10.589,97.812z"/>
		
			<linearGradient id="SVGID_00000145051326043450085110000012963082310111368626_" gradientUnits="userSpaceOnUse" x1="-2652.6477" y1="1928.307" x2="-2632.4595" y2="1966.4832" gradientTransform="matrix(7 0 0 -7 18894 13728)">
			<stop  offset="0" style="stop-color:#A1B937"/>
			<stop  offset="1" style="stop-color:#DFBD48"/>
		</linearGradient>
		<path style="fill:url(#SVGID_00000145051326043450085110000012963082310111368626_);" d="M-7.762,99.715
			c0,0,13.056-44.069,43.406-32.742c26.155,9.761,5.341,37.22,5.341,37.22l1.722,1.924c0,0,10.105-11.406,23.493-17.675
			C80.141,81.913,98.441,80.1,100.49,85.4c2.479,6.411-29.533,39.524-22.237,48.617c1.67,2.082,35.248,10.024,35.248,10.024
			s14.414-41.577,40.193-33.382c25.779,8.194,15.691,47.949,15.691,47.949l10.088,2.185c0,0,16.974-8.935,33.299-24.04
			c17.466-16.162,34.928-37.505,60.796-32.56c35.991,6.881,3.26,51.375,3.26,51.375l3.641,1.634c0,0,7.016-25.136,36.264-21.741
			c31.079,3.609,26.898,37.709,26.898,37.709s2.495,4.617,6.37-0.337c10.168-12.994,54.555-53.04,77.995-48.646
			C438.819,126.216,403,183.769,403,183.769l3.53,2.265c0,0,8.301-28.785,34.037-27.656c49.108,2.153,30.201,60.136,30.201,60.136
			s18.27-2.365,30.563-5.657c7.764-2.08,9.548-5.381,12.783-7.045c14.945-7.689,35.229-0.191,37.617,0.664
			c5.001,1.791,4.854,6.992,4.854,6.992s3.839-3.248,6.537-3.821c5.692-1.208,25.155,0.253,29.775,3.21
			c5.35,3.422,0.495,11.202,0.495,11.202s6.078,5.649,14.385-7.225c2.438-3.779,6.639-11.237,6.393-18.711
			c-0.384-11.699-5.68-23.982,0.203-26.431c3.021-1.258,14.565,3.233,23.36,14.749c8.845,11.581,14.933,30.19,14.933,30.19
			l3.681-0.993c0,0-8.331-46.451,13.515-54.685c31.438-11.849,31.438,25.08,31.438,25.08l16.506,64.69H-17.807L-7.762,99.715z"/>
		
			<linearGradient id="SVGID_00000145756461513775928450000016441636332492295085_" gradientUnits="userSpaceOnUse" x1="-2656.9009" y1="1922.0526" x2="-2668.9998" y2="1915.2938" gradientTransform="matrix(7 0 0 -7 18894 13728)">
			<stop  offset="0" style="stop-color:#B9BE12"/>
			<stop  offset="1" style="stop-color:#5C860B"/>
		</linearGradient>
		<path style="fill:url(#SVGID_00000145756461513775928450000016441636332492295085_);" d="M-29.624,103.908l299.485,77.943
			l149.839,21.571l317.975,32.619l-0.973,142.686H-43.096L-29.624,103.908z"/>
		
			<linearGradient id="SVGID_00000115502907719127511520000009010618998255619987_" gradientUnits="userSpaceOnUse" x1="-2637.8267" y1="1935.1492" x2="-2665.1672" y2="1929.1381" gradientTransform="matrix(7 0 0 -7 18894 13728)">
			<stop  offset="0" style="stop-color:#F9E040"/>
			<stop  offset="1" style="stop-color:#B9BE12"/>
		</linearGradient>
		<path style="fill:url(#SVGID_00000115502907719127511520000009010618998255619987_);" d="M269.861,181.851l149.839,21.571
			l18.665,26.26l-17.487,12.288c0,0-153.684,4.707-164.984,4.507c-11.299-0.2,110.354-16.832,83.919-25.069
			c-17.786-5.543-120.023-51.591-120.023-51.591L269.861,181.851z"/>
		
			<linearGradient id="SVGID_00000043428598288872180140000006189336983868724913_" gradientUnits="userSpaceOnUse" x1="-2619.1372" y1="1932.6156" x2="-2707.2622" y2="1940.826" gradientTransform="matrix(7 0 0 -7 18877.7754 13726.2979)">
			<stop  offset="0" style="stop-color:#929122"/>
			<stop  offset="1" style="stop-color:#805C17"/>
		</linearGradient>
		
			<path style="opacity:0.4399;fill:url(#SVGID_00000043428598288872180140000006189336983868724913_);enable-background:new    ;" d="
			M-31.247,103.738l299.485,77.943l136.496,19.65l13.343,1.921l73.613,7.552l244.36,25.068l-0.14,20.688l-247.857-35.977
			l-239.945-22.629l-268.836-63.375L-31.247,103.738z"/>
		
			<linearGradient id="SVGID_00000106868160824330824650000003318725857648517301_" gradientUnits="userSpaceOnUse" x1="-2673.261" y1="1948.2859" x2="-2674.3625" y2="1936.0288" gradientTransform="matrix(7 0 0 -7 18894 13728)">
			<stop  offset="0" style="stop-color:#935C20"/>
			<stop  offset="1" style="stop-color:#90A019"/>
		</linearGradient>
		<path style="fill:url(#SVGID_00000106868160824330824650000003318725857648517301_);" d="M175.735,44.239l3.085-4.405
			c0,0,0.325,33.014,0.661,67.654c0,0,9.463-11.145,11.509-14.482c2.046-3.336,9.629-27.895,9.629-27.895
			s-5.698,24.928-6.803,29.788c-1.105,4.862-12.661,21.383-12.661,21.383c0.297,30.771,3.137,58.074,3.137,59.941
			c0,1.425-10.507,2.68-18.225,0.453c-5.522-1.593-8.937-6.444-9.178-7.505C156.41,167.062,175.735,44.239,175.735,44.239z"/>
		
			<linearGradient id="SVGID_00000103948073408274084210000013722434496360225697_" gradientUnits="userSpaceOnUse" x1="-2762.6416" y1="1953.382" x2="-2763.7434" y2="1941.1249" gradientTransform="matrix(7 0 0 -7 19580.1621 13766.8252)">
			<stop  offset="0" style="stop-color:#935C20"/>
			<stop  offset="1" style="stop-color:#90A019"/>
		</linearGradient>
		<path style="fill:url(#SVGID_00000103948073408274084210000013722434496360225697_);" d="M244.351,48.121l3.085-4.405
			l-6.575,69.301c0,0,8.177-3.5,8.287-2.684c0.109,0.816-7.851,5.949-7.851,5.949l-6.616,64.276c0,0-8.937-6.444-9.178-7.505
			C225.026,170.945,244.351,48.121,244.351,48.121z"/>
		
			<linearGradient id="SVGID_00000163779568478177905450000016234710538421590184_" gradientUnits="userSpaceOnUse" x1="-2639.8645" y1="1948.7622" x2="-2641.4004" y2="1931.63" gradientTransform="matrix(7 0 0 -7 18894 13728)">
			<stop  offset="0" style="stop-color:#935C20"/>
			<stop  offset="1" style="stop-color:#7F9516"/>
		</linearGradient>
		<path style="fill:url(#SVGID_00000163779568478177905450000016234710538421590184_);" d="M410.371,28.397h4.432l6.075,101.458
			c0,0-8.122,83.19-8.702,84.114c-1.114,1.777-13.02-0.601-13.02-2.422c0-1.756,13.175-82.45,13.175-82.45L410.371,28.397z"/>
		<path style="opacity:0.7539;fill:#84521B;enable-background:new    ;" d="M412.599,28.397h2.204l6.075,101.458
			c0,0-8.122,83.19-8.702,84.114c-0.527,0.84-1.908,0.519-4.86,0c-2.603-0.458,5.679-52.435,9.262-74.182
			c0.122-0.741-1.558,12.029-4.646,23.554c-4.264,15.912-10.34,32.138-10.212,31.37c0.253-1.523,4.188-19.618,8.298-35.573
			c3.973-15.424,8.129-28.75,8.129-28.75L412.599,28.397z"/>
		
			<linearGradient id="SVGID_00000104681778435670747720000002150692236677820860_" gradientUnits="userSpaceOnUse" x1="-2648.2742" y1="1952.947" x2="-2650.6262" y2="1927.1799" gradientTransform="matrix(7 0 0 -7 18894 13728)">
			<stop  offset="0" style="stop-color:#BE7523"/>
			<stop  offset="1" style="stop-color:#69790D"/>
		</linearGradient>
		<path style="fill:url(#SVGID_00000104681778435670747720000002150692236677820860_);" d="M347.29-11.102h11.995l-5.259,105.277
			l16.501-11.261l39.491-48.885L373.863,85.4l-19.359,20.109c0,0-3.39,107.349-4.504,109.894c-1.021,2.332-9.157,4.263-17.819,3.667
			c-8.66-0.597-15.784-3.396-16.824-6.054c-1.04-2.657,9.232-64.801,9.232-64.801l-23.332-57.778l25.368,43.488L347.29-11.102z"/>
		
			<linearGradient id="SVGID_00000046332668230796043880000006206339314097359779_" gradientUnits="userSpaceOnUse" x1="-2648.6782" y1="1944.6278" x2="-2646.2424" y2="1948.8783" gradientTransform="matrix(7 0 0 -7 18894 13728)">
			<stop  offset="0" style="stop-color:#90500A"/>
			<stop  offset="1" style="stop-color:#A0761B"/>
		</linearGradient>
		<path style="fill:url(#SVGID_00000046332668230796043880000006206339314097359779_);" d="M354.026,94.175l6.946-0.449
			l12.891-8.326l-19.359,20.109c0,0-0.262,8.297-0.664,20.332c-0.868,25.961-2.213-4.388-1.951-18.35
			C351.943,104.644,354.026,94.175,354.026,94.175z"/>
		
			<linearGradient id="SVGID_00000093144533674520786370000013715704844749536149_" gradientUnits="userSpaceOnUse" x1="-2655.8894" y1="1938.7125" x2="-2647.1208" y2="1949.7169" gradientTransform="matrix(7 0 0 -7 18894 13728)">
			<stop  offset="0" style="stop-color:#693B0A"/>
			<stop  offset="1" style="stop-color:#A0761B"/>
		</linearGradient>
		
			<path style="opacity:0.8527;fill:url(#SVGID_00000093144533674520786370000013715704844749536149_);enable-background:new    ;" d="
			M347.29-11.102c0,0,3.885,28.971,0,66.694l-7.476,76.769l12.076,47.09l-14.993-43.132l1.979-64.735
			c-2.636,25.389-5.559,53.028-8.252,77.33c-0.239,2.159,5.3,36.991,5.3,36.991l12.228,26.408l-11.612-0.767l-1.897-25.06
			c0,0-6.194-18.241-6.322-17.13c-3.233,28.128-5.83,48.004-6.687,47.713c-3.384-1.148-5.713-2.621-6.274-4.054
			c-1.04-2.657,9.232-64.801,9.232-64.801l-14.844-36.812l9.071,15.353l7.81,7.169L347.29-11.102z"/>
		<path style="opacity:0.8081;fill:#6E7F0C;enable-background:new    ;" d="M351.386,192.378
			c-0.56,12.956-1.067,22.296-1.386,23.026c-1.021,2.332-9.157,4.263-17.819,3.667c-8.66-0.597-15.784-3.396-16.824-6.054
			c-0.396-1.011,0.847-10.639,2.538-22.179c0.452-3.086,6.132,9.71,9.513,9.422c2.607-0.222,7.454-15.761,7.454-15.761
			s2.749,18.851,4.95,15.761c3.76-5.278,5.131-20.02,7.476-22.058C349.679,176.125,351.772,183.436,351.386,192.378z"/>
		
			<linearGradient id="SVGID_00000099659770884198059870000003202264674325738889_" gradientUnits="userSpaceOnUse" x1="-2665.3286" y1="1971.4005" x2="-2611.1577" y2="1943.9254" gradientTransform="matrix(7 0 0 -7 18894 13728)">
			<stop  offset="0" style="stop-color:#354508"/>
			<stop  offset="1" style="stop-color:#C8BD31"/>
		</linearGradient>
		<path style="fill:url(#SVGID_00000099659770884198059870000003202264674325738889_);" d="M-43.096-35.622h808.133
			c0,0-9.59,82.58-47.229,100.733c-37.638,18.152-65.141-21.33-108.166-31.955c-43.025-10.625-67.103-7.219-58.55,11.184
			c1.469,3.163,22.852,8.146,33.165,20.771c12.664,15.502,15.778,35.951,14.54,38.797c-1.239,2.846-19.201,29.055-69.154,7.963
			c-18.858-7.963-23.88-15.318-26.384-21.044s-8.887-23.69-23.843-19.69c-4.064,1.087-3.557,18.666-9.944,22.26
			c-33.697,18.959-53.919-59.265-87.007-62.91c-5.62-0.619-17.734,13.046-30.169,20.442c-13.157,7.824-26.996,12.284-30.414,10.22
			c-3.648-2.204,7.563-21.401-0.442-26.658c-4.967-3.261-22.99,4.797-39.744,6.794c-37.731,4.497-47.223-45.433-47.223-45.433
			s7.775-1.389-36.049,8.6c-43.824,9.989-6.163,10.702-4.505,35.505c0.333,4.974-2.985,12.787-10.462,20.089
			c-3.281,3.204,4.201,18.002,4.201,18.002s-7.93,2.764-14.261,1.327c-5.578-1.266-12.67-7.545-14.164-6.977
			c-6.567,2.493-15.058,6.854-23.865,7.601c-27.341,2.32-48.711-13.198-52.03-27.89c-4.049-17.923,18.945-18.586,17.153-24.16
			c-1.792-5.573,0-21.703-36.627-22.511c-21.396-0.472-30.859,4.787-31.156,9.269c-0.398,6.008,12.233,22.757-7.746,28.891
			C9.11,48.466-3.411,37.336-3.411,37.336L-43.096-35.622z"/>
		
			<linearGradient id="SVGID_00000024711863837723794000000009600984205844428689_" gradientUnits="userSpaceOnUse" x1="-2620.0798" y1="1943.1559" x2="-2620.0225" y2="1925.5433" gradientTransform="matrix(7 0 0 -7 18894 13728)">
			<stop  offset="0" style="stop-color:#874B09"/>
			<stop  offset="1" style="stop-color:#5C870A"/>
		</linearGradient>
		<path style="fill:url(#SVGID_00000024711863837723794000000009600984205844428689_);" d="M555.108-7.241h6.25l-3.583,100.762
			l14.027-34.388l-14.551,49.123l-0.44,12.371l4.547,118.118c0,0-6.432,4.922-15.476,2.572c-9.043-2.351-10.67-4.96-10.67-8.042
			c0-5.044,5.176-105.303,5.176-105.303s-6.234-13.709-5.179-15.228c1.054-1.52,6.077,6.98,6.077,6.98L555.108-7.241z"/>
		
			<linearGradient id="SVGID_00000029764010748188836760000009789772215368942736_" gradientUnits="userSpaceOnUse" x1="-2613.3333" y1="1937.019" x2="-2622.6135" y2="1947.484" gradientTransform="matrix(7 0 0 -7 18894 13728)">
			<stop  offset="0" style="stop-color:#4D2A04"/>
			<stop  offset="1" style="stop-color:#824A0C"/>
		</linearGradient>
		
			<path style="opacity:0.8837;fill:url(#SVGID_00000029764010748188836760000009789772215368942736_);enable-background:new    ;" d="
			M561.358-8.549l-3.583,100.762l14.027-34.387l-14.551,49.123l-0.44,12.37l4.547,118.118c0,0-6.432,4.923-15.476,2.573
			c-3.432-0.893,0.603-33.987,4.664-78.084l-5.385,12.648l-7.699,10.606l13.492-32.611c0.856-9.457,0.356-17.931,1.137-27.798
			c0.041-0.515-5.475-19.433-5.475-19.433s-0.288-33.193-0.226-33.989c0.069-0.885,2.976,32.69,2.976,32.69
			s4.664,11.877,4.701,11.399C558.769,53.652,561.358-8.549,561.358-8.549z"/>
		
			<linearGradient id="SVGID_00000097460202625160428190000003538954127410611387_" gradientUnits="userSpaceOnUse" x1="-2598.5071" y1="1954.056" x2="-2672.9421" y2="1961.7159" gradientTransform="matrix(7 0 0 -7 18894 13728)">
			<stop  offset="0" style="stop-color:#C8BE14"/>
			<stop  offset="0.3833" style="stop-color:#ADA51A"/>
			<stop  offset="1" style="stop-color:#303A06"/>
		</linearGradient>
		<path style="fill:url(#SVGID_00000097460202625160428190000003538954127410611387_);" d="M-19.106-35.622l480.571-5.179
			l303.572,5.179c0,0-32.837,14.521-55.034,46.101c-9.359,13.319-52.415,23.078-27.056,50.668
			c24.48,26.636-11.598,52.437-44.521,50.225c-32.924-2.211-56.006-11.503-79.7-50.225c-17.933-29.307-8.607,2.983-19.223,8.734
			c-11.397,6.173-49.827-23.868-44.104-51.68c4.544-22.081,20.464-32.087,20.464-32.087s2.35-36.353-21.491-41.053
			c-20.268-3.996-48.435,3.824-50.127,24.039c-1.607,19.206,28.19,52.936,13.886,73.096c-25.43,35.841-64.046,10.077-97.159,22.915
			c-27.436,10.637-26.988,46.113-59.714,32.701c-19.726-8.084-25.335-29.681-35.22-32.701c-4.552-1.391-20.955,7.746-35.228,0
			c-39.421-21.395,16.592-38.989,16.592-38.989s-4.336,38.107-44.498,44.946C162.744,77.907,133.1,37.989,133.1,37.989
			s6.715,14.806-10.155,25.105c-6.576,4.015-20.134,2.017-20.134,2.017s7.162-8.505,6.549-13.289
			c-0.994-7.751-7.911-1.261-13.635,3.786C82.986,66.841,60.061,68.05,43.054,53.802C25.105,38.764,30.633,17.675,30.633,17.675
			S4.731,35.238-14.975,21.71C-32.466,9.703-19.106-35.622-19.106-35.622z"/>
		
			<linearGradient id="SVGID_00000101097651001693198510000006697705493885965759_" gradientUnits="userSpaceOnUse" x1="-2666.8386" y1="1951.6211" x2="-2674.2087" y2="1961.8418" gradientTransform="matrix(7 0 0 -7 18894 13728)">
			<stop  offset="0" style="stop-color:#979410"/>
			<stop  offset="1" style="stop-color:#4A5108"/>
		</linearGradient>
		<path style="fill:url(#SVGID_00000101097651001693198510000006697705493885965759_);" d="M247.402,26.122
			c-1.746,7.902-4.336,38.107-44.498,44.946c-13.395,2.281-25.62-0.639-35.966-5.545c-12.321-5.843-17.859-12.763-7.048-21.806
			c7.327-6.128,37.806,4.983,36.329-15.319c-3.706-50.916,29.98-44.851,41.102-33.913c4.342,4.27,7.148,9.347,8.786,14.369
			C248.212,15.311,248.385,21.677,247.402,26.122z"/>
		
			<linearGradient id="SVGID_00000120532012694710124510000010730616662747684242_" gradientUnits="userSpaceOnUse" x1="-2694.3635" y1="1955.8921" x2="-2684.9578" y2="1967.0114" gradientTransform="matrix(7 0 0 -7 18894 13728)">
			<stop  offset="0" style="stop-color:#455308"/>
			<stop  offset="1" style="stop-color:#657911"/>
		</linearGradient>
		<path style="fill:url(#SVGID_00000120532012694710124510000010730616662747684242_);" d="M-19.106-35.622
			c0,0,60.493,10.803,81.301,28.381c20.808,17.578,1.931,41.93,1.931,41.93s11.211-21.618,34.855-21.485
			c24.555,0.138,34.119,24.785,34.119,24.785s6.715,14.806-10.155,25.105c-6.576,4.015-20.134,2.017-20.134,2.017
			s7.162-8.505,6.549-13.289c-0.994-7.751-7.911-1.261-13.635,3.786C82.986,66.841,60.061,68.05,43.054,53.802
			C25.105,38.764,30.633,17.675,30.633,17.675S4.731,35.238-14.975,21.71C-32.466,9.703-19.106-35.622-19.106-35.622z"/>
		<path style="fill:#54650D;" d="M71.8-2.53C78.84-16.582,127.671-30.9,155.742-30.9c28.072,0,47.49,33.682,22.432,59.297
			c-25.059,25.615-45.907-12.766-57.193-20.55C98.96-7.341,85.87,15.71,73.695,10.435C64.451,6.43,67.172,6.706,71.8-2.53z"/>
		<path style="fill:#758611;" d="M153.166,169.171c0,0-6.822-25.819,9.093-25.819c0.694,0,6.446,25.819,6.446,25.819
			s-1.763-25.06-0.491-24.683c7.046,2.089,17.048,6.71,23.634,10.912c0.828,0.528-7.862,20.952-7.862,20.952
			s10.037-19.462,11.111-18.433c0.907,0.869,1.729,1.749,2.472,2.63c0.512,0.608-5.134,10.353-5.134,10.353s7.629-6.995,8.085-6.239
			c4.258,7.07,4.135,13.228,4.135,13.228s7.477-12.4,11.06-8.719c3.582,3.681-5.569,11.388-5.569,11.388s9.649-0.657,19.784-1.023
			c0.692-0.025-0.266,6.376-0.266,6.376s3.464-6.481,4.019-6.497c0.326-0.009,0.65-0.018,0.974-0.025
			c0.91-0.023-1.804,9.155-1.804,9.155l6.718-9.24c6.573-0.055,11.965,0.179,13.139,1.013c2.435,1.731-14.217,8.837-9.016,11.185
			c21.271,9.6,11.382,9.87-2.709,7.533c-14.091-2.337-23.814-2.197-52.574-8.976c-28.76-6.779-61.636-20.889-61.636-20.889H153.166z
			"/>
		
			<linearGradient id="SVGID_00000054946387377043823380000010533072228925207462_" gradientUnits="userSpaceOnUse" x1="-2645.4773" y1="1966.0542" x2="-2641.6377" y2="1956.062" gradientTransform="matrix(7 0 0 -7 18894 13728)">
			<stop  offset="0" style="stop-color:#8D8F1A"/>
			<stop  offset="1" style="stop-color:#AAA81F"/>
		</linearGradient>
		<path style="fill:url(#SVGID_00000054946387377043823380000010533072228925207462_);" d="M342.555-5.516l87.225-3.033
			c0,0,8.585,45.64,0,48.383c-8.585,2.742-48.875,13.968-59.253,7.088C360.15,40.043,342.555-5.516,342.555-5.516z"/>
		<path style="fill:#ABA529;" d="M373.863,55.592c0-3.974,58.864-13.909,67.456-11.876c8.592,2.034,23.202,24.746,19.153,29.83
			c-4.049,5.083-35.299,5.728-44.883,3.844C406.004,75.508,373.863,59.566,373.863,55.592z"/>
		
			<linearGradient id="SVGID_00000051374422225391760630000013790563627376720284_" gradientUnits="userSpaceOnUse" x1="-2615.0334" y1="1961.7286" x2="-2624.6555" y2="1953.8856" gradientTransform="matrix(7 0 0 -7 18894 13728)">
			<stop  offset="0" style="stop-color:#9EA70D"/>
			<stop  offset="1" style="stop-color:#B8B02D"/>
		</linearGradient>
		<path style="fill:url(#SVGID_00000051374422225391760630000013790563627376720284_);" d="M507.783,20.285
			c0-7.584,42.034-31.388,42.034-31.388l54.678,31.388c0,0-39.315,45.323-51.05,45.323S507.783,27.869,507.783,20.285z"/>
		
			<linearGradient id="SVGID_00000180346383100263891750000006801199196259242120_" gradientUnits="userSpaceOnUse" x1="-2601.6465" y1="1954.4094" x2="-2618.1619" y2="1944.6243" gradientTransform="matrix(7 0 0 -7 18894 13728)">
			<stop  offset="0" style="stop-color:#596505"/>
			<stop  offset="1" style="stop-color:#B8B02D"/>
		</linearGradient>
		<path style="fill:url(#SVGID_00000180346383100263891750000006801199196259242120_);" d="M556.19,73.522
			c5.979-12.893,108.395-64.885,119.56-60.567c11.165,4.318,27.288,64.829,23.755,74.247c-3.531,9.417-19.733,6.271-39.402,15.652
			c-19.669,9.381-31.802,25-39.274,21.871C613.355,121.596,550.211,86.416,556.19,73.522z"/>
		<defs>
			<filter id="Adobe_OpacityMaskFilter" filterUnits="userSpaceOnUse" x="363.436" y="-15.122" width="172.951" height="239.154">
				<feFlood  style="flood-color:white;flood-opacity:1" result="back"/>
				<feBlend  in="SourceGraphic" in2="back" mode="normal"/>
			</filter>
		</defs>
		
			<mask maskUnits="userSpaceOnUse" x="363.436" y="-15.122" width="172.951" height="239.154" id="SVGID_00000021092904064675036560000002609986098935769516_">
			<g style="filter:url(#Adobe_OpacityMaskFilter);">
				<defs>
					
						<filter id="Adobe_OpacityMaskFilter_00000132078895371490560610000007811964389631625117_" filterUnits="userSpaceOnUse" x="363.436" y="-15.122" width="172.951" height="239.154">
						<feFlood  style="flood-color:white;flood-opacity:1" result="back"/>
						<feBlend  in="SourceGraphic" in2="back" mode="normal"/>
					</filter>
				</defs>
				
					<mask maskUnits="userSpaceOnUse" x="363.436" y="-15.122" width="172.951" height="239.154" id="SVGID_00000021092904064675036560000002609986098935769516_">
					<g style="filter:url(#Adobe_OpacityMaskFilter_00000132078895371490560610000007811964389631625117_);">
					</g>
				</mask>
				
					<linearGradient id="SVGID_00000174567457702844968780000017065622950588672685_" gradientUnits="userSpaceOnUse" x1="-2510.1086" y1="1985.2924" x2="-2503.4541" y2="2002.3794" gradientTransform="matrix(8.8141 -1.2344 -0.9709 -6.9323 24490.7441 10823.043)">
					<stop  offset="0" style="stop-color:#020202"/>
					<stop  offset="1" style="stop-color:#FFFFFF"/>
				</linearGradient>
				
					<path style="mask:url(#SVGID_00000021092904064675036560000002609986098935769516_);fill:url(#SVGID_00000174567457702844968780000017065622950588672685_);" d="
					M470.241-15.122l66.146,1.739l-61.3,225.231l-111.651,12.185l54.513-122.065l1.41-3.156L470.241-15.122z"/>
			</g>
		</mask>
		
			<linearGradient id="SVGID_00000129898679148108176290000015187496541217622418_" gradientUnits="userSpaceOnUse" x1="-2510.1086" y1="1985.2924" x2="-2503.4541" y2="2002.3794" gradientTransform="matrix(8.8141 -1.2344 -0.9709 -6.9323 24490.7441 10823.043)">
			<stop  offset="0" style="stop-color:#FFFE29"/>
			<stop  offset="1" style="stop-color:#FFDB10"/>
		</linearGradient>
		
			<path style="opacity:0.6337;fill:url(#SVGID_00000129898679148108176290000015187496541217622418_);enable-background:new    ;" d="
			M470.241-15.122l66.146,1.739l-61.3,225.231l-111.651,12.185l54.513-122.065l1.41-3.156L470.241-15.122z"/>
		<defs>
			
				<filter id="Adobe_OpacityMaskFilter_00000147178242349014727680000001051675021660173985_" filterUnits="userSpaceOnUse" x="339.814" y="-7.241" width="118.279" height="194.487">
				<feFlood  style="flood-color:white;flood-opacity:1" result="back"/>
				<feBlend  in="SourceGraphic" in2="back" mode="normal"/>
			</filter>
		</defs>
		
			<mask maskUnits="userSpaceOnUse" x="339.814" y="-7.241" width="118.279" height="194.487" id="SVGID_00000056413383561298773720000006333705009279323018_">
			<g style="filter:url(#Adobe_OpacityMaskFilter_00000147178242349014727680000001051675021660173985_);">
				<defs>
					
						<filter id="Adobe_OpacityMaskFilter_00000084496268637568899150000008763803837780090243_" filterUnits="userSpaceOnUse" x="339.814" y="-7.241" width="118.279" height="194.487">
						<feFlood  style="flood-color:white;flood-opacity:1" result="back"/>
						<feBlend  in="SourceGraphic" in2="back" mode="normal"/>
					</filter>
				</defs>
				
					<mask maskUnits="userSpaceOnUse" x="339.814" y="-7.241" width="118.279" height="194.487" id="SVGID_00000056413383561298773720000006333705009279323018_">
					<g style="filter:url(#Adobe_OpacityMaskFilter_00000084496268637568899150000008763803837780090243_);">
					</g>
				</mask>
				
					<linearGradient id="SVGID_00000122712526658115147480000007001298834623234178_" gradientUnits="userSpaceOnUse" x1="-2474.3911" y1="1954.9357" x2="-2467.7366" y2="1972.0226" gradientTransform="matrix(3.6359 0.5334 1.0161 -6.9259 7385.8491 15016.3369)">
					<stop  offset="0" style="stop-color:#020202"/>
					<stop  offset="1" style="stop-color:#FFFFFF"/>
				</linearGradient>
				
					<path style="mask:url(#SVGID_00000056413383561298773720000006333705009279323018_);fill:url(#SVGID_00000122712526658115147480000007001298834623234178_);" d="
					M449.912-7.241l8.181,4.71l-87.566,189.776h-30.713L449.912-7.241z"/>
			</g>
		</mask>
		
			<linearGradient id="SVGID_00000119815741779079945490000014713180469313368757_" gradientUnits="userSpaceOnUse" x1="-2474.3911" y1="1954.9357" x2="-2467.7366" y2="1972.0226" gradientTransform="matrix(3.6359 0.5334 1.0161 -6.9259 7385.8491 15016.3369)">
			<stop  offset="0" style="stop-color:#FFFE29"/>
			<stop  offset="1" style="stop-color:#FFD122"/>
		</linearGradient>
		
			<path style="opacity:0.6337;fill:url(#SVGID_00000119815741779079945490000014713180469313368757_);enable-background:new    ;" d="
			M449.912-7.241l8.181,4.71l-87.566,189.776h-30.713L449.912-7.241z"/>
		<defs>
			
				<filter id="Adobe_OpacityMaskFilter_00000178922817517920345240000007990500686724530865_" filterUnits="userSpaceOnUse" x="360.972" y="-5.516" width="83.54" height="138.897">
				<feFlood  style="flood-color:white;flood-opacity:1" result="back"/>
				<feBlend  in="SourceGraphic" in2="back" mode="normal"/>
			</filter>
		</defs>
		
			<mask maskUnits="userSpaceOnUse" x="360.972" y="-5.516" width="83.54" height="138.897" id="SVGID_00000134944959058613443490000017521787368994046627_">
			<g style="filter:url(#Adobe_OpacityMaskFilter_00000178922817517920345240000007990500686724530865_);">
				<defs>
					
						<filter id="Adobe_OpacityMaskFilter_00000071551469419512690510000004176213046310370464_" filterUnits="userSpaceOnUse" x="360.972" y="-5.516" width="83.54" height="138.897">
						<feFlood  style="flood-color:white;flood-opacity:1" result="back"/>
						<feBlend  in="SourceGraphic" in2="back" mode="normal"/>
					</filter>
				</defs>
				
					<mask maskUnits="userSpaceOnUse" x="360.972" y="-5.516" width="83.54" height="138.897" id="SVGID_00000134944959058613443490000017521787368994046627_">
					<g style="filter:url(#Adobe_OpacityMaskFilter_00000071551469419512690510000004176213046310370464_);">
					</g>
				</mask>
				
					<linearGradient id="SVGID_00000129176476998029826290000011128662169631777702_" gradientUnits="userSpaceOnUse" x1="-2336.0159" y1="1969.0237" x2="-2327.2485" y2="1980.1725" gradientTransform="matrix(3.6359 0.5334 1.0161 -6.9259 6869.7671 14986.4863)">
					<stop  offset="0" style="stop-color:#020202"/>
					<stop  offset="1" style="stop-color:#FFFFFF"/>
				</linearGradient>
				
					<path style="mask:url(#SVGID_00000134944959058613443490000017521787368994046627_);fill:url(#SVGID_00000129176476998029826290000011128662169631777702_);" d="
					M438.047-5.516h6.465l-81.075,138.897l-2.465-10.785L438.047-5.516z"/>
			</g>
		</mask>
		
			<linearGradient id="SVGID_00000118379935056040907550000004157364710443318926_" gradientUnits="userSpaceOnUse" x1="-2336.0159" y1="1969.0237" x2="-2327.2485" y2="1980.1725" gradientTransform="matrix(3.6359 0.5334 1.0161 -6.9259 6869.7671 14986.4863)">
			<stop  offset="0" style="stop-color:#FFFE29"/>
			<stop  offset="1" style="stop-color:#FFD122"/>
		</linearGradient>
		
			<path style="opacity:0.6337;fill:url(#SVGID_00000118379935056040907550000004157364710443318926_);enable-background:new    ;" d="
			M438.047-5.516h6.465l-81.075,138.897l-2.465-10.785L438.047-5.516z"/>
		
			<linearGradient id="SVGID_00000103225034416290780740000006391934798273458048_" gradientUnits="userSpaceOnUse" x1="-2612.031" y1="1939.5627" x2="-2613.5237" y2="1921.3369" gradientTransform="matrix(7 0 0 -7 18894 13722.082)">
			<stop  offset="0" style="stop-color:#874B09"/>
			<stop  offset="1" style="stop-color:#6E6D0A"/>
		</linearGradient>
		<path style="fill:url(#SVGID_00000103225034416290780740000006391934798273458048_);" d="M636.343-11.579l7.3-3.762l-29.08,73.194
			l-1.509,42.256l12.116-5.312l21.671-24.641l-18.619,27.065l-15.663,16.748l-4.86,136.163h-35.899l17.718-131.927l8.729-64.995
			c0,0,5.958-8.484,8.685-13.261l-6.442-27.436l-9.115-20.157l10.958,18.257l10.016,19.843L636.343-11.579z"/>
		<path style="fill:#71350A;" d="M612.56,113.969l-4.86,136.163l-30.214-25.256l10.958-26.753l5.739-51.389l10.312-26.72
			L612.56,113.969z"/>
		<path style="fill:#603306;" d="M636.343-10.987l7.3-3.761l-29.08,73.194l-1.509,42.255c0,0,1.712,2.376,5.503,1.654
			c3.793-0.722,9.665-4.543,9.665-4.543l-15.663,16.748l-4.86,136.164l-9.452-0.509l6.521-85.548l1.049-13.755l1.544-20.25
			l-3.552,6.615l-5.562,51.106l-7.527,60.537l-9.862-0.412l15.844-60.126l1.546-40.745l-7.82,50.813l-11.251,20.728l7.344-22.732
			l4.985-49.713l9.539-22.602l2.916-6.909l1.891-4.479l4.262-41.134l-5.893,30.915l-16.77,31.87l10.795-36.584l11.073-47.623
			l-11.073,3.612l11.073-7.413L636.343-10.987z"/>
		
			<linearGradient id="SVGID_00000109019102497055251490000013560680376214682771_" gradientUnits="userSpaceOnUse" x1="-2677.4744" y1="1938.5796" x2="-2676.991" y2="1925.4595" gradientTransform="matrix(7 0 0 -7 18894 13728)">
			<stop  offset="0" style="stop-color:#874B09"/>
			<stop  offset="1" style="stop-color:#72990D"/>
		</linearGradient>
		<path style="fill:url(#SVGID_00000109019102497055251490000013560680376214682771_);" d="M163.942,0h6.152l-13.215,76.045
			l11.424,152.685h-38.251l9.28-152.685l11.147-34.441L126.776-2.53l26.545,35.659L163.942,0z"/>
		
			<linearGradient id="SVGID_00000089538515076024347790000003246805589588284579_" gradientUnits="userSpaceOnUse" x1="-2675.7166" y1="1940.8507" x2="-2680.7073" y2="1940.7727" gradientTransform="matrix(7 0 0 -7 18894 13728)">
			<stop  offset="0" style="stop-color:#E27535"/>
			<stop  offset="1" style="stop-color:#874B09"/>
		</linearGradient>
		<path style="fill:url(#SVGID_00000089538515076024347790000003246805589588284579_);" d="M148.754,55.531l8.649,27.53
			l10.9,145.669l-23.304-74.312l-1.27-56.605l-1.581-20.422L148.754,55.531z"/>
		
			<linearGradient id="SVGID_00000081635705240757588360000016329745908232031159_" gradientUnits="userSpaceOnUse" x1="-2678.6956" y1="1944.4617" x2="-2664.521" y2="1944.5532" gradientTransform="matrix(7 0 0 -7 18894 13728)">
			<stop  offset="0" style="stop-color:#6A2F08"/>
			<stop  offset="1" style="stop-color:#B3640D"/>
		</linearGradient>
		<path style="fill:url(#SVGID_00000081635705240757588360000016329745908232031159_);" d="M163.942,0l-1.045,4.057l-0.201,16.724
			l2.176,9.352l-4.271-7.548l-0.064-9.955l-7.427,29.392l1.049,66.839l10.163,65.712l-12.786-65.712l-1.354-24.295l-1.429-25.636
			l-5.244,20.343l0.589,75.786l18.659,78.215l4.605-16.608l-1.55-21.335L152.519,170.4l-2.602-15.982l-1.401-13.404l11.528,11.148
			l-11.609-19.716l-4.798-38.107l-3.068,134.391h-10.518l9.28-152.685l11.147-34.441l-13.072-24.396l11.029,14.852l4.886,1.069
			L163.942,0z"/>
		<path style="opacity:0.6512;fill:#586A0A;enable-background:new    ;" d="M609.321,206.583l-1.621,44.141h-35.899l6.453-48.056
			c0,0,5.895,19.972,10.063,16.401c4.169-3.572,1.438-25.49,6.609-30.687C600.097,183.185,609.321,206.583,609.321,206.583z"/>
		
			<linearGradient id="SVGID_00000182524325049887420390000001143931282098137768_" gradientUnits="userSpaceOnUse" x1="-2677.7778" y1="1930.7202" x2="-2676.1174" y2="1936.3564" gradientTransform="matrix(7 0 0 -7 18894 13728)">
			<stop  offset="0" style="stop-color:#68660A"/>
			<stop  offset="1" style="stop-color:#EBBC1C"/>
		</linearGradient>
		
			<path style="opacity:0.7965;fill:url(#SVGID_00000182524325049887420390000001143931282098137768_);enable-background:new    ;" d="
			M164.553,178.614l3.75,50.116h-38.251l2.22-36.516c0,0,2.68-1.616,3.972,0.881c2.671,5.163,5.141,16.552,5.905,16.552
			c1.134,0-4.217-10.928,1.721-14.315c8.812-5.025,11.417,6.833,14.15,5.662C160.752,199.825,164.553,178.614,164.553,178.614z"/>
		
			<linearGradient id="SVGID_00000047034841145544866790000005380947023271362448_" gradientUnits="userSpaceOnUse" x1="-2643.6309" y1="1929.2399" x2="-2656.52" y2="1930.2357" gradientTransform="matrix(7 0 0 -7 18894 13728)">
			<stop  offset="0" style="stop-color:#BEB11F"/>
			<stop  offset="1" style="stop-color:#7C730D"/>
		</linearGradient>
		<path style="fill:url(#SVGID_00000047034841145544866790000005380947023271362448_);" d="M331.141,204.55l36.99,7.08l8.713,14.414
			c0,0,20.952,4.362,15.607,5.757c-5.344,1.394-40.564,3.84-59.082,1.476c-18.517-2.363-41.871-12.698-41.871-12.698L331.141,204.55
			z"/>
		<path style="fill:#AF885E;" d="M330.128,202.569l36.991,7.079l19.849,9.899l0.095,10.136L350,230.714l-37.962-6.682
			L330.128,202.569z"/>
		<path style="fill:#9C6946;" d="M330.128,202.569l36.991,7.079l19.849,9.899l0.095,10.136l-4.474,0.125l-3.145-10.602l0.239,10.682
			l-1.285,0.036l-0.419-11.151l-13.747,0.405l2.098,11.082l-5.3,0.147l-2.483-10.86h-4.523l0.556,11.04l-2.564,0.071L350,221.138
			l-2.71,0.271l2.71,9.305l-37.962-6.682L330.128,202.569z"/>
		<path style="fill:#9C6946;" d="M330.128,202.569l17.161,18.84l2.71,9.305l-37.962-6.682L330.128,202.569z"/>
		<path style="fill:#EAC969;" d="M330.128,202.569c0.89-0.863,37.28,7.079,37.28,7.079s20.849,9.124,19.559,9.899
			c-1.289,0.773-37.417,2.674-39.678,1.862C345.029,220.596,329.238,203.431,330.128,202.569z"/>
		
			<linearGradient id="SVGID_00000130629830862750602310000016144031321801727905_" gradientUnits="userSpaceOnUse" x1="-2646.4026" y1="1930.0289" x2="-2650.7002" y2="1931.2047" gradientTransform="matrix(7 0 0 -7 18894 13728)">
			<stop  offset="0" style="stop-color:#FFEE91"/>
			<stop  offset="1" style="stop-color:#EAC969"/>
			<stop  offset="1" style="stop-color:#000000"/>
		</linearGradient>
		<path style="fill:url(#SVGID_00000130629830862750602310000016144031321801727905_);" d="M344.647,204.888
			c5.129,1.018,10.695,2.181,15.038,3.102c4.524,0.96,27.068,11.997,19.781,12.422c-5.408,0.316-17.877,0.955-22.769,1.097
			c-2.797,0.081,12.117-0.858,7.706-6.094C361.524,211.996,341.355,204.234,344.647,204.888z"/>
		
			<linearGradient id="SVGID_00000088819851711820263680000010249634956982541453_" gradientUnits="userSpaceOnUse" x1="-2668.2737" y1="1906.0751" x2="-2664.0239" y2="1909.6982" gradientTransform="matrix(8.0987 0 0 -9.0901 21917.7109 17546.4844)">
			<stop  offset="0" style="stop-color:#69790D"/>
			<stop  offset="1" style="stop-color:#D6C832"/>
		</linearGradient>
		<path style="fill:url(#SVGID_00000088819851711820263680000010249634956982541453_);" d="M274.468,204.55
			c0-6.426,14.43-9.217,14.43-9.217l-1.057,11.31l1.871,0.689c0,0,6.56-9.533,14.536-15.468c0.668-0.497,0.696,10.799,0.696,10.799
			s2.612-12.993,3.257-13.338c0.72-0.384,1.444-0.725,2.169-1.015c1.054-0.421-3.59,19.786-3.59,19.786s8.396-20.891,9.208-20.849
			c12.03,0.617,2.466,23.563,2.466,23.563s5.704-13.36,12.935-13.36c3.899,0,7.708,4.593,10.824,10.357
			c0.388,0.72-5.121,13.779-5.121,13.779s7.29-9.375,7.766-8.261c0.406,0.949,0.791,1.901,1.153,2.843
			c0.252,0.657,0.494,1.31,0.722,1.954c0.337,0.946,0.647,1.873,0.93,2.767c1.578,4.995,2.274,8.967,1.669,9.561
			c-1.786,1.757-38.118-1.646-55.569-8.536C276.312,215.025,274.468,209.804,274.468,204.55z"/>
		
			<linearGradient id="SVGID_00000060729545003062631230000009768993902816959117_" gradientUnits="userSpaceOnUse" x1="-2670.9368" y1="1904.6223" x2="-2661.98" y2="1908.9064" gradientTransform="matrix(8.0987 0 0 -9.0901 21917.7109 17546.4844)">
			<stop  offset="0" style="stop-color:#4D5907"/>
			<stop  offset="1" style="stop-color:#69790E"/>
		</linearGradient>
		
			<path style="opacity:0.6163;fill:url(#SVGID_00000060729545003062631230000009768993902816959117_);enable-background:new    ;" d="
			M280.945,212.925c5.741,1.206,6.892-12.142,6.982-11.093c0.22,2.565-0.086,4.811-0.086,4.811l1.871,0.689
			c0,0,2.059-2.992,5.272-6.668c1.618-1.851,3.531-3.876,5.62-5.779c0.526-0.479-15.122,16.841-13.203,21.401
			c1.023,2.43,4.226,4.765,7.979,6.222c1.037,0.402,10.794-17.81,10.794-17.81s-7.004,18.931-6.71,18.986
			c0.946,0.179,14.331-32.006,14.331-32.006s-7.627,31.973-6.876,31.695c0.916-0.34,1.737-0.819,2.426-1.459
			c9.181-8.536,11.547-32.012,11.847-31.363c3,6.495-2.736,20.258-2.736,20.258s5.704-13.36,12.935-13.36
			c0.901,0-4.082,0.602-8.229,7.248c-3.606,5.782-8.559,15.794-4.573,20.87c0.029,0.037,1.921-1.515,3.763-3.654
			c2.245-2.606,4.538-5.881,4.831-5.689c0,0-1.483,3.311-3.135,6.137c-1.423,2.432-3.069,4.456-2.878,4.265
			c1.597-1.585,4.385-4.626,6.801-8.136c3.832-5.567,7.227-11.849,7.227-11.849s-2.388,6.234-5.196,11.849
			c-2.643,5.284-5.731,9.969-5.279,9.997c5.735,0.368,9.919-5.032,12.797-10.842c2.481-5.008,3.989-11.143,4.694-9.841
			c0.388,0.72-5.121,13.779-5.121,13.779s7.29-9.375,7.766-8.261c0.19,0.445-12.261,14.062-7.73,16.142
			c12.03,5.522,10.386-9.052,10.536-8.578c1.578,4.995,2.274,8.967,1.669,9.561c-1.786,1.757-38.118-1.646-55.569-8.536
			C276.312,215.025,278.73,212.46,280.945,212.925z"/>
		
			<linearGradient id="SVGID_00000095315312389557631730000009335840872789732773_" gradientUnits="userSpaceOnUse" x1="-2648.5361" y1="1923.6263" x2="-2627.2947" y2="1930.584" gradientTransform="matrix(7 0 0 -7 18894 13728)">
			<stop  offset="0" style="stop-color:#99560D"/>
			<stop  offset="1" style="stop-color:#C06E13"/>
		</linearGradient>
		<path style="fill:url(#SVGID_00000095315312389557631730000009335840872789732773_);" d="M420.878,235.677
			c28.676-4.551-7.482-17.447-18.136-21.081c-2.866-0.977-13.557-3.049-3.789-3.049s21.609,1.004,42.86,3.049
			c21.251,2.045,42.145,5.605,42.145,5.605s110.103,15.574,69.487,30.523C512.828,265.674,321.492,280,321.492,280l-164.613,18.892
			c0,0,8.089-32.878,34.511-35.546c26.421-2.668,88.241-2.831,99.092-7.743c10.776-4.878-76.125-4.654-41.334-9.152
			C283.94,241.954,370.527,243.668,420.878,235.677z"/>
		
			<linearGradient id="SVGID_00000166643540092327344810000007782063621130957747_" gradientUnits="userSpaceOnUse" x1="-2648.2654" y1="1923.2672" x2="-2622.5203" y2="1933.0571" gradientTransform="matrix(7 0 0 -7 18894 13728)">
			<stop  offset="0" style="stop-color:#B46610"/>
			<stop  offset="1" style="stop-color:#D79F1F"/>
		</linearGradient>
		<path style="fill:url(#SVGID_00000166643540092327344810000007782063621130957747_);" d="M430.09,237.962
			c22.628-4.782-16.694-19.732-27.348-23.366c-2.866-0.977-13.557-3.074-3.789-3.074s21.976-0.551,43.227,1.494
			c21.251,2.045,50.885,5.756,50.885,5.756s100.996,17.002,60.38,31.952C512.828,265.674,321.492,280,321.492,280l-164.613,18.892
			c0,0,5.991-23.67,31.789-29.967c11.95-2.916,90.106-3.826,102.523-9.528c10.571-4.854-14.41-7.678-32.98-8.884
			c-8.693-0.564-15.89-1.113-17.203-2.005c-0.793-0.54,0.811,0.536,7.651-0.349C283.45,243.662,376.045,249.386,430.09,237.962z"/>
		
			<linearGradient id="SVGID_00000096780785535329795160000017702977044685013174_" gradientUnits="userSpaceOnUse" x1="-2617.8335" y1="1925.9095" x2="-2631.6289" y2="1929.2531" gradientTransform="matrix(7 0 0 -7 18894 13728)">
			<stop  offset="0" style="stop-color:#99560D"/>
			<stop  offset="1" style="stop-color:#AD6310"/>
		</linearGradient>
		<path style="fill:url(#SVGID_00000096780785535329795160000017702977044685013174_);" d="M483.414,223.308
			c14.48-1.899,81.766,9.968,81.766,9.968l-5.484,23.453l-38.819-16.084c0,0-21.332-2.959-27.66-4.968
			C486.888,233.669,466.866,225.478,483.414,223.308z"/>
		<path style="fill:#AF885E;" d="M523.942,212.857c2.818-1.31,42.454,0.159,42.454,0.159l7.687,20.259l-20.637,13.233l-53.9-17.779
			C499.545,228.73,521.125,214.167,523.942,212.857z"/>
		<path style="fill:#9C6946;" d="M563.076,226.043l-9.631,20.465l-53.9-17.779c0,0,24.734,8.294,43.368,9.431
			C561.547,239.297,563.076,226.043,563.076,226.043z"/>
		<path style="fill:#C6A27C;" d="M523.942,212.857c2.818-1.31,42.454,0.159,42.454,0.159l7.687,20.259l-8.903-16.635
			c0,0-58.035,6.803-50.754,2.132C516.951,217.153,523.217,213.195,523.942,212.857z"/>
		<path style="fill:#AF885E;" d="M489.676,219.07c1.418-0.61,10.309-0.11,12.779,0c2.471,0.109,13.77,6.433,13.77,6.433
			l4.651,10.174c0,0-21.971-1.51-26.564-2.402c-4.593-0.892-14.506-5.923-14.506-7.339
			C479.807,224.519,488.259,219.679,489.676,219.07z"/>
		<path style="fill:#A37C51;" d="M489.676,219.07c1.418-0.61,10.309-0.11,12.779,0c2.471,0.109-3.549,15.098-8.142,14.206
			c-0.643-0.125-1.39-0.33-2.199-0.596c-0.414-0.136,5.383-5.985,6.399-7.642c1.636-2.669-1.087-1.617-1.831-1.936
			c-0.106-0.046-0.694,0.4-1.527,1.098c-0.841,0.705-1.934,1.666-3.034,2.635c-0.464,0.409,3.065-5.008,2.617-4.615
			c-0.354,0.309-4.692,6.435-5.016,6.714c-1.275,1.1-2.253,1.894-2.393,1.829c-0.513-0.235-1.022-0.478-1.518-0.724
			c-0.292-0.145,8.289-8.486,8.007-8.632c-0.309-0.16-9.482,7.875-9.776,7.715c-0.39-0.211-0.764-0.422-1.116-0.628
			c-0.198-0.116,7.834-5.662,9.042-6.889c2.447-2.489-0.813-1.532-1.119-1.744c-0.217-0.15-9.934,7.33-10.11,7.191
			c-0.589-0.464-0.932-0.853-0.932-1.117C479.807,224.519,488.259,219.679,489.676,219.07z"/>
		<path style="fill:#9C6946;" d="M502.097,224.032c2.18-0.701,14.128,1.471,14.128,1.471s6.657,7.813,4.651,10.174
			c-2.005,2.362-12.849,0.627-12.849,0.627l-13.715-3.029C494.313,233.276,499.743,224.788,502.097,224.032z"/>
		<path style="fill:#C6A27C;" d="M489.676,219.07c1.418-0.61,10.309-0.11,12.779,0c2.471,0.109,13.587,5.807,13.77,6.433
			c0.5,1.711-7.508,3.34-14.643,1.722c-2.713-0.615-5.381-2.117-7.505-3.667c-0.812-0.592-3.165-2.684-3.527-3.076
			C489.828,219.699,489.49,219.15,489.676,219.07z"/>
		<path style="opacity:0.7965;fill:#CC9A1C;enable-background:new    ;" d="M140.781,188.056c-0.533-1.513-0.136-3.032,0.888-3.392
			c1.023-0.36,2.284,0.575,2.817,2.088s1.698,3.197,0.676,3.557C144.138,190.669,141.314,189.569,140.781,188.056z"/>
		<path style="opacity:0.7965;fill:#CC9A1C;enable-background:new    ;" d="M149.547,179.292c0.538-0.514,1.345-0.545,1.8-0.068
			c0.456,0.477,0.389,1.281-0.15,1.796c-0.539,0.514-2.035,0.961-2.491,0.484C148.251,181.026,149.008,179.805,149.547,179.292z"/>
		<path style="opacity:0.7965;fill:#CC9A1C;enable-background:new    ;" d="M139.406,150.767c-0.492-1.458-0.294-2.841,0.443-3.09
			c0.737-0.248,1.733,0.732,2.226,2.189c0.492,1.457,0.811,4.304,0.074,4.553C141.412,154.667,139.898,152.224,139.406,150.767z"/>
		<path style="opacity:0.7965;fill:#CC9A1C;enable-background:new    ;" d="M150.529,199.688c1.23-1.584,2.936-2.318,3.812-1.639
			c0.875,0.679,2.114,1.844,0.884,3.429c-1.23,1.584-4.465,2.989-5.34,2.309C149.011,203.108,149.299,201.272,150.529,199.688z"/>
		<path style="opacity:0.7965;fill:#CC9A1C;enable-background:new    ;" d="M147.567,205.163c0.354-0.436,0.863-0.609,1.138-0.386
			c0.275,0.223,0.212,0.757-0.141,1.193c-0.354,0.436-0.863,0.609-1.138,0.386C147.15,206.133,147.214,205.599,147.567,205.163z"/>
		<path style="opacity:0.7422;fill:#FCAE3A;enable-background:new    ;" d="M150.108,130.827
			c-0.963-4.521,0.553-14.011,1.541-14.188c0.988-0.178,1.884,5.473,2.701,10.022c0.817,4.55,2.381,11.626,1.392,11.804
			C154.755,138.641,150.626,133.258,150.108,130.827z"/>
		<path style="opacity:0.9264;fill:#FCAE3A;enable-background:new    ;" d="M153.509,154.418c-1.281-2.729-2.038-7.683-0.948-7.683
			c1.091,0,5.776,4.302,6.734,7.009c0.832,2.35,0.834,5.395-0.256,5.395C157.949,159.139,154.568,156.675,153.509,154.418z"/>
		<path style="opacity:0.6512;fill:#586A0A;enable-background:new    ;" d="M600.368,179.706c1.023-1.898,2.591-3.039,3.501-2.548
			c0.91,0.491,0.818,2.427-0.205,4.325c-1.023,1.898-3.252,3.594-4.161,3.104C598.592,184.096,599.344,181.604,600.368,179.706z"/>
		<path style="opacity:0.6512;fill:#586A0A;enable-background:new    ;" d="M585.378,185.906c0-2.431,1.971-4.402,4.402-4.402
			c2.432,0,4.402,1.971,4.402,4.402c0,2.432-1.971,4.402-4.402,4.402C587.35,190.308,585.378,188.338,585.378,185.906z"/>
		<path style="opacity:0.6512;fill:#586A0A;enable-background:new    ;" d="M582.9,208.965c0-2.763,1.236-5.003,2.76-5.003
			c1.525,0,2.76,2.24,2.76,5.003c0,2.764,0.299,5.004-1.226,5.004C585.67,213.969,582.9,211.729,582.9,208.965z"/>
		<path style="fill:#99560D;" d="M383.77,264.864l86.171-7.013V280l-127.386-4.614c0,0,28.944-4.626,43.525-6.474
			c9.755-1.236,4.919-2.115,0.983-2.902C385.116,265.619,383.77,264.864,383.77,264.864z"/>
		<path style="fill:#69790D;" d="M335.117,186.524c-0.862-2.652,0.595-8.335,2.558-8.973c1.964-0.638,3.69,4.01,4.552,6.661
			c0.862,2.652-0.031,5.319-1.994,5.958C338.269,190.809,335.979,189.176,335.117,186.524z"/>
		<path style="opacity:0.8081;fill:#6E7F0C;enable-background:new    ;" d="M333.875,166.643c0.898-2.28,2.683-3.711,3.987-3.198
			c1.303,0.514,1.632,2.778,0.733,5.058c-0.898,2.28-2.683,3.711-3.987,3.198C333.306,171.188,332.977,168.923,333.875,166.643z"/>
		<path style="fill:#69790D;" d="M325.731,179.236c-0.608-0.985-0.348-2.246,0.579-2.818c0.927-0.571,2.171-0.237,2.778,0.748
			c0.608,0.984,0.348,2.246-0.579,2.817C327.582,180.556,326.338,180.221,325.731,179.236z"/>
		<path style="fill:#EDB02B;" d="M407.294,249.871c0.095-2.51,9.964-3.606,21.483-5.174c16.019-2.18,23.582,2.566,23.487,5.075
			c-0.095,2.51-13.222,6.186-24.837,5.746C415.811,255.077,407.199,252.382,407.294,249.871z"/>
		<path style="fill:#EDB02B;" d="M384.884,247.402c-0.147-1.336,3.368-2.818,7.852-3.312c4.483-0.494,9.86-0.188,10.007,1.148
			c0.147,1.335-4.991,3.193-9.474,3.687C388.784,249.42,385.031,248.738,384.884,247.402z"/>
		<path style="fill:#EDB02B;" d="M449.912,239.915c0.046-1.041,4.713-1.891,8.263-1.736c3.55,0.155,6.391,1.125,6.345,2.166
			c-0.045,1.042-2.96,1.76-6.51,1.605C454.46,241.795,449.867,240.957,449.912,239.915z"/>
		<path style="fill:#DA9D1A;" d="M308.043,252.519c-0.041-1.717,8.597-3.313,19.293-3.565c10.695-0.251,19.398,0.937,19.439,2.654
			c0.04,1.717-8.597,3.314-19.293,3.565C316.787,255.424,308.084,254.236,308.043,252.519z"/>
		<path style="fill:#787E12;" d="M638.398,158.961c2.372-1.387,14.27,5.134,14.27,6.941s-7.177,2.173-7.177,2.173
			s-3.146,6.875-4.421,6.483S636.026,160.348,638.398,158.961z"/>
		<path style="fill:#354508;" d="M85.198,75.487c0,0,4.64-8.314,5.506-7.669c0.865,0.645-2.147,11.457-2.147,11.457
			s-9.101,0-9.348,0C78.961,79.274,85.198,75.487,85.198,75.487z"/>
		<path style="fill:#AFA829;" d="M537.468,168.018c0,0,4.64-8.314,5.505-7.669c0.865,0.645-2.148,11.457-2.148,11.457
			s-9.101,0-9.349,0C531.23,171.806,537.468,168.018,537.468,168.018z"/>
		<path style="fill:#787E12;" d="M662.099,130.052c0,0,8.916,3.339,8.408,4.292c-0.508,0.952-11.649-0.403-11.649-0.403
			s-1.367-8.998-1.404-9.243C657.417,124.454,662.099,130.052,662.099,130.052z"/>
		<path style="opacity:0.6705;fill:#FAE33F;enable-background:new    ;" d="M178.749,196.447c0.806-4.567,17.877,0.937,42.5,5.281
			c24.625,4.344,47.474,7.92,42.505,10.585c-2.149,1.153-33.177-2.621-42.26-2.666c-8.189-0.041,24.622,6.896,14.237,9.124
			C211.283,224.021,177.943,201.013,178.749,196.447z"/>
		<path style="opacity:0.657;fill:#FAE33F;enable-background:new    ;" d="M176.91,206.583c0.544-1.44,7.071,1.535,12.964,3.762
			c5.893,2.226,15.353,6.988,14.809,8.427c-0.544,1.44-10.886-0.988-16.779-3.214C182.011,213.332,176.366,208.023,176.91,206.583z"
			/>
		<path style="fill:#9C6946;" d="M533.701,235.677c0-2.141,3.607-3.877,8.058-3.877c4.45,0,8.058,1.736,8.058,3.877
			c0,2.142-3.608,3.878-8.058,3.878C537.308,239.555,533.701,237.819,533.701,235.677z"/>
		<path style="fill:#9C6946;" d="M527.87,229.165c0.249-1.05,1.737-1.598,3.326-1.222c1.588,0.375,4.141,1.72,3.893,2.771
			c-0.249,1.051-3.205,1.409-4.793,1.034S527.622,230.216,527.87,229.165z"/>
		<path style="fill:#9C6946;" d="M548.776,232.276c-0.116-0.698,0.551-1.39,1.489-1.546s1.792,0.284,1.908,0.983
			c0.115,0.698-0.551,1.389-1.489,1.546C549.746,233.414,548.892,232.974,548.776,232.276z"/>
		
			<linearGradient id="SVGID_00000134936577276150489980000007873284536375164067_" gradientUnits="userSpaceOnUse" x1="-2648.0374" y1="1935.1527" x2="-2654.446" y2="1942.3225" gradientTransform="matrix(7 0 0 -7 18851.7383 13569.8857)">
			<stop  offset="0" style="stop-color:#959219"/>
			<stop  offset="1" style="stop-color:#62650A"/>
		</linearGradient>
		<path style="fill:url(#SVGID_00000134936577276150489980000007873284536375164067_);" d="M264.496,21.28
			c-21.907-9.549-12.068-51.92-12.068-51.92l54.802-11.914c0,0,30.246,33.753,19.563,49.712
			C316.109,23.116,286.404,30.829,264.496,21.28z"/>
		
			<linearGradient id="SVGID_00000073687268809970619440000005731437613803732381_" gradientUnits="userSpaceOnUse" x1="-2664.6121" y1="1952.7489" x2="-2664.0491" y2="1946.0227" gradientTransform="matrix(7 0 0 -7 18894 13728)">
			<stop  offset="0" style="stop-color:#95931C"/>
			<stop  offset="1" style="stop-color:#DCD323"/>
		</linearGradient>
		<path style="fill:url(#SVGID_00000073687268809970619440000005731437613803732381_);" d="M246.327,46.922
			c2.472,0,18.113,23.347,18.113,27.353c0,4.007-9.403,15.727-15.641,15.727c-6.238,0-27.212-11.411-27.212-15.727
			C221.587,69.96,243.856,46.922,246.327,46.922z"/>
		
			<linearGradient id="SVGID_00000116226427094892165930000001029448150713702069_" gradientUnits="userSpaceOnUse" x1="-2655.3401" y1="1950.3793" x2="-2654.8298" y2="1939.4316" gradientTransform="matrix(7 0 0 -7 18894 13728)">
			<stop  offset="0" style="stop-color:#ABA529"/>
			<stop  offset="1" style="stop-color:#DCD323"/>
		</linearGradient>
		<path style="fill:url(#SVGID_00000116226427094892165930000001029448150713702069_);" d="M256.004,48.727
			c-5.779-23.27,12.779-6.618,33.648-11.636c16.761-4.03,34.486-32.562,52.903-22.098c18.417,10.464,13.083,47.702,7.445,62.397
			c-5.638,14.695-41.792,36.38-55.086,25.595C281.62,92.201,258.201,57.576,256.004,48.727z"/>
		<path style="fill:#354508;" d="M101.071,105.337c0,0,4.765-0.459,5.341,0c0.577,0.458-3.035,1.832-3.035,1.832
			s-1.73,3.307-2.306,2.849C100.494,109.56,101.071,105.337,101.071,105.337z"/>
		<path style="fill:#68A38D;" d="M507.783,135.226l6.011,19.675l19.907-8.166l-23.638,15.191L507.783,135.226z"/>
		<path style="fill:#E5DF4A;" d="M258.625,103.738c0,0,1.398-9.677,2.851-7.937c1.454,1.741,4.582,14.26,2.964,14.899
			c-1.617,0.638-13.838-4.921-15.292-6.662C247.695,102.298,258.625,103.738,258.625,103.738z"/>
		<path style="fill:#B9B320;" d="M220.778,89.778l4.717-6.299v10.459l-12.109-2.304L220.778,89.778z"/>
		<path style="fill:#3A4A0A;" d="M201.033,93.738c-0.464,1.252-6.125,4.817-6.664,4.742c-0.538-0.076-4.349-4.754-4.393-6.047
			c-0.043-1.293-0.467-10.635,0.844-10.903C192.133,81.261,201.498,92.486,201.033,93.738z"/>
		<path style="fill:#3A4A0A;" d="M198.324,140.218c0,0,2.341-5.908,2.652-4.724c0.311,1.184-0.402,9.182-1.406,9.46
			c-1.004,0.278-7.234-1.947-7.234-2.377C192.336,142.15,198.324,140.218,198.324,140.218z"/>
		
			<linearGradient id="SVGID_00000050622917522812125070000008958303589936534439_" gradientUnits="userSpaceOnUse" x1="-2597.2615" y1="2038.3909" x2="-2638.2524" y2="2030.3914" gradientTransform="matrix(7 0 0 -4.1262 18836.8574 8668.6865)">
			<stop  offset="0" style="stop-color:#333904"/>
			<stop  offset="1" style="stop-color:#C7BE14"/>
		</linearGradient>
		<path style="fill:url(#SVGID_00000050622917522812125070000008958303589936534439_);" d="M415.164,260.729
			c78.667-6.395,306.221-18.775,306.221-18.775l10.577,32.493l-463.239,15.618c0,0,49.974-15.975,154.876-23.215
			C430.621,266.365,336.496,267.124,415.164,260.729z"/>
		
			<linearGradient id="SVGID_00000116929282364986800400000001632164595926468245_" gradientUnits="userSpaceOnUse" x1="-2687.2913" y1="1925.7939" x2="-2690.1648" y2="1963.2347" gradientTransform="matrix(7 0 0 -7 18894 13728)">
			<stop  offset="0" style="stop-color:#AF5E05"/>
			<stop  offset="1" style="stop-color:#2C0216"/>
		</linearGradient>
		<path style="fill:url(#SVGID_00000116929282364986800400000001632164595926468245_);" d="M71.333-7.241h13.219
			c0,0-21.806,34.411-28.161,68.757c-2.557,13.819,6.127,36.171,13.44,47.346c0.923,1.41,23.391-23.462,23.391-23.462l7.61-17.517
			l12.186-28.049l-9.71,30.608c0,0,3.143,0.014,8.2-4.146c5.058-4.16,12.029-12.494,12.029-12.494L114.4,66.687l-13.296,10.703
			l-3.428,10.805c0,0-18.23,27.42-17.077,28.087c47.027,27.236,76.28,177.762,76.28,177.762H88.557L65.243,157.918
			c0,0-33.763-47.84-28.386-76.243c0.133-0.703-4.781-10.135-9.297-23.4C27.108,56.948,7.491,43.023,7.491,43.023L-2.535,31.217
			l-1.581-1.83L8.621,41.098c0,0,16.64,9.045,16.351,7.642c-4.299-20.915-5.671-55.09-5.478-55.98
			c0.433-1.99,2.043,26.198,7.946,47.075c4.641,16.415,13.851,26.677,14.236,25.277C51.816,28.226,71.333-7.241,71.333-7.241z"/>
		
			<linearGradient id="SVGID_00000137114794239156672730000011697697466649396403_" gradientUnits="userSpaceOnUse" x1="-2681.9329" y1="1934.3365" x2="-2686.0813" y2="1941.718" gradientTransform="matrix(7 0 0 -7 18894 13728)">
			<stop  offset="0" style="stop-color:#69240B"/>
			<stop  offset="1" style="stop-color:#924823"/>
		</linearGradient>
		<path style="fill:url(#SVGID_00000137114794239156672730000011697697466649396403_);" d="M100.49,136.32
			c0,0,9.981,14.395,17.637,30.831c7.655,16.437,14.504,36.95,14.504,36.95l-5.856,0.448l-11.941-11.18l-24.131-41.24L100.49,136.32
			z"/>
		
			<linearGradient id="SVGID_00000050648089095444504670000013226374366980361355_" gradientUnits="userSpaceOnUse" x1="-2691.5774" y1="1930.963" x2="-2669.6086" y2="1920.0692" gradientTransform="matrix(7 0 0 -7 18894 13728)">
			<stop  offset="0" style="stop-color:#6B2111"/>
			<stop  offset="1" style="stop-color:#A15622"/>
		</linearGradient>
		<path style="fill:url(#SVGID_00000050648089095444504670000013226374366980361355_);" d="M112.983,251.525l-7.825,4.365
			l-13.801,7.699l-21.22-77.102l23.086,16.082L112.983,251.525z"/>
		<path style="opacity:0.3934;fill:#F3822E;enable-background:new    ;" d="M69.83,108.862l12.877,10.044l17.784,17.986
			c0,0-7.268,9.012-7.268,12.09c0,2.387,14.251,28.907,14.251,28.907L45.967,113.1c0,0,12.296,5.589,18.401,4.888
			C70.473,117.287,69.83,108.862,69.83,108.862z"/>
		<path style="opacity:0.3934;fill:#F69043;enable-background:new    ;" d="M88.557,161.925l46.785,54.2l-29.406,17.15
			c0,0,2.315-25.12,0-36.828C103.622,184.738,88.557,161.925,88.557,161.925z"/>
		
			<linearGradient id="SVGID_00000173870087633392946040000008714134980402705839_" gradientUnits="userSpaceOnUse" x1="-2692.3926" y1="1938.9915" x2="-2682.677" y2="1933.7399" gradientTransform="matrix(7 0 0 -7 18894 13728)">
			<stop  offset="0" style="stop-color:#581607"/>
			<stop  offset="1" style="stop-color:#904612"/>
		</linearGradient>
		<path style="fill:url(#SVGID_00000173870087633392946040000008714134980402705839_);" d="M69.773,184.37l-4.53-26.452
			c0,0-14.071-19.938-22.599-41.712c-2.198-5.614,47.474,27.423,67.636,70.237c1.676,3.559,5.094,7.932,8.973,12.262
			c2.432,2.714,5.044,5.41,7.522,7.879c5.207,5.188,9.976,9.542,9.976,9.542s-11.619-8.483-25.376-21.414
			c-4.729-4.445-33.303-53.609-34.995-34.275c-1.761,20.133,18.647,34.969,20.302,38.917c1.423,3.394,5.194,22.868,5.194,22.868
			l-7.608-19.652L69.773,184.37z"/>
		
			<linearGradient id="SVGID_00000098204479997923482290000008766806813401870512_" gradientUnits="userSpaceOnUse" x1="-2690.405" y1="1945.8262" x2="-2685.7922" y2="1944.8427" gradientTransform="matrix(7 0 0 -7 18894 13728)">
			<stop  offset="0" style="stop-color:#3E0717"/>
			<stop  offset="1" style="stop-color:#722813"/>
		</linearGradient>
		<path style="fill:url(#SVGID_00000098204479997923482290000008766806813401870512_);" d="M69.831,108.862
			c0,0,0.188,0.075,0.388-0.018c0.146-0.068,0.543-0.332,0.543-0.332s0.36-0.266,0.568-0.434c0.12-0.097,0.378-0.314,0.378-0.314
			s0.271-0.232,0.415-0.358c0.15-0.132,0.47-0.419,0.47-0.419s0.333-0.304,0.507-0.466c6.453-5.989,20.121-21.12,20.121-21.12
			s1.878,1.109,3.849-0.893c1.971-2.002,4.033-7.117,4.033-7.117l-3.428,10.805c0,0-18.23,27.42-17.077,28.087
			c8.026,4.649,15.534,12.888,22.467,23.356c0.878,1.325,1.746,2.687,2.605,4.08c0.741,1.202,2.201,3.677,2.201,3.677
			s1.075,1.866,1.607,2.818c0.657,1.177,1.955,3.584,1.955,3.584l1.462,2.791c0,0-8.512-14.982-19.675-26.543
			c-10.697-11.078-16.743-11.983-20.379-14.545C69.676,113.27,69.831,108.862,69.831,108.862z"/>
		
			<linearGradient id="SVGID_00000026857751064291336090000017515688415178617254_" gradientUnits="userSpaceOnUse" x1="-2687.9363" y1="1941.8422" x2="-2686.0757" y2="1940.2358" gradientTransform="matrix(7 0 0 -7 18894 13728)">
			<stop  offset="0" style="stop-color:#FFD141"/>
			<stop  offset="1" style="stop-color:#B76230"/>
		</linearGradient>
		
			<path style="opacity:0.6589;fill:url(#SVGID_00000026857751064291336090000017515688415178617254_);enable-background:new    ;" d="
			M66.897,130.973c1.033-5.264,5.956-6.15,11.038-4.161c6.994,2.738,13.625,11.826,13.625,14.944c0,2.963-6.555,5.061-15.178,0.138
			C71.643,139.189,66.349,133.766,66.897,130.973z"/>
		
			<linearGradient id="SVGID_00000105404116291013067170000016119940099022211729_" gradientUnits="userSpaceOnUse" x1="-2697.1914" y1="1947.2345" x2="-2679.8079" y2="1935.1592" gradientTransform="matrix(7 0 0 -7 18894 13728)">
			<stop  offset="0" style="stop-color:#3A0414"/>
			<stop  offset="1" style="stop-color:#6B1E09"/>
		</linearGradient>
		<path style="fill:url(#SVGID_00000105404116291013067170000016119940099022211729_);" d="M71.333-7.241
			c0,0,0.316,1.214-1.124,4.71c-0.142,0.344-0.901,16.111-0.901,16.111l-6.182,23.706l4.476-23.445c0,0-0.623-10.523-0.783-10.129
			c-3.095,7.648-7.387,18.517-11.59,30.027c-0.449,1.231-1.753,18.271-1.753,18.271l2.677,10.752l-4.613-7.169l-1.459-7.216
			c0,0-6.973,22.065-8.403,30.129c-0.041,0.233,0.588,1.536,1.518,3.296c0.261,0.494,8.817,3.334,11.028,8.541
			c3.187,7.507,2.594,10.319,2.169,9.929c-0.662-0.605-1.363-5.358-4.664-9.188c-2.293-2.659-4.288-3.732-5.055-2.971
			c-0.767,0.761,0.458,4.315,2.728,6.028c2.269,1.713,20.482,14.803,20.482,14.803l2.606,6.213l-8.876-8.627l-16.498-7.807
			l-5.046-5.276c0,0,0.617,8.136,4.921,19.91c0.167,0.456,44.57,37.645,44.57,37.645l25.25,42.222l8.354,9.346l7.41,1.368
			c0,0,4.142,12.096,4.178,12.188c0.141,0.354-21.965-21.414-21.965-21.414l-22.877-31.23l-5.05-6.893
			c0,0-35.468-32.57-35.164-31.894c7.002,15.562,18.381,30.996,18.381,30.996l3.172,23.741l22.051,20.828l16.51,50.465
			l-18.586-42.337l-16.841-5.819l12.176,91.476L65.243,157.918c0,0-33.763-47.84-28.386-76.243
			c0.133-0.703,4.436-15.165,4.821-16.564c4.435-16.133,10.664-31.996,16.269-44.738C65.156,3.985,71.333-7.241,71.333-7.241z"/>
		<path style="fill:#300411;" d="M36.856,81.675l-0.315-1.021c0,0-0.415-0.998-0.713-1.679c-0.26-0.596-0.902-2.052-0.902-2.052
			s-0.335-0.764-0.515-1.175c-0.248-0.568-0.51-1.171-0.784-1.808c-1.734-4.034-3.946-9.425-6.069-15.665
			C27.108,56.948,7.491,43.023,7.491,43.023L-2.535,31.217l-1.581-1.83L8.621,41.098c0,0,16.64,9.045,16.351,7.642
			c-2.016-9.808-0.303-5.66,2.56-0.768c5.33,9.108,9.081,12.031,10.782,14.196c0.374,0.477,1.055,1.271,1.055,1.271
			s0.459,0.506,0.666,0.716c0,0,0.641,0.614,0.888,0.796c0.428,0.316,0.755,0.162,0.755,0.162L36.856,81.675z"/>
		<path style="opacity:0.7984;fill:#586A0A;enable-background:new    ;" d="M127.387,189.622
			c18.818,49.497,29.492,104.423,29.492,104.423H88.557L71.8,196.202c0,0,20.08,41.986,32.178,32.528
			c6.59-5.153,2.78-9.66,1.9-15.872c-2.279-16.08,16.888,4.684,20.01-4.788C129.446,197.275,124.162,181.141,127.387,189.622z"/>
		<path style="fill:#4E2F37;" d="M652.667,198.124l57.133-11.682L700,340.25l-122.514-46.137L652.667,198.124z"/>
		<path style="fill:#3F1F26;" d="M652.667,198.124l3.795,1.856l-24.621,36.296l31.858-32.757l7.154,3.498l-24.013,41.903
			l22.106-31.893l-18.212,35.692l6.847,6.678l37.918-40.327l18.87,79.822l-90.847-63.559L652.667,198.124z"/>
		<path style="fill:#A57058;" d="M652.667,198.124l57.133-11.682l-2.45,38.434l-40.122-19.629l-9.537,10.166l6.401-11.701
			L652.667,198.124z"/>
		<path style="fill:#2B161B;" d="M571.801,243.668l63.337-10.392l44.056,49.151H542.913L571.801,243.668z"/>
		<path style="fill:#A46F57;" d="M-29.624,121.704l106.005,29.296l-19.99,47.123c0,0,42.027,9.972,45.355,13.423
			c3.329,3.451,15.063,68.453,15.063,68.453l-159.905,98.727L-29.624,121.704z"/>
		
			<linearGradient id="SVGID_00000026139193930561641780000015815971923935858321_" gradientUnits="userSpaceOnUse" x1="-2705.2996" y1="1923.3052" x2="-2682.4558" y2="1923.3052" gradientTransform="matrix(7 0 0 -7 18894 13728)">
			<stop  offset="0" style="stop-color:#5E2432"/>
			<stop  offset="1" style="stop-color:#593B43"/>
		</linearGradient>
		<path style="fill:url(#SVGID_00000026139193930561641780000015815971923935858321_);" d="M-23.986,180.559l100.367-29.558
			l-19.99,47.123l-75.497,52.601l1.299,15.245l119.554-54.423L116.809,280l-159.905,98.727L-23.986,180.559z"/>
		<path style="fill:#471B26;" d="M-23.986,180.559l33.021,38.62l-4.027-47.154l14.548-4.282l9.459,49.598l9.681-6.931l-0.159-15.7
			l0.302-9.624l-4.137-13.282l2.939-9.46l-0.785,8.819l4.408,8.27l1.538-18.546l4.302-1.267l-1.136,40.637l9.713-43.163
			c0,0,19.179-6.404,20.701-6.096c2.099,0.423-19.99,47.123-19.99,47.123l-27.147,18.914l-12.474,8.691l-35.877,24.996l1.299,15.245
			l87.744-39.943L86.101,280l1.684-62.098c0,0,9.472-7.825,13.961-6.355c4.49,1.469,15.063,68.453,15.063,68.453l-159.905,98.727
			L-23.986,180.559z"/>
		<path style="fill:#A46F57;" d="M-29.624,121.704c0,0,103.287,26.663,106.005,29.296c2.718,2.633-26.084,7.852-26.084,7.852
			l-3.308,7.199l-0.088-6.252l-19.929,5.948l-4.277,18.752l-3.42-16.64l-37.083,10.948L-29.624,121.704z"/>
		
			<linearGradient id="SVGID_00000046325544402371126850000008498294395773908875_" gradientUnits="userSpaceOnUse" x1="-2701.3555" y1="1939.7227" x2="-2694.3901" y2="1938.3387" gradientTransform="matrix(7 0 0 -7 18894 13728)">
			<stop  offset="0" style="stop-color:#A54542"/>
			<stop  offset="1" style="stop-color:#A46F57"/>
		</linearGradient>
		<path style="fill:url(#SVGID_00000046325544402371126850000008498294395773908875_);" d="M-15.522,133.382
			c0,0,36.665,11.186,44.216,13.044c7.551,1.858,19.003,8.849,19.003,8.849l-7.463-2.174c0,0-43.479-8.258-38.692-5.769
			c14.096,7.329,39.178,11.618,39.178,11.618l-26.163,6.908l-28.287,0.985L-15.522,133.382z"/>
		
			<linearGradient id="SVGID_00000024710525352199660670000016313657843731119775_" gradientUnits="userSpaceOnUse" x1="-2691.9709" y1="1929.5227" x2="-2688.7375" y2="1931.5951" gradientTransform="matrix(7 0 0 -7 18894 13728)">
			<stop  offset="0" style="stop-color:#F1B729"/>
			<stop  offset="1" style="stop-color:#A46F57"/>
		</linearGradient>
		
			<path style="opacity:0.7733;fill:url(#SVGID_00000024710525352199660670000016313657843731119775_);enable-background:new    ;" d="
			M48.831,223.564c-3.786-4.135-2.24-11.714,3.454-16.927c5.694-5.214,14.572-4.068,21.41-0.883
			c5.082,2.367,11.208,5.158,5.514,10.373C73.515,221.339,52.617,227.698,48.831,223.564z"/>
		
			<linearGradient id="SVGID_00000036209741417708349720000003552924907655067017_" gradientUnits="userSpaceOnUse" x1="-2684.6904" y1="1926.1818" x2="-2671.5869" y2="1940.9164" gradientTransform="matrix(7 0 0 -7 18894 13728)">
			<stop  offset="0" style="stop-color:#385901"/>
			<stop  offset="1" style="stop-color:#C2D403"/>
		</linearGradient>
		<path style="fill:url(#SVGID_00000036209741417708349720000003552924907655067017_);" d="M0,223.178
			c0,0,8.77,30.669,16.676,37.113c1.171,0.955-0.161-7.747-2.709-16.496c-3.225-11.073-10.532-22.375-9.25-23.98
			c4.274-5.35,20.104-6.957,26.359-6.957c2.13,0,18.103,38.767,20.104,38.892c2.477,0.155-9.054-38.298-6.782-37.969
			c1.554,0.224,3.059,0.486,4.514,0.783c3.566,0.727,16.244,47.938,19.199,49.026c3.229,1.189-3.325-43.716-0.861-42.226
			c3.109,1.88,5.593,3.947,7.417,6.063C81.222,235.039,84.522,280,84.522,280s-1.353-38.683,15.968-52.574
			c1.289-1.034,3.267-2.101,5.753-3.168c0.791-0.34,1.805,10.495,2.565,18.405c0.426,4.435,0.773,7.951,0.955,8.061
			c2.855,1.717,4.303-29.346,6.379-29.976c20.262-6.149,62.843-6.854,67.171-3.688c6.971,5.099,13.034,21.247,12.905,37.855
			c-0.028,3.602-31.057,7.195-31.722,10.732c-0.53,2.825,29.429,5.625,28.431,8.285c-5.858,15.607-29.256,27.179-29.256,27.179
			l-182.777,17.971L0,223.178z"/>
		
			<linearGradient id="SVGID_00000110459355524332411450000005440178928540349631_" gradientUnits="userSpaceOnUse" x1="-2671.8311" y1="1931.5294" x2="-2679.1643" y2="1925.1088" gradientTransform="matrix(7 0 0 -7 18894 13728)">
			<stop  offset="0" style="stop-color:#B8B80D"/>
			<stop  offset="1" style="stop-color:#769002"/>
		</linearGradient>
		
			<path style="opacity:0.7849;fill:url(#SVGID_00000110459355524332411450000005440178928540349631_);enable-background:new    ;" d="
			M116.141,220.749c20.262-6.149,62.843-6.854,67.171-3.688c6.971,5.099,13.034,21.247,12.905,37.855
			c-0.028,3.602-31.057,7.195-31.722,10.732c-0.123,0.657,12.993-8.557,17.725-19.197c2.446-5.499,1.163-21.575-8.709-24.938
			c-14.23-4.848-30.129-3.751-36.759-3.363C123.537,218.924,114.065,221.378,116.141,220.749z"/>
		
			<linearGradient id="SVGID_00000038396216222820707250000007405473123552712865_" gradientUnits="userSpaceOnUse" x1="-2685.6143" y1="1925.1605" x2="-2678.3516" y2="1936.976" gradientTransform="matrix(7 0 0 -7 18894 13728)">
			<stop  offset="0" style="stop-color:#283101"/>
			<stop  offset="1" style="stop-color:#828306"/>
		</linearGradient>
		<path style="fill:url(#SVGID_00000038396216222820707250000007405473123552712865_);" d="M0,223.178
			c0,0-4.116,38.907,8.426,51.946c4.099,4.261,14.005,6.31,22.718,7.316c4.712,0.544-7.674-49.165-7.674-49.165
			s15.622,49.647,20.087,48.929c1.189-0.192-6.694-31.48-6.694-31.48s16.695,31.793,19.529,31.713
			c6.885-0.197,13.995-3.55,15.408-4.422c16.757-10.338,1.69-51.955,2.867-50.589C81.222,235.039,84.522,280,84.522,280
			s-0.623-17.823,4.394-33.618c1.425-4.488-2.234,11.086-0.359,23.223c1.248,8.077,7.255,13.843,10.424,14.041
			c13.493,0.846,59.594-3.492,69.253-7.03c9.659-3.539-11.304-5.832-11.355-10.646c-0.052-4.814,27.135-9.171,32.645-13.308
			c3.258-2.446,4.143-10.811,1.866-20.187c-2.143-8.826-8.874-15.997-8.077-15.414c6.971,5.099,13.034,21.247,12.905,37.855
			c-0.028,3.602-31.057,7.195-31.722,10.732c-0.53,2.825,29.429,5.625,28.431,8.285c-5.858,15.607-29.256,27.179-29.256,27.179
			l-182.777,17.971L0,223.178z"/>
		
			<linearGradient id="SVGID_00000148655935648282609690000015776940663000983979_" gradientUnits="userSpaceOnUse" x1="-2618.5527" y1="1922.1947" x2="-2629.8787" y2="1930.5741" gradientTransform="matrix(7 0 0 -7 18894 13728)">
			<stop  offset="0" style="stop-color:#314304"/>
			<stop  offset="1" style="stop-color:#9BA806"/>
		</linearGradient>
		<path style="fill:url(#SVGID_00000148655935648282609690000015776940663000983979_);" d="M489.676,233.133
			c28.4-5.706,55.797,46.867,55.797,46.867s1.312-42.344,17.516-64.446c4.311-5.879,15.248-0.493,25.75,5.527
			c2.19,1.256-4.312,32.283-2.223,33.497c2.034,1.182,12.662-27.444,14.479-26.482c2.152,1.14-8.792,38.846-6.538,40.125
			c3.31,1.875,19.867-32.609,23.308-30.534c20.253,12.216,41.846,26.883,53.809,32.152C691.917,278.799,709.8,280,709.8,280H438.365
			c0,0,6.545-7.568,11.95-14.03c1.256-1.501,17.299,10.481,18.738,8.831c1.216-1.394-15.225-13.564-13.905-15.016
			c1.252-1.376,2.544-2.768,3.868-4.157c1.374-1.441,17.557,17.97,18.985,16.559c1.619-1.6-11.51-24.014-9.853-25.516
			c0.859-0.779,1.721-1.541,2.584-2.281c1.224-1.05,2.449-2.057,3.668-3.008C479.803,237.166,485.093,234.053,489.676,233.133z"/>
		
			<linearGradient id="SVGID_00000152980469438777664020000000052708417379418766_" gradientUnits="userSpaceOnUse" x1="-2632.6816" y1="1927.7981" x2="-2627.7537" y2="1923.2612" gradientTransform="matrix(7 0 0 -7 18894 13728)">
			<stop  offset="0" style="stop-color:#ADAD06"/>
			<stop  offset="1" style="stop-color:#98A51D"/>
		</linearGradient>
		<path style="fill:url(#SVGID_00000152980469438777664020000000052708417379418766_);" d="M489.676,233.133
			c28.4-5.706,55.797,46.867,55.797,46.867s-27.113-47.776-54.055-40.445c-3.592,0.977-10.412,4.022-11.612,8.953
			c-1.996,8.204,1.312,25.872,0,26.328c-0.648,0.225-13.308-9.978-13.211-7.917c0.058,1.245,1.906,4.355,2.556,6.403
			c0.794,2.504-0.482,1.918-0.099,1.478c1.216-1.394-15.225-13.564-13.905-15.016c1.252-1.376,2.544-2.768,3.868-4.157
			c1.374-1.441,17.557,17.97,18.985,16.559c1.619-1.6-11.51-24.014-9.853-25.516c0.859-0.779,1.721-1.541,2.584-2.281
			c1.224-1.05,2.449-2.057,3.668-3.008C479.803,237.166,485.093,234.053,489.676,233.133z"/>
		
			<linearGradient id="SVGID_00000090257630431773861870000013567742339191013053_" gradientUnits="userSpaceOnUse" x1="-2618.6243" y1="1923.588" x2="-2625.8125" y2="1935.3583" gradientTransform="matrix(7 0 0 -7 18894 13728)">
			<stop  offset="0" style="stop-color:#212902"/>
			<stop  offset="1" style="stop-color:#B3C212"/>
		</linearGradient>
		<path style="fill:url(#SVGID_00000090257630431773861870000013567742339191013053_);" d="M512.988,239.807
			C531.409,253.012,545.473,280,545.473,280s1.312-42.344,17.516-64.446c2.28-3.109-21.328,46.597-4.225,62.252
			c4.645,4.252,11.915,4.138,15.319,0.954c3.403-3.183,18.602-30.143,18.602-30.143s-10.342,31.378-7.621,31.671
			c2.01,0.216,4.08,0.395,6.19,0.526c1.278,0.079,19.172-20.565,19.172-20.565s-12.734,20.814-11.442,20.817
			c11.535,0.022,23.505-1.604,32.857-6.289c19.566-9.801,13.552-19.892,15.359-18.768c9.66,6.007,18.269,11.141,24.373,13.829
			C691.917,278.799,709.8,280,709.8,280H514.557h-1.847h-74.346c0,0,6.545-7.568,11.95-14.03c0.183-0.219-5.508,8.301-3.991,10.769
			c2.005,3.261,40.139,6.754,51.508,5.381c0.371-0.045,0.858-2.486,0.595-8.564c-0.207-4.766-4.41-15.734-4.41-15.734
			s4.68,6.741,6.326,12.495c1.8,6.289,0.605,11.637,1.283,11.597c0.384-0.023,1.403-7.986-1.283-19.756
			c-2.685-11.771-8.588-20.584-8.588-20.584s6.679,6.14,11.086,16.402c4.304,10.024,7.58,23.246,8.016,23.199
			c3.921-0.421,7.948-1.029,11.404-1.946c4.229-1.121,7.603-2.706,8.879-4.978C536.731,264.297,510.913,238.319,512.988,239.807z"/>
		
			<linearGradient id="SVGID_00000174561882244991116470000013565023673496328843_" gradientUnits="userSpaceOnUse" x1="-2602.4758" y1="1931.4857" x2="-2603.3616" y2="1950.4393" gradientTransform="matrix(7 0 0 -7 18894 13728)">
			<stop  offset="0" style="stop-color:#5A2904"/>
			<stop  offset="1" style="stop-color:#2D0216"/>
		</linearGradient>
		<path style="fill:url(#SVGID_00000174561882244991116470000013565023673496328843_);" d="M700-7.241l9.8-0.1l8.008,137.861
			l19.866,188.562l-102.536-12.586l44.056-101.947l4.994-100.642l-31.52-50.106l-20.826-5.075l-19.144-16.085l20.021,11.074
			l18.421,4.689l-38.865-65.488l76.164,105.779l7.197-59.717l1.595-13.229L700-7.241z"/>
		
			<linearGradient id="SVGID_00000016054404051555581210000011771474924847169966_" gradientUnits="userSpaceOnUse" x1="-2608.4089" y1="1929.5131" x2="-2600.1599" y2="1929.5131" gradientTransform="matrix(7 0 0 -7 18894 13728)">
			<stop  offset="0" style="stop-color:#9F4C0E"/>
			<stop  offset="1" style="stop-color:#7E3A07"/>
		</linearGradient>
		<path style="fill:url(#SVGID_00000016054404051555581210000011771474924847169966_);" d="M691.321,136.32l1.56,45.184
			l-10.516,69.221l-34.278,31.242l-12.948,24.53l44.056-101.947l1.921-38.71L691.321,136.32z"/>
		<path style="fill:#27040C;" d="M700-7.241l9.8-0.1l8.008,137.861l19.866,188.562l-49.204-29.018l11.53-96.11v-6.709
			l-15.756,69.483l-36.159,24.833l31.108-31.347l11.926-66.564c0,0-1.757-12.157-1.432-25.734c0.324-13.578,2.73-28.575,2.73-28.575
			s0.185,29.889,1.464,34.516c1.28,4.627,2.856-10.279,3.248-20.506c0.392-10.226-0.504-20.855-1.679-20.399
			c-1.175,0.455-3.33,13.367-3.33,13.367l-11.014,29.497l9.062-30.591l3.812-28.244L700-7.241z"/>
		
			<linearGradient id="SVGID_00000023999988006240022730000001349169593903469740_" gradientUnits="userSpaceOnUse" x1="-2597.1838" y1="1946.6221" x2="-2611.314" y2="1951.2588" gradientTransform="matrix(7 0 0 -7 18894 13728)">
			<stop  offset="0" style="stop-color:#180202"/>
			<stop  offset="1" style="stop-color:#4C0923"/>
		</linearGradient>
		<path style="fill:url(#SVGID_00000023999988006240022730000001349169593903469740_);" d="M683.269,122.597l0.794-18.558
			l-31.396-50.236l-20.826-5.075l22.106,2.365c0,0,10.478,15.908,21.027,26.298c2.333,2.299,8.03,3.738,8.03,3.738l5.433,7.568
			c0,0,1.478,9.113,0.193,18.063C687.553,114.272,683.269,122.597,683.269,122.597z"/>
		<path style="fill:#1E3101;" d="M565.909-13.886C575.87-59.852,613.346-30.9,657.581-30.9c44.232,0,80.093,18.961,80.093,42.351
			c0,20.253-33.537,52.03-64.986,42.351c-13.224-4.07,5.277-33.59,0-30.881c-15.444,7.928-41.743,21.75-63.367,16.913
			c-3.168-0.709-15.84,8.9-18.805,3.882c-0.898-1.52,1.046-10.427-2.692-12.901C570.878,19.6,562.562,1.563,565.909-13.886z"/>
		<path style="opacity:0.6492;fill:#65760E;enable-background:new    ;" d="M116.809,187.352c0-3.884,1.506-7.034,3.364-7.034
			c1.858,0,3.363,3.149,3.363,7.034c0,3.885,2.844,9.095,0.987,9.095C122.666,196.447,116.809,191.237,116.809,187.352z"/>
		<path style="opacity:0.4942;fill:#65760E;enable-background:new    ;" d="M62.139,118.923c-2.806-2.651-1.613-4.355-0.659-4.589
			c1.965-0.482,2.517,1.955,2.517,3.882c0,1.926-0.797,3.488-1.779,3.488C61.235,121.704,63.539,120.246,62.139,118.923z"/>
		<path style="opacity:0.4167;fill:#65760E;enable-background:new    ;" d="M113.013,163.265c0.23-1.382,0.722-2.452,1.1-2.389
			c0.377,0.062,1.399,1.236,1.169,2.618c-0.23,1.383-1.921,3.41-2.299,3.348C112.605,166.779,112.783,164.648,113.013,163.265z"/>
		<path style="opacity:0.6957;fill:#65760E;enable-background:new    ;" d="M72.238,178.173c-1.361-1.303-2.025-2.818-1.483-3.385
			c0.542-0.567,2.086,0.029,3.447,1.333c1.362,1.303,3.06,1.202,2.517,1.769C76.177,178.457,73.599,179.477,72.238,178.173z"/>
		<path style="opacity:0.657;fill:#65760E;enable-background:new    ;" d="M78.145,177.976c0.251-1.235,1.346-2.056,2.447-1.832
			c1.1,0.223,1.788,1.406,1.538,2.642c-0.251,1.236-1.89,2.921-2.99,2.698S77.894,179.211,78.145,177.976z"/>
		<path style="opacity:0.6919;fill:#65760E;enable-background:new    ;" d="M100.49,193.378c0-1.695,0.563-3.07,1.257-3.07
			c0.694,0,1.257,1.374,1.257,3.07c0,1.695-0.385,4.222-1.079,4.222C101.231,197.6,100.49,195.073,100.49,193.378z"/>
		<path style="opacity:0.6143;fill:#65760E;enable-background:new    ;" d="M106.455,196.389c0.214-0.411,1.159-0.343,2.112,0.153
			c0.953,0.495,1.553,1.229,1.34,1.64s-1.159,0.343-2.112-0.152C106.842,197.535,106.242,196.8,106.455,196.389z"/>
		<path style="opacity:0.688;fill:#FFBA41;enable-background:new    ;" d="M67.219,118.921c0.428-1.545,3.689-1.989,7.284-0.993
			c3.594,0.996,8.023,4.498,7.594,6.043c-0.428,1.545-5.551,0.547-9.145-0.449C69.357,122.526,66.79,120.466,67.219,118.921z"/>
		<path style="opacity:0.6589;fill:#FFBA41;enable-background:new    ;" d="M92.145,138.645c-0.755-1.456-0.769-2.947-0.031-3.329
			s1.947,0.489,2.702,1.945c0.755,1.457,0.746,4.01,0.008,4.393C94.086,142.036,92.899,140.102,92.145,138.645z"/>
		<path style="opacity:0.6589;fill:#D09B24;enable-background:new    ;" d="M44.333,75.63c1-0.65,2.195,1.035,3.432,2.546
			c1.237,1.511,2.182,3.904,1.267,4.654c-0.915,0.75-3.344-0.429-4.581-1.94C43.214,79.379,43.342,76.275,44.333,75.63z"/>
		<path style="opacity:0.4922;fill:#E9AA26;enable-background:new    ;" d="M87.235,170.306c1.802-1.321,5.11,0.128,7.39,3.236
			c2.28,3.109,5.647,9.382,3.845,10.704c-1.802,1.322-8.09-2.811-10.37-5.919C85.821,175.218,85.434,171.627,87.235,170.306z"/>
		
			<linearGradient id="SVGID_00000139989216956329633200000000168873733811136950_" gradientUnits="userSpaceOnUse" x1="-2695.6929" y1="1940.0671" x2="-2690.1482" y2="1940.0671" gradientTransform="matrix(7 0 0 -7 18894 13728)">
			<stop  offset="0" style="stop-color:#F1B729"/>
			<stop  offset="1" style="stop-color:#A46F57"/>
		</linearGradient>
		
			<path style="opacity:0.7733;fill:url(#SVGID_00000139989216956329633200000000168873733811136950_);enable-background:new    ;" d="
			M24.243,141.171c1.77-2.673,8.439-0.192,16.47,1.702c8.031,1.893,22.968,5.253,22.223,8.41
			c-0.745,3.158-16.085,4.883-24.116,2.989C30.788,152.379,23.226,142.707,24.243,141.171z"/>
		
			<linearGradient id="SVGID_00000165202312781522087410000016926954807783416960_" gradientUnits="userSpaceOnUse" x1="-2695.4673" y1="1939.1635" x2="-2693.1943" y2="1938.5006" gradientTransform="matrix(7 0 0 -7 18894 13728)">
			<stop  offset="0" style="stop-color:#F1B729"/>
			<stop  offset="1" style="stop-color:#A46F57"/>
		</linearGradient>
		
			<path style="opacity:0.7733;fill:url(#SVGID_00000165202312781522087410000016926954807783416960_);enable-background:new    ;" d="
			M25.428,153.903c-0.136-2.635,3.513-1.745,6.017-0.785c2.505,0.96,5.795,2.482,5.382,3.56c-0.413,1.079-4.619,1.141-7.217,0.724
			C26.582,156.915,25.49,155.105,25.428,153.903z"/>
		<path style="opacity:0.7345;fill:#65760E;enable-background:new    ;" d="M98.988,152.042c0.154-1.212,0.89-2.118,1.644-2.022
			c0.754,0.095,1.24,1.156,1.086,2.369c-0.153,1.212-0.889,2.118-1.643,2.022C99.321,154.316,98.835,153.255,98.988,152.042z"/>
		<path style="opacity:0.7345;fill:#65760E;enable-background:new    ;" d="M100.217,160.532c0-0.769,0.624-1.393,1.393-1.393
			c0.77,0,1.394,0.624,1.394,1.393c0,0.77-0.624,1.394-1.394,1.394C100.841,161.925,100.217,161.302,100.217,160.532z"/>
		<path style="opacity:0.7345;fill:#65760E;enable-background:new    ;" d="M80.788,196.741c-1.205-0.961-1.68-2.37-1.061-3.147
			c0.619-0.777,2.099-0.629,3.304,0.333c1.205,0.961,1.68,2.369,1.061,3.147C83.473,197.85,81.994,197.701,80.788,196.741z"/>
		
			<linearGradient id="SVGID_00000159434964538903144730000002757943796175124106_" gradientUnits="userSpaceOnUse" x1="-2683.385" y1="1921.7885" x2="-2677.0396" y2="1928.3435" gradientTransform="matrix(7 0 0 -7 18894 13728)">
			<stop  offset="0" style="stop-color:#283101"/>
			<stop  offset="1" style="stop-color:#6B8702"/>
		</linearGradient>
		<path style="fill:url(#SVGID_00000159434964538903144730000002757943796175124106_);" d="M126.776,256.729l16.498-27.047
			l-9.855,22.371l33.13-23.323l-28.049,27.544l-7.202,7.072l-15.982,18.7l-12.312,8.018L126.776,256.729z"/>
		<path style="fill:#57600A;" d="M8.568,41.046c0,0,2.801,0.726,5.354,2.061c2.553,1.336,4.859,3.281,4.859,3.281
			s0.673,24.691,0,29.098c-0.673,4.406-1.9-18.577-4.022-11.472c-2.122,7.105-2.895,41.323-4.465,39.893
			C8.724,102.479,8.568,41.046,8.568,41.046z"/>
		
			<linearGradient id="SVGID_00000087404886577112704150000017553754878394182548_" gradientUnits="userSpaceOnUse" x1="-2696.574" y1="1953.3142" x2="-2697.8525" y2="1952.5432" gradientTransform="matrix(7 0 0 -7 18894 13728)">
			<stop  offset="0" style="stop-color:#84911A"/>
			<stop  offset="1" style="stop-color:#57600A"/>
		</linearGradient>
		<path style="fill:url(#SVGID_00000087404886577112704150000017553754878394182548_);" d="M11.596,42.056
			c0.74,0.291,1.544,0.643,2.326,1.051c2.553,1.336,4.859,3.281,4.859,3.281L18.2,71.348c0,0-0.438-6.979-0.992-8.903
			c-0.937-3.25-3.075-6.312-4.772-1.869c-0.913,2.39-1.778,9.216-2.027,6.876C10.16,65.111,9.917,41.396,11.596,42.056z"/>
		<path style="fill:#454C08;" d="M11.906,66.3c1.448-10.511,5.115-4.862,5.647-1.189c0.206,1.421,0.671,7.555,0.671,1.981
			c0-5.574,0.556-20.703,0.556-20.703s0.673,24.691,0,29.098c-0.673,4.406-1.9-18.577-4.022-11.472
			c-2.122,7.105-2.895,41.323-4.465,39.893c-0.787-0.717-1.106-14.983-1.106-14.983s1.288,6.444,1.464,3.583
			C11.149,84.434,11.44,69.685,11.906,66.3z"/>
		<path style="fill:#142001;" d="M629.67,41.994c0.683-0.948,4.624,1.184,9.228,2.587c4.604,1.403,7.943-0.12,9.188,2.873
			c1.245,2.993,2.635,80.662,0,87.772c-2.635,7.109-0.036-76.239-8.488-77.739c-4.46-0.791-5.317,15.012-7.756,15.012
			C629.403,72.499,628.987,42.942,629.67,41.994z"/>
		
			<linearGradient id="SVGID_00000088116152330133160190000008539177593110273215_" gradientUnits="userSpaceOnUse" x1="-2696.5598" y1="1953.9264" x2="-2697.0559" y2="1953.5774" gradientTransform="matrix(7 0 0 -7 18894 13728)">
			<stop  offset="0" style="stop-color:#B0C02F"/>
			<stop  offset="1" style="stop-color:#808D18"/>
		</linearGradient>
		<path style="fill:url(#SVGID_00000088116152330133160190000008539177593110273215_);" d="M14.989,47.346
			c0-2.846,2.225-1.181,2.896-0.358c0.672,0.823,0.345,2.918,0.345,5.764s-0.524,4.735-0.882,4.735
			C16.99,57.487,14.989,50.192,14.989,47.346z"/>
		<path style="fill:#1E3101;" d="M571.801,46.389c2.281-2.672-1.839,22.528-1.839,22.528s15.709,2.431,15.709,3.582
			s-30.612,12.366-31.04,10.979C554.204,82.092,569.519,49.061,571.801,46.389z"/>
		
			<linearGradient id="SVGID_00000146495955040748076340000003862883982144469398_" gradientUnits="userSpaceOnUse" x1="-2662.4917" y1="1927.132" x2="-2666.3491" y2="1928.6132" gradientTransform="matrix(7 0 0 -7 18899.3711 13721.5713)">
			<stop  offset="0" style="stop-color:#898D0C"/>
			<stop  offset="1" style="stop-color:#B9BE12"/>
		</linearGradient>
		<path style="fill:url(#SVGID_00000146495955040748076340000003862883982144469398_);" d="M241.687,227.079
			c0.14-1.676,6.903-2.48,15.107-1.797c8.203,0.683,14.741,2.595,14.601,4.271s-6.113,6.763-14.317,6.08
			C248.874,234.949,241.548,228.754,241.687,227.079z"/>
		
			<linearGradient id="SVGID_00000174572587333855970330000012605219822519600027_" gradientUnits="userSpaceOnUse" x1="-2661.969" y1="1931.5374" x2="-2662.2908" y2="1927.7384" gradientTransform="matrix(7 0 0 -7 18894 13728)">
			<stop  offset="0" style="stop-color:#C66C25"/>
			<stop  offset="1" style="stop-color:#8B8E0D"/>
		</linearGradient>
		<path style="fill:url(#SVGID_00000174572587333855970330000012605219822519600027_);" d="M258.649,162.903
			c1.155-1.188,6.203-1.406,7.381,0.185c1.177,1.591-0.07,64.696-1.137,66.324c-0.646,0.986-3.564,3.566-6.641,3.289
			c-3.077-0.277-5.821-1.714-6.408-2.572C251.257,229.269,257.493,164.091,258.649,162.903z"/>
		<path style="fill:#994C10;" d="M258.649,162.903c0.448-0.461,1.483-0.776,2.65-0.895c0.427-0.044-0.389,7.053-0.987,13.476
			l2.858,1.561l2.717,3.104l-3.322-2.303l-2.276-0.059c-0.428,4.626-0.896,9.876-1.263,15.186c-0.121,1.756,7.264,0.982,7.264,0.982
			s-7.732,4.901-7.785,6.305c-0.257,6.861-0.104,13.53,0.069,19.02c0.012,0.379,2.58-2.638,2.58-2.638s2.978-13.643,3.001-12.969
			c0.021,0.626-1.944,13.402-1.944,13.402s-3.447,8.074-3.436,8.474c0.124,4.459,0.094,7.208-0.524,7.152
			c-3.077-0.277-5.821-1.714-6.408-2.572C251.257,229.269,257.493,164.091,258.649,162.903z"/>
		
			<linearGradient id="SVGID_00000065752815745744636580000016220158448163533723_" gradientUnits="userSpaceOnUse" x1="-2658.9453" y1="1936.5692" x2="-2661.0347" y2="1933.9976" gradientTransform="matrix(7 0 0 -7 18894 13728)">
			<stop  offset="0" style="stop-color:#FAA440"/>
			<stop  offset="1" style="stop-color:#C66C25"/>
		</linearGradient>
		<path style="fill:url(#SVGID_00000065752815745744636580000016220158448163533723_);" d="M258.649,162.903
			c1.155-1.188,6.203-1.406,7.381,0.185c1.177,1.591-0.07,64.696-1.137,66.324c-0.462,0.705,1.583-40.811,0-60.509
			C264.261,161.049,258.319,163.241,258.649,162.903z"/>
		<path style="fill:#994C10;" d="M230.183,189.543l1.651-1.399l47.381-13.57l15.023,4.939v1.346l-13.325,10.223L236.4,205.567
			L230.183,189.543z"/>
		
			<linearGradient id="SVGID_00000022535203220316133330000016972685982527820453_" gradientUnits="userSpaceOnUse" x1="-2661.2561" y1="1934.4746" x2="-2653.1868" y2="1936.7708" gradientTransform="matrix(7 0 0 -7 18894 13728)">
			<stop  offset="0" style="stop-color:#B4601E"/>
			<stop  offset="1" style="stop-color:#F38936"/>
		</linearGradient>
		<path style="fill:url(#SVGID_00000022535203220316133330000016972685982527820453_);" d="M231.834,188.095l47.38-13.521
			l15.024,4.927l-12.982,9.984l-37.417,11.29l5.513-4.327l-9.126,5.417l-2.335,0.705l-4.495-10.828l23.558-10.034l-24.296,8.36
			L231.834,188.095z"/>
		
			<linearGradient id="SVGID_00000158741922888523078950000015533028989080223929_" gradientUnits="userSpaceOnUse" x1="-2657.1086" y1="1935.8689" x2="-2660.5596" y2="1934.7251" gradientTransform="matrix(7 0 0 -7 18894 13728)">
			<stop  offset="0" style="stop-color:#FFAA43"/>
			<stop  offset="1" style="stop-color:#CC7027"/>
		</linearGradient>
		<path style="fill:url(#SVGID_00000158741922888523078950000015533028989080223929_);" d="M279.214,174.574l15.024,4.927
			l-12.982,9.984l8.396-9.336l-10.809-4.009l-19.795,4.179L279.214,174.574z"/>
		
			<linearGradient id="SVGID_00000105391126207807436810000001519409670907351454_" gradientUnits="userSpaceOnUse" x1="-2665.0769" y1="1933.6052" x2="-2663.9275" y2="1933.6052" gradientTransform="matrix(7 0 0 -7 18894 13728)">
			<stop  offset="0" style="stop-color:#994C10"/>
			<stop  offset="0.9625" style="stop-color:#994C10"/>
			<stop  offset="1" style="stop-color:#994C10"/>
		</linearGradient>
		<path style="fill:url(#SVGID_00000105391126207807436810000001519409670907351454_);" d="M238.461,190.863l6.969-2.497
			l1.077,1.653l-6.203,1.079l1.056,1.697l2.761-0.403l-1.859,1.541l1.947,3.227l-2.428-0.376l-1.271-2.267l-1.98,0.111l1.317-1.294
			L238.461,190.863z"/>
		<path style="fill:#994C10;" d="M245.713,190.998l5.944-3.086l1.334,6.481l-4.818,1.177L245.713,190.998z"/>
		<path style="fill:#B4601E;" d="M247.173,191.469l3.552-1.844l0.797,3.874l-2.88,0.703L247.173,191.469z"/>
		<path style="fill:#994C10;" d="M251.929,185.814l6.728-1.461l0.713,3.845l-3.317,1.08l5.1,3.184l-2.126,0.519l-3.803-2.494
			l0.434,3.316l-1.196,0.291L251.929,185.814z"/>
		<path style="fill:#B4601E;" d="M253.71,186.176l4.12-0.885l-0.681,2.86l-2.563,0.449L253.71,186.176z"/>
		<path style="fill:#994C10;" d="M261.004,184.31l1.921,0.309l-1.472,4.04l2.132-2.137l1.276,0.769l-2.528,2.631l3.739-0.874
			l0.874,1.222l-5.067,1.707l-2.485-2.513L261.004,184.31z"/>
		<path style="fill:#994C10;" d="M264.155,184.006l3.809-3.069l3.097-0.351l-3.534,3.604l4.749,2.171l0.021,1.17l-4.161,2.717
			l-2.072-1.674l3.295-1.871L264.155,184.006z"/>
		<path style="fill:#994C10;" d="M270.019,182.854l7.718-4.715l-0.63,1.931l-1.74,1.368l0.729,6.024l-2.514,0.047l0.339-5.505
			l-3.28,1.883L270.019,182.854z"/>
		<defs>
			
				<filter id="Adobe_OpacityMaskFilter_00000000926107390554739870000005508911290131285425_" filterUnits="userSpaceOnUse" x="306.191" y="6.859" width="272.986" height="272.986">
				<feFlood  style="flood-color:white;flood-opacity:1" result="back"/>
				<feBlend  in="SourceGraphic" in2="back" mode="normal"/>
			</filter>
		</defs>
		
			<mask maskUnits="userSpaceOnUse" x="306.191" y="6.859" width="272.986" height="272.986" id="SVGID_00000116917699233888962700000001788397568455102395_">
			<g style="filter:url(#Adobe_OpacityMaskFilter_00000000926107390554739870000005508911290131285425_);">
				<defs>
					
						<filter id="Adobe_OpacityMaskFilter_00000057145643840316599200000000590774410670191009_" filterUnits="userSpaceOnUse" x="306.191" y="6.859" width="272.986" height="272.986">
						<feFlood  style="flood-color:white;flood-opacity:1" result="back"/>
						<feBlend  in="SourceGraphic" in2="back" mode="normal"/>
					</filter>
				</defs>
				
					<mask maskUnits="userSpaceOnUse" x="306.191" y="6.859" width="272.986" height="272.986" id="SVGID_00000116917699233888962700000001788397568455102395_">
					<g style="filter:url(#Adobe_OpacityMaskFilter_00000057145643840316599200000000590774410670191009_);">
					</g>
				</mask>
				
					<radialGradient id="SVGID_00000168838709742902516720000017102644415650436510_" cx="-2588.4038" cy="1941.2441" r="11.5693" gradientTransform="matrix(11.7979 0 0 -11.7979 30980.4141 23045.957)" gradientUnits="userSpaceOnUse">
					<stop  offset="0" style="stop-color:#FFFFFF"/>
					<stop  offset="1" style="stop-color:#000000"/>
				</radialGradient>
				
					<path style="mask:url(#SVGID_00000116917699233888962700000001788397568455102395_);fill:url(#SVGID_00000168838709742902516720000017102644415650436510_);" d="
					M306.191,143.352c0-75.383,61.11-136.493,136.493-136.493s136.493,61.11,136.493,136.493
					c0,75.383-61.11,136.493-136.493,136.493S306.191,218.735,306.191,143.352z"/>
			</g>
		</mask>
		
			<radialGradient id="SVGID_00000022548775395970829670000017162322714931242155_" cx="-2588.4038" cy="1941.2441" r="11.5693" gradientTransform="matrix(11.7979 0 0 -11.7979 30980.4141 23045.957)" gradientUnits="userSpaceOnUse">
			<stop  offset="0" style="stop-color:#FAC42B"/>
			<stop  offset="1" style="stop-color:#9C4D4D"/>
		</radialGradient>
		
			<path style="opacity:0.3934;fill:url(#SVGID_00000022548775395970829670000017162322714931242155_);enable-background:new    ;" d="
			M306.191,143.352c0-75.383,61.11-136.493,136.493-136.493s136.493,61.11,136.493,136.493c0,75.383-61.11,136.493-136.493,136.493
			S306.191,218.735,306.191,143.352z"/>
	</g>
</g>
</svg>
