<svg xmlns="http://www.w3.org/2000/svg" xmlns:xlink="http://www.w3.org/1999/xlink" width="512" zoomAndPan="magnify" viewBox="0 0 384 383.999986" height="512" preserveAspectRatio="xMidYMid meet" version="1.0"><defs><clipPath id="5eeb966034"><path d="M 76.800781 0 L 307.199219 0 C 349.617188 0 384 34.382812 384 76.800781 L 384 307.199219 C 384 349.617188 349.617188 384 307.199219 384 L 76.800781 384 C 34.382812 384 0 349.617188 0 307.199219 L 0 76.800781 C 0 34.382812 34.382812 0 76.800781 0 Z M 76.800781 0 " clip-rule="nonzero"/></clipPath><clipPath id="9446494ce6"><path d="M 38.398438 136 L 344 136 L 344 334 L 38.398438 334 Z M 38.398438 136 " clip-rule="nonzero"/></clipPath><clipPath id="a4da2d4123"><path d="M 38.398438 39 L 345.898438 39 L 345.898438 336 L 38.398438 336 Z M 38.398438 39 " clip-rule="nonzero"/></clipPath></defs><rect x="-38.4" width="460.8" fill="#ffffff" y="-38.399999" height="460.799983" fill-opacity="1"/><rect x="-38.4" width="460.8" fill="#ffffff" y="-38.399999" height="460.799983" fill-opacity="1"/><g clip-path="url(#5eeb966034)"><rect x="-38.4" width="460.8" fill="#ffbd59" y="-38.399999" height="460.799983" fill-opacity="1"/></g><g clip-path="url(#9446494ce6)"><path fill="#08bfad" d="M 343.292969 245.304688 C 343.292969 247.03125 343.292969 248.753906 342.71875 251.058594 C 342.144531 258.535156 339.265625 265.4375 335.242188 272.917969 C 335.242188 273.492188 334.664062 273.492188 334.664062 274.066406 C 334.089844 274.644531 334.089844 275.21875 333.515625 275.792969 C 327.1875 285.574219 318.558594 294.203125 309.351562 300.53125 C 309.351562 300.53125 308.777344 301.105469 308.777344 301.105469 C 307.628906 301.679688 307.050781 302.257812 305.902344 302.832031 C 303.601562 304.558594 301.300781 305.707031 298.421875 307.433594 C 279.4375 318.363281 256.429688 325.84375 232.265625 329.867188 C 228.238281 330.445312 225.9375 331.019531 225.9375 331.019531 C 225.363281 331.019531 224.789062 331.019531 224.214844 331.019531 C 208.105469 333.320312 191.996094 333.894531 175.316406 332.746094 C 129.867188 331.59375 107.433594 321.238281 87.875 310.308594 C 86.148438 309.734375 84.996094 308.582031 83.269531 308.007812 C 81.546875 306.859375 79.246094 305.707031 77.519531 304.558594 C 77.519531 304.558594 76.941406 304.558594 76.941406 303.980469 C 48.179688 287.875 38.976562 260.261719 38.976562 250.480469 C 38.976562 249.332031 38.976562 248.179688 38.976562 247.03125 L 38.976562 224.59375 C 38.976562 221.71875 38.976562 218.265625 39.550781 215.390625 C 43.003906 195.832031 57.382812 176.847656 83.269531 161.890625 C 90.75 157.289062 98.226562 149.234375 107.433594 150.382812 C 201.203125 119.320312 273.6875 150.382812 273.6875 150.382812 C 282.316406 153.835938 290.371094 157.289062 297.847656 161.890625 C 327.761719 179.148438 342.144531 202.160156 342.144531 224.59375 L 342.144531 245.304688 Z M 343.292969 245.304688 " fill-opacity="1" fill-rule="nonzero"/></g><path fill="#ffffff" d="M 273.6875 164.191406 C 274.835938 163.617188 275.410156 163.039062 275.410156 161.890625 L 275.410156 46.261719 C 275.410156 42.808594 271.386719 40.507812 267.933594 42.808594 L 197.175781 98.609375 L 197.175781 71.570312 C 197.175781 70.996094 196.601562 69.847656 195.449219 69.269531 C 193.148438 68.121094 189.695312 68.121094 187.972656 69.269531 C 186.820312 69.847656 186.246094 70.421875 186.246094 71.570312 L 186.246094 98.609375 L 116.0625 42.234375 C 113.183594 39.933594 108.582031 42.234375 108.582031 45.683594 L 108.582031 161.890625 C 108.582031 162.464844 109.160156 163.617188 110.308594 164.191406 C 111.460938 164.765625 113.761719 165.339844 115.488281 164.765625 L 116.0625 164.191406 C 111.460938 169.941406 109.160156 177.421875 109.160156 184.902344 L 109.160156 285.574219 C 109.160156 286.148438 109.734375 287.300781 110.882812 287.875 C 113.183594 289.023438 116.636719 289.023438 118.363281 287.875 C 119.511719 287.300781 120.089844 286.722656 120.089844 285.574219 L 120.089844 192.378906 C 120.089844 182.023438 124.691406 172.246094 132.746094 165.917969 L 186.820312 122.769531 L 186.820312 201.582031 C 181.644531 202.160156 176.464844 203.882812 171.863281 206.183594 C 166.109375 209.636719 163.808594 213.664062 163.808594 217.691406 L 163.808594 226.894531 C 163.808594 230.921875 166.6875 235.523438 171.863281 238.402344 C 182.792969 244.730469 201.203125 244.730469 212.132812 238.402344 C 217.886719 234.949219 220.1875 230.921875 220.1875 226.894531 L 220.1875 217.117188 C 220.1875 213.089844 217.308594 209.0625 212.132812 205.609375 C 208.105469 203.308594 202.929688 201.582031 197.175781 201.007812 L 197.175781 123.347656 L 251.25 166.492188 C 259.304688 172.820312 263.90625 182.597656 263.90625 192.953125 L 263.90625 286.148438 C 263.90625 286.722656 264.480469 287.875 265.632812 288.449219 C 267.933594 289.601562 271.386719 289.601562 273.109375 288.449219 C 274.261719 287.875 274.835938 287.300781 274.835938 286.148438 L 274.835938 184.902344 C 274.835938 177.421875 272.535156 170.519531 267.933594 164.765625 C 270.234375 165.339844 271.960938 165.339844 273.6875 164.191406 Z M 121.8125 159.011719 C 121.238281 159.589844 120.089844 160.164062 119.511719 161.3125 L 119.511719 66.394531 C 119.511719 64.09375 121.8125 62.941406 123.539062 64.667969 L 182.21875 110.691406 Z M 262.179688 159.011719 L 201.777344 110.691406 L 260.453125 64.09375 C 262.179688 62.941406 264.480469 64.09375 264.480469 65.820312 L 264.480469 160.164062 C 263.90625 160.164062 263.332031 159.589844 262.179688 159.011719 Z M 262.179688 159.011719 " fill-opacity="1" fill-rule="nonzero"/><g clip-path="url(#a4da2d4123)"><path fill="#272c35" d="M 345.59375 223.445312 C 345.59375 199.28125 329.488281 176.269531 300.148438 159.589844 C 293.246094 155.5625 285.191406 152.109375 277.136719 148.660156 L 277.136719 46.261719 C 277.136719 43.957031 275.988281 41.65625 273.109375 40.507812 C 271.386719 38.78125 268.507812 39.355469 266.78125 41.082031 L 199.476562 94.007812 L 199.476562 71.570312 C 199.476562 69.847656 198.324219 68.695312 196.601562 67.546875 C 193.722656 65.820312 189.695312 65.820312 186.820312 67.546875 C 185.09375 68.695312 183.945312 69.847656 183.945312 71.570312 L 183.945312 94.007812 L 117.789062 41.082031 C 116.0625 39.355469 113.183594 39.355469 110.882812 40.507812 C 108.582031 41.65625 106.855469 43.957031 106.855469 46.261719 L 106.855469 148.660156 C 98.804688 152.109375 90.75 155.5625 83.847656 159.589844 C 54.507812 176.269531 38.398438 198.707031 38.398438 223.445312 C 38.398438 223.445312 38.398438 224.019531 38.398438 224.019531 L 38.398438 246.453125 C 38.976562 270.039062 55.082031 292.476562 83.847656 309.160156 C 113.761719 326.417969 152.878906 335.046875 191.996094 335.046875 C 231.117188 335.046875 270.234375 326.417969 300.148438 309.160156 C 329.488281 292.476562 345.59375 269.464844 345.59375 245.304688 L 345.59375 224.019531 C 345.59375 223.445312 345.59375 223.445312 345.59375 223.445312 Z M 269.085938 43.957031 C 269.660156 43.382812 270.808594 43.382812 271.386719 43.957031 C 271.960938 44.535156 272.535156 45.109375 272.535156 46.261719 L 272.535156 162.464844 C 272.535156 162.464844 272.535156 162.464844 271.960938 163.039062 C 271.386719 163.617188 270.234375 163.617188 269.085938 163.617188 C 267.933594 162.464844 267.359375 161.3125 266.207031 160.164062 L 266.207031 66.394531 C 266.207031 64.667969 265.058594 62.941406 263.332031 62.367188 C 261.605469 61.792969 259.878906 61.792969 258.152344 62.941406 L 201.203125 108.390625 L 199.476562 106.089844 L 199.476562 99.761719 Z M 252.976562 164.191406 L 196.601562 119.320312 C 193.722656 117.019531 190.273438 117.019531 187.394531 119.320312 L 131.019531 164.191406 C 122.390625 171.09375 117.210938 181.449219 117.210938 192.378906 L 117.210938 285.574219 C 117.210938 285.574219 117.210938 285.574219 116.636719 286.148438 C 115.488281 286.722656 112.609375 286.722656 111.460938 286.148438 C 110.882812 286.148438 110.882812 285.574219 110.882812 285.574219 L 110.882812 184.902344 C 110.882812 175.121094 115.488281 166.492188 122.964844 160.164062 L 190.273438 106.664062 C 191.421875 105.511719 193.148438 105.511719 194.296875 106.664062 L 261.605469 160.164062 C 269.085938 165.917969 273.6875 175.121094 273.6875 184.902344 L 273.6875 285.574219 C 273.6875 285.574219 273.6875 285.574219 273.109375 286.148438 C 271.960938 286.722656 269.085938 286.722656 267.933594 286.148438 C 267.359375 286.148438 267.359375 285.574219 267.359375 285.574219 L 267.359375 192.378906 C 266.78125 181.449219 261.605469 171.09375 252.976562 164.191406 Z M 210.980469 226.894531 C 200.625 232.648438 183.367188 232.648438 173.011719 226.894531 C 168.410156 224.019531 165.535156 220.566406 165.535156 217.117188 C 165.535156 213.664062 167.835938 210.210938 173.011719 207.335938 C 176.464844 205.609375 180.492188 204.460938 184.519531 203.308594 L 184.519531 217.117188 C 184.519531 218.839844 185.667969 219.992188 187.394531 221.140625 C 188.546875 221.71875 190.273438 222.292969 191.996094 222.292969 C 193.722656 222.292969 195.449219 221.71875 196.601562 221.140625 C 198.324219 219.992188 199.476562 218.839844 199.476562 217.117188 L 199.476562 203.308594 C 204.078125 203.882812 208.105469 205.609375 210.980469 207.335938 C 215.582031 210.210938 218.460938 213.664062 218.460938 217.117188 C 218.460938 221.140625 215.582031 224.59375 210.980469 226.894531 Z M 218.460938 226.894531 C 218.460938 230.347656 216.160156 233.796875 210.980469 236.675781 C 200.625 242.425781 183.367188 242.425781 173.011719 236.675781 C 168.410156 233.796875 165.535156 230.347656 165.535156 226.894531 C 166.6875 228.621094 168.410156 229.773438 170.710938 230.921875 C 176.464844 234.375 184.519531 236.101562 191.996094 236.101562 C 199.476562 236.101562 207.53125 234.375 213.28125 230.921875 C 215.582031 229.773438 216.734375 228.046875 218.460938 226.894531 Z M 195.449219 123.921875 L 195.449219 217.117188 C 195.449219 217.117188 195.449219 217.117188 194.875 217.691406 C 193.722656 218.265625 190.847656 218.265625 189.695312 217.691406 C 189.121094 217.691406 189.121094 217.117188 189.121094 217.117188 L 189.121094 123.921875 L 190.273438 122.769531 C 191.421875 121.621094 193.148438 121.621094 194.296875 122.769531 Z M 184.519531 133.703125 C 181.644531 133.703125 178.765625 134.277344 175.890625 134.277344 L 184.519531 127.375 Z M 199.476562 127.375 L 208.105469 134.277344 C 205.230469 134.277344 202.351562 133.703125 199.476562 133.703125 Z M 144.25 137.726562 C 136.195312 139.453125 128.71875 141.179688 121.8125 143.480469 L 121.8125 66.394531 L 122.390625 66.394531 L 178.765625 111.265625 Z M 136.773438 144.054688 L 121.8125 156.136719 L 121.8125 148.082031 C 126.417969 146.355469 131.59375 145.207031 136.773438 144.054688 Z M 189.121094 103.210938 L 189.121094 76.175781 C 190.273438 76.75 191.421875 76.75 192.574219 76.75 C 193.722656 76.75 194.875 76.75 196.023438 76.175781 L 196.023438 102.636719 C 193.148438 102.0625 190.847656 102.0625 189.121094 103.210938 Z M 262.179688 156.136719 L 247.222656 144.054688 C 252.402344 145.207031 257.578125 146.355469 262.179688 148.082031 Z M 262.179688 143.480469 C 254.703125 141.179688 247.222656 139.453125 239.746094 137.726562 L 205.230469 110.691406 L 261.605469 65.820312 L 262.179688 65.820312 Z M 189.121094 71.570312 C 190.273438 70.996094 193.148438 70.996094 194.296875 71.570312 C 194.296875 71.570312 194.875 71.570312 194.875 71.570312 C 194.875 71.570312 194.875 71.570312 194.296875 72.148438 C 193.148438 72.722656 190.273438 72.722656 189.121094 72.148438 C 189.121094 71.570312 189.121094 71.570312 189.121094 71.570312 Z M 110.882812 46.261719 C 110.882812 45.109375 111.460938 44.535156 112.035156 43.957031 C 112.609375 43.382812 113.761719 43.382812 114.335938 43.957031 L 183.945312 99.183594 L 183.945312 105.511719 L 182.21875 107.8125 L 125.265625 62.367188 C 124.117188 61.21875 121.8125 61.21875 120.089844 61.792969 C 118.363281 62.367188 117.210938 64.09375 117.210938 65.820312 L 117.210938 159.011719 C 116.0625 160.164062 114.910156 161.3125 114.335938 162.464844 C 113.183594 162.464844 112.035156 162.464844 111.460938 161.890625 C 110.882812 161.890625 110.882812 161.3125 110.882812 161.3125 Z M 86.148438 163.039062 C 92.476562 159.589844 99.378906 156.136719 106.855469 153.261719 L 106.855469 162.464844 C 106.855469 164.191406 108.007812 165.339844 109.734375 166.492188 C 110.308594 167.066406 110.882812 167.066406 112.035156 167.640625 C 109.160156 172.820312 106.855469 179.148438 106.855469 185.476562 L 106.855469 286.148438 C 106.855469 287.875 108.007812 289.023438 109.734375 290.175781 C 112.609375 291.902344 116.636719 291.902344 119.511719 290.175781 C 121.238281 289.023438 122.390625 287.875 122.390625 286.148438 L 122.390625 192.378906 C 122.390625 182.597656 126.992188 173.96875 134.46875 167.640625 L 170.710938 138.878906 C 175.316406 138.304688 180.492188 138.304688 185.09375 138.304688 L 185.09375 199.28125 C 179.917969 199.859375 175.316406 201.582031 171.289062 203.882812 C 164.960938 207.335938 162.082031 211.9375 162.082031 217.691406 L 162.082031 226.894531 C 162.082031 232.074219 165.535156 236.675781 171.289062 240.703125 C 177.039062 244.152344 185.09375 245.878906 192.574219 245.878906 C 200.050781 245.878906 208.105469 244.152344 213.859375 240.703125 C 220.1875 237.25 223.0625 232.648438 223.0625 226.894531 L 223.0625 217.117188 C 223.0625 211.9375 219.609375 207.335938 213.859375 203.882812 C 209.832031 201.582031 205.230469 200.433594 200.050781 199.28125 L 200.050781 138.304688 C 204.652344 138.304688 209.832031 138.878906 214.433594 138.878906 L 250.675781 167.640625 C 258.152344 173.394531 262.757812 182.597656 262.757812 192.378906 L 262.757812 285.574219 C 262.757812 287.300781 263.90625 288.449219 265.632812 289.601562 C 266.78125 290.175781 268.507812 290.75 270.234375 290.75 C 271.960938 290.75 273.6875 290.175781 274.835938 289.601562 C 276.5625 288.449219 277.714844 287.300781 277.714844 285.574219 L 277.714844 184.902344 C 277.714844 178.574219 275.988281 172.246094 272.535156 167.066406 C 273.109375 167.066406 274.261719 166.492188 274.835938 165.917969 C 276.5625 164.765625 277.714844 163.617188 277.714844 161.890625 L 277.714844 152.683594 C 285.191406 155.5625 292.09375 159.011719 298.421875 162.464844 C 326.035156 179.148438 341.570312 200.433594 341.570312 223.445312 C 341.570312 245.878906 326.035156 267.164062 298.421875 283.273438 C 239.746094 317.214844 144.824219 317.214844 86.148438 283.273438 C 57.960938 267.164062 43.003906 245.878906 43.003906 223.445312 C 43.003906 200.433594 57.960938 179.148438 86.148438 163.039062 Z M 341.570312 245.304688 C 341.570312 267.738281 326.035156 289.023438 298.421875 305.132812 C 239.746094 339.074219 144.824219 339.074219 86.148438 305.132812 C 58.535156 289.601562 43.003906 268.316406 43.003906 246.453125 L 43.003906 244.730469 C 49.332031 260.835938 63.710938 275.21875 83.847656 287.300781 C 113.761719 304.558594 152.878906 313.1875 191.996094 313.1875 C 231.117188 313.1875 270.234375 304.558594 300.148438 287.300781 C 320.859375 275.21875 334.664062 260.835938 340.992188 244.730469 L 340.992188 245.304688 Z M 189.695312 108.964844 L 194.296875 108.964844 L 194.296875 116.441406 L 189.695312 116.441406 Z M 189.695312 108.964844 " fill-opacity="1" fill-rule="nonzero"/></g></svg>