<svg xmlns="http://www.w3.org/2000/svg" xmlns:xlink="http://www.w3.org/1999/xlink" width="4000" zoomAndPan="magnify" viewBox="0 0 3000 599.999999" height="800" preserveAspectRatio="xMidYMid meet" version="1.0"><defs><g/></defs><g fill="#00d19f" fill-opacity="1"><g transform="translate(0.0000015, 485.16477)"><g><path d="M 210.921875 -306.796875 C 210.921875 -350.75 187.0625 -374.140625 143.109375 -374.140625 L 30.859375 -374.140625 C 26.1875 -374.140625 23.390625 -371.796875 23.390625 -366.65625 L 23.390625 -7.484375 C 23.390625 -2.8125 26.1875 0 30.859375 0 L 143.109375 0 C 187.0625 0 210.921875 -23.390625 210.921875 -67.34375 L 210.921875 -153.390625 C 210.921875 -170.703125 198.296875 -183.796875 181.453125 -186.59375 L 181.453125 -187.53125 C 198.296875 -190.34375 210.921875 -203.4375 210.921875 -220.734375 Z M 148.71875 -236.171875 C 148.71875 -224.484375 142.171875 -217.9375 130.015625 -217.9375 L 87.453125 -217.9375 L 87.453125 -312.40625 L 130.015625 -312.40625 C 142.640625 -312.40625 148.71875 -305.859375 148.71875 -293.703125 Z M 148.71875 -80.4375 C 148.71875 -67.8125 142.171875 -61.734375 130.015625 -61.734375 L 87.453125 -61.734375 L 87.453125 -156.203125 L 130.015625 -156.203125 C 142.640625 -156.203125 148.71875 -149.65625 148.71875 -137.5 Z M 148.71875 -80.4375 "/></g></g></g><g fill="#00d19f" fill-opacity="1"><g transform="translate(234.303071, 485.16477)"><g><path d="M 30.859375 -374.140625 C 25.71875 -374.140625 23.390625 -371.328125 23.390625 -366.65625 L 23.390625 -7.484375 C 23.390625 -2.8125 25.71875 0 30.859375 0 L 79.5 0 C 84.1875 0 86.984375 -2.8125 86.984375 -7.484375 L 86.984375 -366.65625 C 86.984375 -371.328125 84.1875 -374.140625 79.5 -374.140625 Z M 30.859375 -374.140625 "/></g></g></g><g fill="#00d19f" fill-opacity="1"><g transform="translate(344.673338, 485.16477)"><g><path d="M 21.515625 -374.140625 C 16.84375 -374.140625 14.03125 -371.328125 14.03125 -366.65625 L 14.03125 -319.890625 C 14.03125 -315.203125 16.84375 -312.40625 21.515625 -312.40625 L 75.765625 -312.40625 L 75.765625 -7.484375 C 75.765625 -2.34375 78.5625 0 83.25 0 L 131.890625 0 C 137.03125 0 139.359375 -2.34375 139.359375 -7.484375 L 139.359375 -312.40625 L 193.609375 -312.40625 C 198.765625 -312.40625 201.09375 -315.203125 201.09375 -319.890625 L 201.09375 -366.65625 C 201.09375 -371.328125 198.765625 -374.140625 193.609375 -374.140625 Z M 21.515625 -374.140625 "/></g></g></g><g fill="#ffbd59" fill-opacity="1"><g transform="translate(623.491473, 445.866613)"><g><path d="M 15.765625 0 L 90.234375 -0.4375 C 97.6875 -0.4375 106.453125 -7.890625 105.5625 -17.953125 L 104.25 -73.15625 C 158.578125 -74.46875 206.3125 -81.03125 236.546875 -117.828125 C 258.890625 -145 259.328125 -210.703125 251.4375 -239.171875 C 236.984375 -293.921875 191.421875 -310.578125 126.59375 -310.578125 L 14.890625 -311.015625 C 7.015625 -311.015625 0 -301.8125 0 -293.921875 L 0.875 -17.078125 C 0.875 -7.453125 7.453125 0 15.765625 0 Z M 101.1875 -210.265625 C 123.53125 -209.828125 142.359375 -208.078125 148.5 -203.25 C 166.453125 -188.359375 155.0625 -162.078125 124.84375 -162.078125 L 102.5 -162.078125 Z M 101.1875 -210.265625 "/></g></g></g><g fill="#ffbd59" fill-opacity="1"><g transform="translate(897.275222, 445.866613)"><g><path d="M 82.359375 3.9375 C 91.109375 3.9375 99.875 -3.5 99.4375 -13.578125 L 94.1875 -289.984375 C 94.1875 -299.1875 86.296875 -307.078125 77.09375 -307.078125 L 16.640625 -307.078125 C 7.890625 -307.078125 0 -298.75 0 -289.984375 L 0.875 -12.703125 C 0.875 -2.625 8.328125 4.375 17.515625 4.375 Z M 82.359375 3.9375 "/></g></g></g><g fill="#ffbd59" fill-opacity="1"><g transform="translate(1014.235607, 445.866613)"><g><path d="M 145.4375 7.890625 L 208.953125 7.453125 C 214.203125 7.453125 222.96875 2.1875 222.09375 -6.125 C 222.09375 -89.796875 220.78125 -158.578125 219.90625 -165.578125 C 212.015625 -232.171875 142.796875 -248.375 70.53125 -232.171875 C 18.390625 -220.34375 10.515625 -194.5 10.515625 -162.078125 C 10.515625 -155.0625 14.890625 -152.875 23.21875 -152 L 70.53125 -145.875 C 85.859375 -143.671875 81.921875 -169.09375 101.625 -169.53125 C 133.609375 -170.40625 130.96875 -162.078125 133.171875 -137.546875 L 89.359375 -134.921875 C 50.375 -132.734375 8.328125 -113.890625 1.75 -78.40625 C -3.5 -49.0625 1.75 -3.0625 59.578125 5.25 C 84.109375 8.765625 109.953125 3.0625 133.171875 -10.953125 C 131.859375 0.875 135.796875 7.890625 145.4375 7.890625 Z M 118.265625 -95.0625 C 123.53125 -95.0625 127.46875 -92.421875 127.46875 -88.921875 L 127.46875 -54.3125 C 127.46875 -50.8125 123.96875 -48.1875 119.59375 -48.1875 C 83.234375 -48.1875 81.921875 -95.0625 118.265625 -95.0625 Z M 118.265625 -95.0625 "/></g></g></g><g fill="#ffbd59" fill-opacity="1"><g transform="translate(1253.85103, 445.866613)"><g><path d="M 18.84375 86.296875 C 72.28125 95.9375 129.21875 103.375 166.453125 85.859375 C 208.078125 66.140625 228.65625 39.859375 230.84375 -6.125 C 233.484375 -65.265625 229.96875 -77.96875 226.46875 -221.21875 C 226.46875 -228.65625 220.34375 -236.109375 209.828125 -236.109375 L 160.765625 -236.109375 C 149.8125 -236.109375 144.5625 -233.484375 144.125 -215.515625 C 143.671875 -197.125 144.5625 -163.828125 144.125 -96.8125 C 144.125 -88.921875 136.234375 -82.796875 125.28125 -82.359375 C 98.5625 -81.03125 88.046875 -102.9375 87.171875 -128.78125 L 86.296875 -223.40625 C 86.296875 -230.84375 79.28125 -236.546875 70.96875 -236.546875 L 15.328125 -236.546875 C 7.453125 -236.546875 -1.3125 -230.40625 0.4375 -223.40625 L 0.4375 -129.21875 C -0.875 -98.5625 7.015625 -67.453125 25.40625 -46.4375 C 50.375 -17.078125 99 -6.578125 141.046875 -16.203125 C 141.046875 2.625 137.109375 14.890625 123.96875 19.71875 C 97.25 29.34375 64.390625 19.71875 39.421875 10.515625 C 31.09375 7.453125 18.390625 11.390625 16.640625 22.78125 L 6.578125 67.015625 C 5.25 74.46875 9.203125 84.546875 18.84375 86.296875 Z M 18.84375 86.296875 "/></g></g></g><g fill="#ffbd59" fill-opacity="1"><g transform="translate(1503.103726, 445.866613)"><g><path d="M 18.84375 84.984375 C 71.84375 94.1875 126.59375 102.0625 163.828125 84.984375 C 205 66.140625 225.59375 39.421875 227.34375 -6.125 C 229.53125 -64.390625 226.46875 -79.28125 222.96875 -220.34375 C 222.96875 -227.34375 217.265625 -235.234375 206.765625 -235.234375 L 153.75 -235.234375 C 147.1875 -235.234375 142.359375 -231.734375 139.734375 -226.46875 C 137.984375 -226.90625 135.796875 -227.78125 133.171875 -228.65625 C 71.40625 -243.109375 14.453125 -212.890625 2.625 -147.625 C -3.9375 -111.703125 2.625 -71.40625 24.96875 -45.5625 C 49.9375 -16.640625 97.25 -6.125 138.859375 -15.328125 C 138.859375 3.0625 134.921875 14.453125 121.78125 19.71875 C 95.9375 30.21875 63.515625 20.15625 38.546875 10.953125 C 30.21875 7.890625 18.390625 11.828125 16.640625 22.78125 L 6.125 66.578125 C 5.25 73.59375 8.765625 83.234375 18.84375 84.984375 Z M 121.78125 -161.203125 C 131.421875 -161.640625 139.296875 -162.953125 139.734375 -155.0625 L 141.921875 -95.0625 C 142.359375 -87.171875 134.046875 -81.03125 123.09375 -80.15625 C 63.515625 -75.34375 60.890625 -158.578125 121.78125 -161.203125 Z M 121.78125 -161.203125 "/></g></g></g><g fill="#ffbd59" fill-opacity="1"><g transform="translate(1748.852027, 445.866613)"><g><path d="M 15.765625 0.875 L 77.96875 0.4375 C 81.921875 0.4375 85.859375 -1.3125 88.921875 -4.8125 C 91.984375 -7.890625 93.734375 -12.265625 93.296875 -17.078125 L 91.109375 -118.703125 C 92.859375 -134.921875 101.1875 -148.0625 130.53125 -148.0625 C 139.734375 -148.0625 146.75 -145.875 155.0625 -141.484375 C 163.828125 -136.671875 174.78125 -138.421875 179.59375 -146.3125 L 204.5625 -186.171875 C 208.953125 -193.171875 208.953125 -201.9375 202.8125 -207.640625 C 182.234375 -226.90625 161.640625 -240.921875 132.296875 -240.921875 C 111.703125 -240.921875 98.125 -232.171875 88.484375 -221.21875 C 88.484375 -226.03125 87.171875 -229.96875 84.109375 -233.484375 C 81.03125 -236.546875 77.53125 -238.296875 73.15625 -238.296875 L 14.890625 -238.734375 C 10.953125 -238.734375 7.890625 -236.984375 4.8125 -233.484375 C 1.75 -229.96875 0 -226.03125 0 -221.65625 L 0.875 -16.203125 C 0.875 -11.390625 2.1875 -7.015625 5.25 -3.9375 C 8.328125 -0.875 11.828125 0.875 15.765625 0.875 Z M 15.765625 0.875 "/></g></g></g><g fill="#ffbd59" fill-opacity="1"><g transform="translate(1974.011811, 445.866613)"><g><path d="M 80.59375 2.1875 C 110.390625 9.640625 157.703125 7.453125 185.734375 -7.890625 C 226.46875 -30.65625 239.171875 -66.140625 239.171875 -106.890625 C 236.546875 -159.890625 226.46875 -199.3125 185.734375 -222.09375 C 157.703125 -237.421875 110.390625 -240.046875 80.59375 -231.734375 C 21.90625 -215.515625 2.625 -169.53125 0 -104.25 C 2.625 -38.984375 21.46875 -13.578125 80.59375 2.1875 Z M 93.734375 -111.703125 C 93.296875 -184.859375 146.3125 -179.15625 146.3125 -109.078125 C 143.671875 -54.75 94.625 -56.515625 93.734375 -111.703125 Z M 93.734375 -111.703125 "/></g></g></g><g fill="#ffbd59" fill-opacity="1"><g transform="translate(2230.711358, 445.866613)"><g><path d="M 163.390625 3.5 L 228.21875 3.9375 C 232.171875 3.9375 235.671875 2.1875 238.734375 -1.3125 C 241.796875 -4.8125 243.109375 -8.765625 243.109375 -13.140625 L 242.234375 -218.578125 C 242.234375 -223.40625 240.921875 -227.78125 237.859375 -230.84375 C 234.796875 -233.921875 231.28125 -235.671875 227.34375 -235.671875 L 158.578125 -235.234375 C 154.625 -235.234375 150.6875 -233.484375 147.625 -230.40625 C 144.5625 -226.90625 142.796875 -222.53125 143.234375 -217.703125 L 146.3125 -91.984375 C 145 -85.859375 135.796875 -72.71875 123.53125 -69.21875 C 102.0625 -61.765625 91.984375 -82.796875 91.109375 -113.015625 L 91.984375 -221.65625 C 91.984375 -226.03125 90.671875 -229.96875 88.046875 -233.484375 C 85.421875 -236.984375 82.359375 -238.734375 78.84375 -238.734375 L 14.015625 -238.734375 C 10.515625 -238.734375 7.453125 -236.984375 4.375 -233.484375 C 1.75 -230.40625 0.4375 -226.46875 0.4375 -221.65625 L 0 -136.234375 C 0.4375 -63.515625 -0.4375 -31.546875 42.046875 -6.578125 C 66.140625 7.453125 104.25 7.453125 149.375 -6.578125 C 150.25 -4.8125 151.125 -3.0625 152.4375 -1.75 C 155.5 1.75 159.015625 3.5 163.390625 3.5 Z M 163.390625 3.5 "/></g></g></g><g fill="#ffbd59" fill-opacity="1"><g transform="translate(2491.35357, 445.866613)"><g><path d="M 153.3125 3.9375 L 218.140625 3.9375 C 221.65625 3.9375 224.71875 2.1875 227.78125 -1.3125 C 230.40625 -4.375 231.734375 -8.328125 231.734375 -13.140625 L 232.171875 -98.5625 C 231.734375 -171.28125 232.609375 -199.3125 190.109375 -224.28125 C 166.453125 -238.296875 128.78125 -242.671875 84.109375 -233.921875 C 81.484375 -236.546875 77.09375 -237.859375 72.71875 -237.859375 L 15.765625 -237.859375 C 7.453125 -237.859375 0 -231.28125 0 -224.28125 L 0.875 -10.515625 C 0.875 -2.1875 7.890625 3.0625 16.640625 3.0625 L 77.53125 2.625 C 84.546875 2.625 94.625 -2.625 93.734375 -10.953125 L 90.671875 -141.921875 C 91.984375 -155.9375 100.75 -162.078125 108.640625 -165.578125 C 130.09375 -173.03125 139.296875 -152 141.046875 -121.78125 L 140.171875 -13.140625 C 140.171875 -8.765625 141.484375 -4.8125 144.125 -1.3125 C 146.75 2.1875 149.8125 3.9375 153.3125 3.9375 Z M 153.3125 3.9375 "/></g></g></g><g fill="#ffbd59" fill-opacity="1"><g transform="translate(2741.044329, 445.866613)"><g><path d="M 148.9375 0.4375 L 211.578125 0.875 C 215.515625 0.875 219.03125 -0.875 222.09375 -3.9375 C 225.15625 -7.015625 226.46875 -11.390625 226.46875 -16.203125 L 227.34375 -290.421875 C 227.34375 -294.8125 226.03125 -298.75 222.96875 -302.25 C 219.90625 -305.75 216.390625 -307.515625 212.453125 -307.515625 L 156.828125 -307.078125 C 152.4375 -307.078125 148.9375 -305.3125 145.875 -302.25 C 142.796875 -298.75 141.484375 -294.8125 141.484375 -289.984375 L 139.734375 -234.796875 C 54.75 -249.25 13.578125 -209.828125 2.1875 -145.4375 C -4.8125 -106 4.375 -60.453125 22.34375 -28.46875 C 42.046875 6.125 81.484375 9.640625 137.546875 -5.25 C 137.546875 -4.8125 137.984375 -4.8125 137.984375 -4.8125 C 141.046875 -1.3125 145 0.4375 148.9375 0.4375 Z M 88.921875 -111.703125 L 88.921875 -113.453125 C 88.921875 -148.0625 97.6875 -173.90625 121.34375 -165.578125 C 129.65625 -161.640625 137.546875 -147.625 137.109375 -140.609375 L 137.109375 -139.734375 L 135.796875 -96.375 L 135.796875 -86.296875 C 134.921875 -77.09375 133.171875 -71.84375 126.15625 -69.65625 C 102.9375 -60.890625 89.359375 -78.40625 88.921875 -111.703125 Z M 88.921875 -111.703125 "/></g></g></g></svg>