<svg xmlns="http://www.w3.org/2000/svg" xmlns:xlink="http://www.w3.org/1999/xlink" width="500" zoomAndPan="magnify" viewBox="0 0 375 374.999991" height="500" preserveAspectRatio="xMidYMid meet" version="1.0"><defs><clipPath id="b8d3ae24ff"><path d="M 36 37.5 L 340 37.5 L 340 348 L 36 348 Z M 36 37.5 " clip-rule="nonzero"/></clipPath><clipPath id="66985851da"><path d="M 36 37.5 L 340 37.5 L 340 348 L 36 348 Z M 36 37.5 " clip-rule="nonzero"/></clipPath></defs><rect x="-37.5" width="450" fill="#ffffff" y="-37.499999" height="449.999989" fill-opacity="1"/><rect x="-37.5" width="450" fill="#c7e0ff" y="-37.499999" height="449.999989" fill-opacity="1"/><g clip-path="url(#b8d3ae24ff)"><path fill="#3f1e10" d="M 330.9375 324.910156 C 327.875 323.328125 324.988281 321.835938 324.679688 319.6875 C 323.730469 313.046875 316.996094 310.019531 308.46875 306.191406 L 307.039062 305.546875 C 301.46875 303.039062 298.3125 294.414062 295.53125 286.800781 C 293.902344 282.335938 292.488281 278.484375 290.742188 276.214844 C 287.960938 272.585938 283.078125 272.453125 279.15625 272.347656 C 275.988281 272.261719 274.050781 272.132812 273.808594 271.023438 C 272.671875 265.910156 265.375 265.203125 257.648438 265.203125 C 252.9375 265.203125 251.214844 260.738281 249.222656 255.5625 C 248.0625 252.570312 246.871094 249.46875 244.964844 247.042969 C 241.320312 242.402344 233.648438 241.757812 226.234375 241.136719 C 222.652344 240.839844 218.945312 240.527344 215.792969 239.773438 C 212.347656 238.945312 209.917969 236.125 207.109375 232.855469 C 202.519531 227.515625 196.824219 220.898438 183.90625 219.558594 C 181.507812 201.339844 178.863281 171.238281 180.066406 164.320312 C 181.527344 155.960938 191.9375 143.785156 198.597656 138.867188 C 203.789062 143.636719 212.019531 146.316406 221.28125 146.316406 C 222.570312 146.316406 223.878906 146.265625 225.203125 146.160156 C 230.042969 145.773438 234.828125 144.703125 239.40625 142.972656 C 245.792969 140.570312 251.464844 137.023438 256.265625 132.433594 C 261.199219 127.726562 265.058594 122.03125 267.742188 115.511719 L 268 114.886719 L 267.480469 114.453125 C 262.765625 110.511719 256.308594 107.410156 249.3125 105.71875 C 242.664062 104.109375 235.84375 103.839844 229.578125 104.941406 C 224.0625 105.917969 219.0625 107.917969 214.707031 110.882812 L 214.664062 110.828125 C 214.527344 110.941406 214.421875 111.046875 214.328125 111.140625 C 208.054688 115.523438 203.28125 121.839844 200.132812 129.914062 C 194.316406 132.457031 187.296875 137.730469 181.277344 144.03125 C 182.101562 135.546875 183.496094 122.558594 184.378906 119.160156 C 192.257812 116.386719 200.070312 109.785156 205.933594 100.921875 L 206.210938 100.5 C 209.355469 95.664062 211.800781 90.378906 213.492188 84.808594 C 215.859375 77.046875 216.628906 69.132812 215.785156 61.289062 C 214.929688 53.234375 212.371094 45.476562 208.1875 38.238281 L 207.847656 37.660156 L 207.183594 37.808594 C 200.078125 39.402344 192.496094 43.242188 185.839844 48.609375 C 179.511719 53.703125 174.328125 59.933594 170.824219 66.640625 C 167.757812 72.515625 166.03125 78.648438 165.664062 84.882812 L 165.570312 84.882812 C 165.570312 85.074219 165.589844 85.285156 165.628906 85.484375 C 165.09375 97.121094 169.289062 108.632812 178.089844 119.703125 C 174.945312 129.660156 171.527344 150.179688 171.136719 165.984375 C 165.199219 158.820312 154.597656 158.253906 152.546875 158.207031 C 143.921875 151.140625 134.90625 147.710938 125.742188 148.019531 C 125.597656 147.996094 125.457031 147.976562 125.296875 147.972656 L 125.289062 148.039062 C 120.4375 148.257812 115.648438 149.527344 111.050781 151.828125 L 110.847656 151.929688 C 105.5625 154.609375 100.609375 158.632812 96.53125 163.566406 C 92.246094 168.769531 89.160156 174.703125 87.847656 180.273438 L 87.691406 180.9375 L 88.273438 181.285156 C 93.917969 184.648438 99.984375 186.730469 106.304688 187.496094 C 108.09375 187.710938 109.898438 187.816406 111.703125 187.816406 C 116.074219 187.816406 120.464844 187.183594 124.800781 185.925781 C 129.1875 184.648438 133.363281 182.773438 137.199219 180.34375 C 143.710938 176.21875 148.691406 170.859375 151.308594 165.191406 C 154.957031 165.796875 158.402344 166.429688 161.585938 169.023438 C 165.453125 172.175781 168.453125 177.992188 170.765625 186.8125 C 173.621094 197.699219 174.3125 209.550781 174.363281 217.875 C 158.855469 218.519531 155.75 227.839844 153.253906 235.363281 C 151.910156 239.417969 150.738281 242.933594 147.914062 244.351562 C 140.117188 243.742188 136.480469 247.960938 135.390625 250.824219 C 133.257812 250.769531 127.007812 250.898438 123.578125 253.921875 C 122.390625 254.96875 121.652344 256.253906 121.375 257.753906 C 105.277344 257.128906 104.136719 267.734375 103.585938 272.875 C 103.484375 273.8125 103.359375 274.953125 103.179688 275.375 C 99.8125 275.152344 96.148438 281.472656 92.699219 288.390625 C 90.808594 292.167969 84.753906 299.636719 79.089844 297.210938 C 75.625 295.722656 71.890625 295.808594 68.828125 297.4375 C 65.789062 299.0625 63.722656 302.015625 63.023438 305.75 C 61.988281 311.269531 56.289062 313.492188 50.253906 315.84375 C 48.847656 316.394531 47.390625 316.960938 45.992188 317.574219 C 40.59375 319.929688 35.386719 327.777344 36.855469 331.324219 C 37.285156 332.355469 38.5625 333.800781 42.371094 332.613281 C 42.816406 334.890625 43.851562 336.628906 45.457031 337.792969 C 47.929688 339.597656 51.027344 339.480469 52.367188 339.320312 C 53.078125 340.375 54.90625 342.558594 58.242188 343.5 C 62.433594 344.6875 67.464844 343.519531 73.191406 340.027344 C 80.941406 335.300781 85.855469 333.71875 89.605469 334.722656 C 92.238281 335.429688 94.464844 337.507812 96.410156 341.070312 C 99.945312 347.558594 106.136719 344.828125 111.113281 342.625 C 114.757812 341.019531 118.203125 339.492188 120.171875 341.304688 C 124.460938 345.238281 132.5625 344.574219 138.480469 344.085938 C 140.699219 343.898438 142.613281 343.742188 143.828125 343.859375 C 144.601562 343.941406 146.066406 344.152344 147.914062 344.417969 C 157.242188 345.777344 176.664062 348.605469 184.917969 345.660156 C 194.859375 342.113281 214.441406 337.03125 233.804688 342.894531 C 245.535156 346.449219 252.683594 345.0625 257.414062 344.152344 C 260.820312 343.496094 262.878906 343.097656 264.828125 344.597656 C 267.535156 346.675781 274.074219 347.78125 281.652344 347.78125 C 290.703125 347.78125 301.226562 346.207031 308.4375 342.851562 C 314.398438 340.078125 320.15625 341.167969 325.230469 342.128906 C 331.011719 343.226562 336.464844 344.257812 338.96875 337.71875 C 341.738281 330.488281 335.746094 327.398438 330.9375 324.910156 Z M 330.9375 324.910156 " fill-opacity="1" fill-rule="nonzero"/></g><path fill="#099602" d="M 266.890625 115.171875 C 262.300781 113.953125 250.375 115.660156 237.589844 119.121094 C 237.851562 118.804688 246.105469 108.683594 249.097656 106.640625 L 249.097656 106.628906 C 256.078125 108.316406 262.371094 111.398438 266.890625 115.171875 Z M 266.890625 115.171875 " fill-opacity="1" fill-rule="nonzero"/><path fill="#099602" d="M 237.589844 119.121094 C 250.375 115.660156 262.300781 113.953125 266.890625 115.171875 C 264.121094 121.894531 260.21875 127.390625 255.632812 131.777344 C 255.628906 131.777344 241.941406 122.03125 237.589844 119.121094 C 237.585938 119.128906 237.585938 119.128906 237.589844 119.121094 Z M 237.589844 119.121094 " fill-opacity="1" fill-rule="nonzero"/><path fill="#099602" d="M 249.097656 106.628906 L 249.097656 106.640625 C 246.105469 108.683594 237.851562 118.8125 237.589844 119.121094 C 231.863281 120.667969 225.953125 122.578125 220.464844 124.742188 L 229.738281 105.867188 L 229.738281 105.859375 C 236.226562 104.726562 242.929688 105.132812 249.097656 106.628906 Z M 249.097656 106.628906 " fill-opacity="1" fill-rule="nonzero"/><path fill="#099602" d="M 239.078125 142.109375 C 234.460938 143.859375 229.722656 144.882812 225.125 145.25 L 225.125 145.242188 C 221.757812 143.027344 207.921875 130.617188 207.921875 130.617188 L 207.921875 130.609375 C 211.589844 128.519531 215.886719 126.539062 220.457031 124.742188 L 220.453125 124.746094 Z M 239.078125 142.109375 " fill-opacity="1" fill-rule="nonzero"/><path fill="#099602" d="M 220.464844 124.742188 C 225.953125 122.578125 231.863281 120.667969 237.589844 119.121094 C 237.585938 119.128906 237.585938 119.128906 237.585938 119.128906 C 241.945312 122.03125 255.628906 131.777344 255.628906 131.777344 C 250.703125 136.484375 244.996094 139.894531 239.078125 142.117188 L 239.078125 142.109375 Z M 220.464844 124.742188 " fill-opacity="1" fill-rule="nonzero"/><path fill="#099602" d="M 229.738281 105.859375 L 220.464844 124.742188 C 215.890625 126.539062 211.597656 128.519531 207.929688 130.609375 C 208.023438 129.457031 211.96875 114.992188 214.9375 111.851562 C 219.480469 108.695312 224.535156 106.777344 229.738281 105.859375 Z M 229.738281 105.859375 " fill-opacity="1" fill-rule="nonzero"/><path fill="#099602" d="M 182.710938 89.546875 L 212.605469 84.546875 C 210.902344 90.167969 208.425781 95.394531 205.433594 100.003906 L 205.425781 100.003906 C 200.890625 101.582031 179.148438 105.644531 179.148438 105.644531 C 179.835938 100.667969 181.085938 95.171875 182.710938 89.546875 Z M 182.710938 89.546875 " fill-opacity="1" fill-rule="nonzero"/><path fill="#099602" d="M 207.921875 130.609375 C 207.921875 130.617188 221.765625 143.027344 225.125 145.242188 L 225.125 145.25 C 214.347656 146.105469 204.359375 143.335938 198.664062 137.6875 C 200.761719 135.238281 203.976562 132.859375 207.921875 130.609375 Z M 207.921875 130.609375 " fill-opacity="1" fill-rule="nonzero"/><path fill="#099602" d="M 207.390625 38.710938 C 211.722656 46.203125 214.070312 53.886719 214.867188 61.398438 C 214.867188 61.398438 195.753906 67.265625 189.847656 69.277344 C 189.847656 69.277344 189.847656 69.277344 189.84375 69.269531 L 189.84375 69.265625 C 195.859375 54.675781 202.917969 42.171875 207.390625 38.710938 Z M 207.390625 38.710938 " fill-opacity="1" fill-rule="nonzero"/><path fill="#099602" d="M 198.671875 137.6875 C 199.277344 135.164062 200.011719 132.804688 200.851562 130.617188 C 204.148438 121.980469 209.117188 115.898438 214.9375 111.851562 C 211.96875 114.992188 208.023438 129.457031 207.929688 130.609375 C 203.976562 132.859375 200.761719 135.238281 198.671875 137.6875 Z M 198.671875 137.6875 " fill-opacity="1" fill-rule="nonzero"/><path fill="#099602" d="M 179.152344 105.648438 C 179.152344 105.648438 200.894531 101.585938 205.433594 100.011719 C 199.53125 109.105469 191.621094 115.808594 183.613281 118.464844 C 182.117188 118.960938 180.605469 119.320312 179.109375 119.523438 C 178.316406 115.777344 178.410156 111.003906 179.152344 105.648438 Z M 179.152344 105.648438 " fill-opacity="1" fill-rule="nonzero"/><path fill="#099602" d="M 207.390625 38.710938 C 202.917969 42.164062 195.859375 54.675781 189.84375 69.265625 C 189.738281 68.804688 186.179688 53.640625 186.429688 49.335938 L 186.421875 49.328125 C 193.082031 43.957031 200.550781 40.246094 207.390625 38.710938 Z M 207.390625 38.710938 " fill-opacity="1" fill-rule="nonzero"/><path fill="#099602" d="M 189.847656 69.277344 C 195.753906 67.265625 214.867188 61.398438 214.867188 61.398438 C 215.734375 69.476562 214.808594 77.339844 212.605469 84.546875 L 182.710938 89.546875 C 184.65625 82.785156 187.148438 75.8125 189.847656 69.277344 Z M 189.847656 69.277344 " fill-opacity="1" fill-rule="nonzero"/><path fill="#099602" d="M 171.648438 67.066406 C 175.28125 60.101562 180.535156 54.066406 186.421875 49.328125 L 186.429688 49.335938 C 186.179688 53.640625 189.742188 68.804688 189.84375 69.265625 L 189.84375 69.269531 C 187.148438 75.8125 184.65625 82.785156 182.710938 89.546875 Z M 171.648438 67.066406 " fill-opacity="1" fill-rule="nonzero"/><path fill="#099602" d="M 171.648438 67.066406 L 182.714844 89.546875 C 181.09375 95.171875 179.839844 100.667969 179.160156 105.644531 C 178.167969 104.757812 167.394531 90.539062 166.558594 85.429688 C 166.859375 78.835938 168.730469 72.65625 171.648438 67.066406 Z M 171.648438 67.066406 " fill-opacity="1" fill-rule="nonzero"/><path fill="#099602" d="M 179.109375 119.519531 C 169.523438 107.617188 166.035156 95.996094 166.550781 85.429688 C 167.386719 90.539062 178.164062 104.757812 179.152344 105.644531 C 178.410156 111.003906 178.316406 115.777344 179.109375 119.519531 Z M 179.109375 119.519531 " fill-opacity="1" fill-rule="nonzero"/><path fill="#82523a" d="M 148.078125 245.296875 C 157.324219 241.136719 150.742188 219.246094 175.28125 218.777344 L 175.289062 218.777344 C 175.292969 225.5625 174.898438 230.082031 174.898438 230.082031 C 174.898438 230.082031 180.324219 228.042969 184.632812 230.082031 C 184.210938 228.273438 183.671875 224.824219 183.082031 220.40625 C 204.339844 222.238281 205.871094 238.359375 215.582031 240.671875 C 225.289062 242.984375 239.15625 241.136719 244.246094 247.613281 C 249.332031 254.089844 249.332031 266.128906 257.652344 266.128906 C 265.976562 266.128906 271.984375 267.050781 272.910156 271.21875 C 273.832031 275.382812 285.394531 270.75 290.011719 276.773438 C 294.632812 282.789062 297.410156 302.226562 306.660156 306.390625 C 315.90625 310.558594 322.839844 313.335938 323.761719 319.8125 C 324.683594 326.289062 342.257812 326.53125 338.09375 337.402344 C 333.929688 348.269531 321.449219 335.792969 308.042969 342.023438 C 294.632812 348.269531 270.808594 348.046875 265.386719 343.878906 C 259.964844 339.710938 253.949219 348.046875 234.066406 342.023438 C 214.1875 336.007812 194.308594 341.34375 184.601562 344.804688 C 174.890625 348.265625 148.539062 343.414062 143.914062 342.957031 C 139.292969 342.488281 126.34375 345.726562 120.796875 340.636719 C 115.25 335.542969 102.773438 350.820312 97.222656 340.636719 C 91.667969 330.449219 84.101562 332.3125 72.714844 339.246094 C 57.917969 348.265625 52.832031 338.320312 52.832031 338.320312 C 52.832031 338.320312 44.042969 340.171875 43.121094 331.375 C 32.488281 335.542969 38.957031 321.65625 46.363281 318.417969 C 53.753906 315.171875 62.539062 313.324219 63.929688 305.917969 C 65.316406 298.519531 72.25 295.273438 78.726562 298.054688 C 85.195312 300.824219 91.667969 292.5 93.523438 288.800781 C 95.367188 285.097656 99.992188 275.835938 103.230469 276.304688 C 106.464844 276.773438 99.992188 257.324219 122.183594 258.714844 C 122.65625 250.851562 136.058594 251.773438 136.058594 251.773438 C 136.058594 251.773438 137.90625 244.375 148.078125 245.296875 Z M 148.078125 245.296875 " fill-opacity="1" fill-rule="nonzero"/><path fill="#92af2b" d="M 152.210938 159.128906 C 152.210938 159.128906 166.496094 159.03125 172.023438 168.90625 C 172.023438 152.773438 175.808594 129.683594 179.117188 119.523438 C 180.609375 119.320312 182.121094 118.96875 183.621094 118.464844 C 182.375 122.203125 180.109375 146.6875 180.109375 146.6875 C 185.914062 140.15625 193.925781 133.539062 200.859375 130.617188 C 200.015625 132.804688 199.292969 135.15625 198.679688 137.6875 C 192.308594 142.109375 180.789062 154.84375 179.160156 164.171875 C 177.863281 171.589844 180.800781 203.292969 183.089844 220.414062 C 183.675781 224.828125 184.222656 228.277344 184.636719 230.089844 C 180.332031 228.050781 174.902344 230.089844 174.902344 230.089844 C 174.902344 230.089844 175.300781 225.566406 175.292969 218.78125 C 175.28125 210.152344 174.617188 197.867188 171.65625 186.589844 C 169.015625 176.511719 165.75 171.242188 162.167969 168.324219 C 158.589844 165.402344 154.691406 164.835938 150.761719 164.171875 C 151.460938 162.492188 151.964844 160.804688 152.210938 159.128906 Z M 152.210938 159.128906 " fill-opacity="1" fill-rule="nonzero"/><path fill="#099602" d="M 152.210938 159.128906 C 149.289062 158.472656 145.550781 158.503906 141.351562 159.023438 C 140.625 158.207031 129.640625 149.660156 125.667969 148.949219 C 133.933594 148.652344 142.992188 151.5 152.210938 159.128906 Z M 152.210938 159.128906 " fill-opacity="1" fill-rule="nonzero"/><path fill="#099602" d="M 152.210938 159.128906 L 150.75 164.171875 C 148.316406 169.886719 143.289062 175.398438 136.695312 179.574219 L 136.691406 179.566406 C 137.96875 176.039062 141.355469 159.03125 141.355469 159.03125 L 141.351562 159.023438 C 145.546875 158.496094 149.289062 158.464844 152.210938 159.128906 Z M 152.210938 159.128906 " fill-opacity="1" fill-rule="nonzero"/><path fill="#099602" d="M 141.351562 159.023438 C 141.355469 159.03125 137.960938 176.039062 136.691406 179.566406 L 136.695312 179.574219 C 133.066406 181.875 128.953125 183.765625 124.535156 185.046875 L 124.535156 185.039062 L 128.734375 161.660156 L 128.722656 161.65625 C 133.140625 160.4375 137.445312 159.515625 141.351562 159.023438 Z M 141.351562 159.023438 " fill-opacity="1" fill-rule="nonzero"/><path fill="#099602" d="M 125.667969 148.949219 C 129.640625 149.652344 140.625 158.207031 141.351562 159.023438 C 137.445312 159.515625 133.140625 160.445312 128.722656 161.65625 L 111.269531 152.765625 C 115.65625 150.539062 120.507812 149.132812 125.667969 148.949219 Z M 125.667969 148.949219 " fill-opacity="1" fill-rule="nonzero"/><path fill="#099602" d="M 112.792969 167.050781 C 117.941406 165.003906 123.414062 163.125 128.722656 161.660156 L 128.734375 161.667969 L 124.535156 185.046875 L 124.535156 185.050781 C 118.871094 186.695312 112.710938 187.351562 106.410156 186.589844 C 106.410156 186.589844 111.179688 171.660156 112.8125 167.058594 C 112.8125 167.058594 112.804688 167.058594 112.792969 167.050781 Z M 112.792969 167.050781 " fill-opacity="1" fill-rule="nonzero"/><path fill="#099602" d="M 112.792969 167.050781 C 112.804688 167.058594 112.8125 167.058594 112.8125 167.058594 C 111.179688 171.660156 106.410156 186.589844 106.410156 186.589844 C 100.546875 185.886719 94.554688 183.972656 88.738281 180.503906 C 91.488281 177.023438 101.328125 171.621094 112.792969 167.050781 Z M 112.792969 167.050781 " fill-opacity="1" fill-rule="nonzero"/><path fill="#099602" d="M 97.246094 164.179688 C 100.589844 164.03125 112.253906 166.914062 112.792969 167.050781 C 101.328125 171.621094 91.488281 177.03125 88.738281 180.503906 C 90.003906 175.15625 92.976562 169.339844 97.246094 164.179688 Z M 97.246094 164.179688 " fill-opacity="1" fill-rule="nonzero"/><path fill="#099602" d="M 97.238281 164.171875 C 101.007812 159.613281 105.773438 155.550781 111.261719 152.773438 C 111.261719 152.773438 111.261719 152.773438 111.269531 152.773438 L 128.722656 161.660156 C 123.414062 163.125 117.941406 165.011719 112.792969 167.050781 C 112.253906 166.914062 100.589844 164.03125 97.238281 164.171875 Z M 97.238281 164.171875 " fill-opacity="1" fill-rule="nonzero"/><path fill="#3f1e10" d="M 229.8125 262.425781 C 228.195312 261.679688 225.964844 261.835938 223.988281 262.835938 L 224.820312 264.484375 C 226.28125 263.746094 227.9375 263.597656 229.039062 264.105469 C 229.722656 264.421875 230.140625 264.957031 230.339844 265.742188 L 232.136719 265.304688 C 231.804688 263.964844 231.003906 262.96875 229.8125 262.425781 Z M 229.8125 262.425781 " fill-opacity="1" fill-rule="nonzero"/><path fill="#3f1e10" d="M 222.285156 305.835938 C 217.609375 307.753906 215.511719 315.941406 214.867188 319.074219 C 211.121094 318.621094 207.964844 319.359375 205.246094 321.3125 L 206.324219 322.816406 C 208.832031 321.011719 211.828125 320.425781 215.464844 321.027344 L 216.367188 321.175781 L 216.53125 320.277344 C 217.410156 315.273438 219.632812 308.933594 222.992188 307.554688 C 224.378906 306.984375 225.886719 307.308594 227.609375 308.53125 L 228.679688 307.023438 C 226.425781 305.417969 224.273438 305.019531 222.285156 305.835938 Z M 222.285156 305.835938 " fill-opacity="1" fill-rule="nonzero"/><path fill="#3f1e10" d="M 107.46875 320.242188 C 105.796875 320.105469 104.066406 319.960938 102.433594 319.347656 C 100.714844 318.703125 99.886719 317.699219 98.734375 316.3125 C 98.0625 315.5 97.300781 314.582031 96.242188 313.617188 C 91.148438 308.953125 85.199219 308.808594 78.0625 313.195312 L 79.027344 314.769531 C 85.546875 310.769531 90.472656 310.832031 94.996094 314.980469 C 95.964844 315.863281 96.652344 316.691406 97.3125 317.492188 C 98.492188 318.914062 99.605469 320.257812 101.789062 321.078125 C 103.664062 321.785156 105.523438 321.933594 107.328125 322.082031 C 110.523438 322.34375 113.28125 322.566406 115.671875 325.730469 L 117.148438 324.613281 C 114.25 320.792969 110.804688 320.507812 107.46875 320.242188 Z M 107.46875 320.242188 " fill-opacity="1" fill-rule="nonzero"/><path fill="#3f1e10" d="M 168.160156 245.386719 C 169.339844 245.460938 170.242188 246.296875 170.78125 247.804688 L 172.523438 247.183594 C 171.742188 244.988281 170.199219 243.660156 168.277344 243.539062 C 166.121094 243.402344 163.890625 244.820312 162.753906 247.074219 L 164.402344 247.910156 C 165.199219 246.335938 166.742188 245.292969 168.160156 245.386719 Z M 168.160156 245.386719 " fill-opacity="1" fill-rule="nonzero"/><path fill="#3f1e10" d="M 153.960938 260.296875 C 156.660156 260.464844 159.132812 262.171875 161.105469 265.222656 L 161.710938 266.160156 L 162.515625 265.390625 C 163.867188 264.097656 165.917969 263.535156 167.617188 263.976562 C 168.496094 264.203125 169.648438 264.8125 170.144531 266.414062 L 171.910156 265.867188 C 171.328125 263.980469 169.972656 262.679688 168.082031 262.1875 C 166.117188 261.679688 163.824219 262.152344 162.078125 263.378906 C 159.882812 260.382812 157.070312 258.648438 154.078125 258.460938 C 150.800781 258.257812 147.527344 259.894531 144.863281 263.070312 L 146.277344 264.261719 C 148.558594 261.539062 151.277344 260.125 153.960938 260.296875 Z M 153.960938 260.296875 " fill-opacity="1" fill-rule="nonzero"/><path fill="#3f1e10" d="M 291.644531 323.691406 C 288.207031 322.617188 283.9375 323.480469 281.503906 325.730469 L 282.753906 327.089844 C 284.707031 325.285156 288.292969 324.582031 291.101562 325.449219 C 292.316406 325.828125 293.851562 326.660156 294.265625 328.472656 L 296.070312 328.0625 C 295.59375 325.984375 294.019531 324.425781 291.644531 323.691406 Z M 291.644531 323.691406 " fill-opacity="1" fill-rule="nonzero"/><path fill="#3f1e10" d="M 284.96875 309.902344 L 286.738281 309.375 C 285.542969 305.339844 283.113281 302.46875 279.707031 301.066406 C 275.542969 299.355469 270.097656 299.964844 264.644531 302.738281 C 263.191406 299.652344 260.988281 295.875 257.746094 294.546875 C 255.3125 293.554688 252.832031 293.992188 250.429688 294.417969 C 247.34375 294.964844 244.679688 295.4375 242.472656 292.878906 L 241.085938 294.082031 C 243.972656 297.4375 247.578125 296.800781 250.757812 296.234375 C 252.996094 295.839844 255.113281 295.46875 257.054688 296.253906 C 259.996094 297.457031 262.066406 301.472656 263.367188 304.378906 L 263.777344 305.296875 L 264.65625 304.8125 C 269.902344 301.929688 275.132812 301.179688 279.007812 302.773438 C 281.875 303.957031 283.9375 306.421875 284.96875 309.902344 Z M 284.96875 309.902344 " fill-opacity="1" fill-rule="nonzero"/><path fill="#3f1e10" d="M 179.171875 284.226562 C 177.289062 286.914062 175.511719 289.445312 173.125 290.679688 C 171.59375 291.464844 169.964844 291.507812 168.234375 291.554688 C 165.613281 291.621094 162.640625 291.695312 159.847656 294.578125 C 158.648438 295.820312 158.054688 296.84375 157.585938 297.667969 C 156.871094 298.902344 156.550781 299.46875 154.546875 299.863281 C 153.097656 300.148438 151.867188 300.3125 150.675781 300.472656 C 147.640625 300.871094 145.246094 301.1875 141.976562 303.265625 L 142.96875 304.828125 C 145.890625 302.964844 148 302.6875 150.917969 302.308594 C 152.082031 302.152344 153.402344 301.980469 154.90625 301.683594 C 157.597656 301.148438 158.285156 300.164062 159.183594 298.597656 C 159.628906 297.824219 160.132812 296.949219 161.171875 295.871094 C 163.441406 293.523438 165.789062 293.46875 168.28125 293.40625 C 170.136719 293.363281 172.058594 293.316406 173.96875 292.328125 C 176.761719 290.890625 178.75 288.046875 180.679688 285.292969 C 184.171875 280.3125 187.195312 276.007812 194.273438 278.8125 L 194.953125 277.09375 C 186.515625 273.746094 182.617188 279.316406 179.171875 284.226562 Z M 179.171875 284.226562 " fill-opacity="1" fill-rule="nonzero"/><g clip-path="url(#66985851da)"><path fill="#3f1e10" d="M 330.9375 324.910156 C 327.875 323.328125 324.988281 321.835938 324.679688 319.6875 C 323.730469 313.046875 316.996094 310.019531 308.46875 306.191406 L 307.039062 305.546875 C 301.46875 303.039062 298.3125 294.414062 295.53125 286.800781 C 293.902344 282.335938 292.488281 278.484375 290.742188 276.214844 C 287.960938 272.585938 283.078125 272.453125 279.15625 272.347656 C 275.988281 272.261719 274.050781 272.132812 273.808594 271.023438 C 272.671875 265.910156 265.375 265.203125 257.648438 265.203125 C 252.9375 265.203125 251.214844 260.738281 249.222656 255.5625 C 248.0625 252.570312 246.871094 249.46875 244.964844 247.042969 C 241.320312 242.402344 233.648438 241.757812 226.234375 241.136719 C 222.652344 240.839844 218.945312 240.527344 215.792969 239.773438 C 212.347656 238.945312 209.917969 236.125 207.109375 232.855469 C 202.519531 227.515625 196.824219 220.898438 183.90625 219.558594 C 181.507812 201.339844 178.863281 171.238281 180.066406 164.320312 C 181.527344 155.960938 191.9375 143.785156 198.597656 138.867188 C 203.789062 143.636719 212.019531 146.316406 221.28125 146.316406 C 222.570312 146.316406 223.878906 146.265625 225.203125 146.160156 C 230.042969 145.773438 234.828125 144.703125 239.40625 142.972656 C 245.792969 140.570312 251.464844 137.023438 256.265625 132.433594 C 261.199219 127.726562 265.058594 122.03125 267.742188 115.511719 L 268 114.886719 L 267.480469 114.453125 C 262.765625 110.511719 256.308594 107.410156 249.3125 105.71875 C 242.664062 104.109375 235.84375 103.839844 229.578125 104.941406 C 224.0625 105.917969 219.0625 107.917969 214.707031 110.882812 L 214.664062 110.828125 C 214.527344 110.941406 214.421875 111.046875 214.328125 111.140625 C 208.054688 115.523438 203.28125 121.839844 200.132812 129.914062 C 194.316406 132.457031 187.296875 137.730469 181.277344 144.03125 C 182.101562 135.546875 183.496094 122.558594 184.378906 119.160156 C 192.257812 116.386719 200.070312 109.785156 205.933594 100.921875 L 206.210938 100.5 C 209.355469 95.664062 211.800781 90.378906 213.492188 84.808594 C 215.859375 77.046875 216.628906 69.132812 215.785156 61.289062 C 214.929688 53.234375 212.371094 45.476562 208.1875 38.238281 L 207.847656 37.660156 L 207.183594 37.808594 C 200.078125 39.402344 192.496094 43.242188 185.839844 48.609375 C 179.511719 53.703125 174.328125 59.933594 170.824219 66.640625 C 167.757812 72.515625 166.03125 78.648438 165.664062 84.882812 L 165.570312 84.882812 C 165.570312 85.074219 165.589844 85.285156 165.628906 85.484375 C 165.09375 97.121094 169.289062 108.632812 178.089844 119.703125 C 174.945312 129.660156 171.527344 150.179688 171.136719 165.984375 C 165.199219 158.820312 154.597656 158.253906 152.546875 158.207031 C 143.921875 151.140625 134.90625 147.710938 125.742188 148.019531 C 125.597656 147.996094 125.457031 147.976562 125.296875 147.972656 L 125.289062 148.039062 C 120.4375 148.257812 115.648438 149.527344 111.050781 151.828125 L 110.847656 151.929688 C 105.5625 154.609375 100.609375 158.632812 96.53125 163.566406 C 92.246094 168.769531 89.160156 174.703125 87.847656 180.273438 L 87.691406 180.9375 L 88.273438 181.285156 C 93.917969 184.648438 99.984375 186.730469 106.304688 187.496094 C 108.09375 187.710938 109.898438 187.816406 111.703125 187.816406 C 116.074219 187.816406 120.464844 187.183594 124.800781 185.925781 C 129.1875 184.648438 133.363281 182.773438 137.199219 180.34375 C 143.710938 176.21875 148.691406 170.859375 151.308594 165.191406 C 154.957031 165.796875 158.402344 166.429688 161.585938 169.023438 C 165.453125 172.175781 168.453125 177.992188 170.765625 186.8125 C 173.621094 197.699219 174.3125 209.550781 174.363281 217.875 C 158.855469 218.519531 155.75 227.839844 153.253906 235.363281 C 151.910156 239.417969 150.738281 242.933594 147.914062 244.351562 C 140.117188 243.742188 136.480469 247.960938 135.390625 250.824219 C 133.257812 250.769531 127.007812 250.898438 123.578125 253.921875 C 122.390625 254.96875 121.652344 256.253906 121.375 257.753906 C 105.277344 257.128906 104.136719 267.734375 103.585938 272.875 C 103.484375 273.8125 103.359375 274.953125 103.179688 275.375 C 99.8125 275.152344 96.148438 281.472656 92.699219 288.390625 C 90.808594 292.167969 84.753906 299.636719 79.089844 297.210938 C 75.625 295.722656 71.890625 295.808594 68.828125 297.4375 C 65.789062 299.0625 63.722656 302.015625 63.023438 305.75 C 61.988281 311.269531 56.289062 313.492188 50.253906 315.84375 C 48.847656 316.394531 47.390625 316.960938 45.992188 317.574219 C 40.59375 319.929688 35.386719 327.777344 36.855469 331.324219 C 37.285156 332.355469 38.5625 333.800781 42.371094 332.613281 C 42.816406 334.890625 43.851562 336.628906 45.457031 337.792969 C 47.929688 339.597656 51.027344 339.480469 52.367188 339.320312 C 53.078125 340.375 54.90625 342.558594 58.242188 343.5 C 62.433594 344.6875 67.464844 343.519531 73.191406 340.027344 C 80.941406 335.300781 85.855469 333.71875 89.605469 334.722656 C 92.238281 335.429688 94.464844 337.507812 96.410156 341.070312 C 99.945312 347.558594 106.136719 344.828125 111.113281 342.625 C 114.757812 341.019531 118.203125 339.492188 120.171875 341.304688 C 124.460938 345.238281 132.5625 344.574219 138.480469 344.085938 C 140.699219 343.898438 142.613281 343.742188 143.828125 343.859375 C 144.601562 343.941406 146.066406 344.152344 147.914062 344.417969 C 157.242188 345.777344 176.664062 348.605469 184.917969 345.660156 C 194.859375 342.113281 214.441406 337.03125 233.804688 342.894531 C 245.535156 346.449219 252.683594 345.0625 257.414062 344.152344 C 260.820312 343.496094 262.878906 343.097656 264.828125 344.597656 C 267.535156 346.675781 274.074219 347.78125 281.652344 347.78125 C 290.703125 347.78125 301.226562 346.207031 308.4375 342.851562 C 314.398438 340.078125 320.15625 341.167969 325.230469 342.128906 C 331.011719 343.226562 336.464844 344.257812 338.96875 337.71875 C 341.738281 330.488281 335.746094 327.398438 330.9375 324.910156 Z M 199.972656 137.632812 C 201.792969 135.703125 204.421875 133.730469 207.8125 131.75 C 209.9375 133.65625 218.128906 140.9375 222.539062 144.453125 C 213.300781 144.703125 205.058594 142.226562 199.972656 137.632812 Z M 215.550781 112.554688 C 219.253906 109.992188 223.464844 108.175781 228.085938 107.136719 L 219.789062 124.007812 C 215.878906 125.558594 212.351562 127.171875 209.273438 128.8125 C 210.371094 124.625 213.371094 114.996094 215.550781 112.554688 Z M 249.308594 107.632812 C 254.617188 108.96875 259.574219 111.140625 263.609375 113.867188 C 258.3125 113.746094 249.789062 115.046875 240.136719 117.496094 C 243.546875 113.433594 247.40625 109.109375 249.308594 107.632812 Z M 237.417969 120.125 C 241.3125 122.75 251.09375 129.683594 254.160156 131.863281 C 249.851562 135.78125 244.859375 138.871094 239.28125 141.035156 L 222.160156 125.078125 C 226.914062 123.265625 232.144531 121.566406 237.417969 120.125 Z M 209.507812 130.789062 C 212.621094 129.097656 216.226562 127.425781 220.253906 125.820312 L 237.347656 141.757812 C 233.464844 143.09375 229.449219 143.945312 225.382812 144.292969 C 222.308594 142.148438 212.613281 133.554688 209.507812 130.789062 Z M 255.527344 130.566406 C 253.113281 128.847656 244.425781 122.683594 239.777344 119.492188 C 250.96875 116.597656 260.894531 115.203125 265.585938 115.851562 C 263.132812 121.460938 259.75 126.398438 255.527344 130.566406 Z M 247.066406 107.132812 C 243.929688 110.042969 238.972656 115.984375 237.0625 118.308594 C 231.996094 119.6875 226.953125 121.304688 222.328125 123.035156 L 230.359375 106.703125 C 235.675781 105.835938 241.402344 105.984375 247.066406 107.132812 Z M 211.734375 115.625 C 209.535156 120.667969 207.527344 127.921875 207.09375 130.03125 C 204.460938 131.558594 202.242188 133.097656 200.460938 134.621094 C 200.847656 133.351562 201.261719 132.117188 201.714844 130.949219 C 204.085938 124.722656 207.453125 119.59375 211.734375 115.625 Z M 183.324219 117.582031 C 182.164062 117.96875 181 118.261719 179.859375 118.464844 C 179.320312 115.269531 179.363281 111.230469 179.984375 106.429688 C 183.1875 105.828125 196.800781 103.238281 203.21875 101.597656 C 197.625 109.4375 190.480469 115.207031 183.324219 117.582031 Z M 181.726562 89.640625 C 180.292969 94.640625 179.222656 99.292969 178.539062 103.503906 C 175.496094 99.625 168.234375 89.40625 167.480469 85.367188 C 167.753906 79.851562 169.160156 74.414062 171.648438 69.164062 Z M 178.1875 105.949219 C 177.667969 109.835938 177.519531 113.265625 177.734375 116.199219 C 171.570312 107.757812 168.15625 99.085938 167.535156 90.339844 C 170.664062 96.246094 176.59375 104.074219 178.1875 105.949219 Z M 204.9375 99.082031 L 204.84375 99.230469 C 200.585938 100.601562 184.855469 103.628906 180.261719 104.496094 C 180.917969 100.234375 181.984375 95.488281 183.449219 90.359375 L 211.269531 85.707031 C 209.707031 90.433594 207.582031 94.925781 204.9375 99.082031 Z M 211.886719 83.734375 L 184.019531 88.394531 C 185.769531 82.496094 188.007812 76.1875 190.535156 70.019531 C 195.882812 68.222656 210.042969 63.855469 214.058594 62.613281 C 214.671875 69.660156 213.9375 76.757812 211.886719 83.734375 Z M 187.339844 49.789062 C 192.667969 45.550781 198.574219 42.332031 204.304688 40.515625 C 200.234375 45.363281 195.023438 54.78125 190.109375 66.253906 C 188.695312 59.890625 187.332031 52.703125 187.339844 49.789062 Z M 213.859375 60.742188 C 210.667969 61.722656 197.835938 65.679688 191.464844 67.761719 C 196.988281 54.730469 203.058594 44.039062 207.128906 40.148438 C 210.734375 46.660156 212.996094 53.578125 213.859375 60.742188 Z M 185.5625 51.25 C 185.96875 56.28125 188.09375 65.785156 188.882812 69.191406 C 186.433594 75.15625 184.246094 81.265625 182.5 87.023438 L 172.691406 67.09375 C 175.789062 61.28125 180.207031 55.839844 185.5625 51.25 Z M 135.917969 178.960938 C 132.726562 180.945312 129.296875 182.546875 125.710938 183.710938 L 129.539062 162.390625 C 133.394531 161.351562 136.96875 160.585938 140.191406 160.117188 C 139.40625 163.992188 137.007812 175.648438 135.917969 178.960938 Z M 125.59375 149.882812 C 128.585938 150.488281 135.996094 155.855469 139.195312 158.398438 C 136.027344 158.894531 132.550781 159.65625 128.820312 160.667969 L 113.355469 152.789062 C 117.332031 151.015625 121.441406 150.042969 125.59375 149.882812 Z M 141.667969 158.058594 C 140.15625 156.730469 134.800781 152.59375 130.414062 150.054688 C 136.691406 150.761719 142.898438 153.34375 148.945312 157.757812 C 146.820312 157.640625 144.386719 157.742188 141.667969 158.058594 Z M 111.273438 153.808594 L 126.214844 161.414062 C 121.851562 162.703125 117.242188 164.296875 112.730469 166.078125 C 111.132812 165.6875 103.472656 163.832031 99.167969 163.355469 C 102.722656 159.382812 106.867188 156.109375 111.273438 153.808594 Z M 105.765625 185.558594 C 100.335938 184.808594 95.109375 183.042969 90.199219 180.273438 C 93.355469 177.1875 101.441406 172.726562 111.28125 168.664062 C 109.59375 173.636719 106.625 182.878906 105.765625 185.558594 Z M 97.679688 165.097656 C 100.109375 165.148438 105.859375 166.363281 109.785156 167.28125 C 101.414062 170.785156 94.476562 174.5 90.578125 177.519531 C 92.070312 173.308594 94.519531 169.003906 97.679688 165.097656 Z M 107.636719 185.777344 C 108.734375 182.359375 112.105469 171.871094 113.546875 167.75 C 118.25 165.898438 123.054688 164.253906 127.5625 162.949219 L 123.726562 184.308594 C 118.386719 185.78125 112.984375 186.28125 107.636719 185.777344 Z M 138.285156 177.382812 C 139.609375 172.265625 141.597656 162.511719 142.132812 159.867188 C 145.664062 159.472656 148.660156 159.457031 151.042969 159.847656 L 149.875 163.855469 C 147.757812 168.792969 143.679688 173.53125 138.285156 177.382812 Z M 162.746094 167.601562 C 159.324219 164.8125 155.632812 164.0625 152.027344 163.445312 C 152.449219 162.3125 152.765625 161.183594 152.972656 160.078125 C 155.925781 160.234375 166.730469 161.34375 171.210938 169.359375 L 172.9375 172.445312 L 172.9375 168.90625 C 172.9375 153.464844 176.53125 130.820312 179.816406 120.34375 C 180.652344 120.207031 181.496094 120.027344 182.34375 119.796875 C 181.066406 126.34375 179.257812 145.6875 179.179688 146.59375 L 178.917969 149.398438 L 180.789062 147.296875 C 186.472656 140.898438 193.355469 135.367188 199.234375 132.390625 C 198.726562 133.898438 198.269531 135.484375 197.859375 137.128906 C 191.75 141.507812 179.953125 154.25 178.242188 164.011719 C 176.878906 171.839844 180.019531 204.472656 182.164062 220.539062 C 182.628906 223.992188 183.046875 226.753906 183.398438 228.65625 C 180.535156 227.886719 177.578125 228.390625 175.914062 228.816406 C 176.03125 226.976562 176.210938 223.378906 176.210938 218.78125 C 176.199219 210.320312 175.554688 197.824219 172.542969 186.355469 C 170.09375 177.011719 166.976562 171.058594 162.746094 167.601562 Z M 337.238281 337.074219 C 335.375 341.945312 331.953125 341.542969 325.570312 340.332031 C 320.488281 339.371094 314.164062 338.167969 307.65625 341.195312 C 294.265625 347.425781 270.902344 346.957031 265.957031 343.152344 C 263.34375 341.148438 260.574219 341.683594 257.066406 342.359375 C 252.246094 343.289062 245.640625 344.566406 234.34375 341.148438 C 214.472656 335.132812 194.457031 340.320312 184.304688 343.941406 C 176.476562 346.734375 156.648438 343.84375 148.183594 342.613281 C 146.238281 342.328125 144.839844 342.125 144.019531 342.042969 C 142.640625 341.902344 140.648438 342.066406 138.339844 342.261719 C 132.761719 342.71875 125.121094 343.351562 121.429688 339.964844 C 118.566406 337.339844 114.402344 339.179688 110.375 340.957031 C 104.570312 343.519531 100.574219 344.851562 98.039062 340.207031 C 95.839844 336.175781 93.242188 333.804688 90.09375 332.960938 C 85.75 331.796875 80.582031 333.390625 72.242188 338.46875 C 66.996094 341.671875 62.464844 342.773438 58.792969 341.75 C 55.179688 340.746094 53.671875 337.9375 53.660156 337.914062 L 53.339844 337.285156 L 52.652344 337.429688 C 52.613281 337.433594 49.074219 338.15625 46.554688 336.316406 C 45.128906 335.28125 44.285156 333.589844 44.042969 331.292969 L 43.921875 330.089844 L 42.792969 330.53125 C 40.496094 331.429688 38.914062 331.46875 38.574219 330.636719 C 37.675781 328.460938 41.839844 321.425781 46.738281 319.285156 C 48.101562 318.691406 49.539062 318.125 50.929688 317.585938 C 57.167969 315.15625 63.617188 312.640625 64.839844 306.109375 C 65.433594 302.941406 67.15625 300.441406 69.695312 299.089844 C 72.257812 297.726562 75.417969 297.664062 78.359375 298.929688 C 85.285156 301.894531 92.121094 293.679688 94.347656 289.234375 C 99.445312 279.011719 101.921875 277.074219 103.101562 277.242188 C 103.535156 277.304688 103.945312 277.199219 104.273438 276.9375 C 105.066406 276.320312 105.207031 275.035156 105.417969 273.09375 C 105.996094 267.714844 106.96875 258.714844 122.125 259.660156 L 123.046875 259.714844 L 123.101562 258.789062 C 123.183594 257.386719 123.742188 256.253906 124.792969 255.328125 C 128.308594 252.234375 135.917969 252.71875 135.992188 252.71875 L 136.753906 252.765625 L 136.945312 252.023438 C 137.011719 251.75 138.785156 245.390625 147.992188 246.230469 L 148.234375 246.246094 L 148.457031 246.148438 C 152.175781 244.472656 153.542969 240.335938 155 235.957031 C 157.429688 228.632812 160.1875 220.359375 174.359375 219.742188 C 174.328125 225.871094 173.980469 229.972656 173.972656 230.015625 L 173.851562 231.472656 L 175.21875 230.964844 C 175.269531 230.945312 180.34375 229.089844 184.234375 230.933594 L 185.957031 231.75 L 185.53125 229.890625 C 185.171875 228.335938 184.691406 225.429688 184.148438 221.460938 C 196.019531 222.820312 201.15625 228.792969 205.703125 234.085938 C 208.722656 237.59375 211.332031 240.628906 215.359375 241.589844 C 218.648438 242.371094 222.421875 242.6875 226.070312 242.996094 C 233.097656 243.585938 240.355469 244.195312 243.5 248.203125 C 245.238281 250.410156 246.382812 253.382812 247.484375 256.253906 C 249.535156 261.574219 251.65625 267.070312 257.636719 267.070312 C 267.015625 267.070312 271.308594 268.378906 271.992188 271.4375 C 272.566406 274.035156 275.742188 274.125 279.097656 274.210938 C 282.8125 274.308594 287.023438 274.421875 289.265625 277.347656 C 290.839844 279.394531 292.273438 283.304688 293.785156 287.445312 C 296.691406 295.398438 299.988281 304.417969 306.269531 307.246094 L 307.699219 307.890625 C 316.023438 311.625 322.03125 314.324219 322.839844 319.960938 C 323.277344 323.050781 326.582031 324.757812 330.074219 326.566406 C 335.726562 329.464844 339.265625 331.773438 337.238281 337.074219 Z M 337.238281 337.074219 " fill-opacity="1" fill-rule="nonzero"/></g></svg>