<svg xmlns="http://www.w3.org/2000/svg" xmlns:xlink="http://www.w3.org/1999/xlink" width="512" zoomAndPan="magnify" viewBox="0 0 384 383.999986" height="512" preserveAspectRatio="xMidYMid meet" version="1.0"><defs><clipPath id="96c3a8e8bd"><path d="M 32.507812 33.019531 L 130.445312 33.019531 L 130.445312 130.957031 L 32.507812 130.957031 Z M 32.507812 33.019531 " clip-rule="nonzero"/></clipPath><clipPath id="d05fc03c21"><path d="M 39.421875 33.019531 L 123.53125 33.019531 C 125.367188 33.019531 127.125 33.75 128.421875 35.042969 C 129.714844 36.339844 130.445312 38.097656 130.445312 39.933594 L 130.445312 124.042969 C 130.445312 125.878906 129.714844 127.636719 128.421875 128.933594 C 127.125 130.226562 125.367188 130.957031 123.53125 130.957031 L 39.421875 130.957031 C 37.585938 130.957031 35.828125 130.226562 34.53125 128.933594 C 33.238281 127.636719 32.507812 125.878906 32.507812 124.042969 L 32.507812 39.933594 C 32.507812 38.097656 33.238281 36.339844 34.53125 35.042969 C 35.828125 33.75 37.585938 33.019531 39.421875 33.019531 Z M 39.421875 33.019531 " clip-rule="nonzero"/></clipPath><clipPath id="93547888ee"><path d="M 143.769531 33.019531 L 241.703125 33.019531 L 241.703125 130.957031 L 143.769531 130.957031 Z M 143.769531 33.019531 " clip-rule="nonzero"/></clipPath><clipPath id="9c694a57fb"><path d="M 150.679688 33.019531 L 234.792969 33.019531 C 236.625 33.019531 238.382812 33.75 239.679688 35.042969 C 240.976562 36.339844 241.703125 38.097656 241.703125 39.933594 L 241.703125 124.042969 C 241.703125 125.878906 240.976562 127.636719 239.679688 128.933594 C 238.382812 130.226562 236.625 130.957031 234.792969 130.957031 L 150.679688 130.957031 C 148.847656 130.957031 147.089844 130.226562 145.792969 128.933594 C 144.496094 127.636719 143.769531 125.878906 143.769531 124.042969 L 143.769531 39.933594 C 143.769531 38.097656 144.496094 36.339844 145.792969 35.042969 C 147.089844 33.75 148.847656 33.019531 150.679688 33.019531 Z M 150.679688 33.019531 " clip-rule="nonzero"/></clipPath><clipPath id="b8c94eabfa"><path d="M 255.027344 33.019531 L 352.964844 33.019531 L 352.964844 130.957031 L 255.027344 130.957031 Z M 255.027344 33.019531 " clip-rule="nonzero"/></clipPath><clipPath id="2ebcfb903a"><path d="M 261.941406 33.019531 L 346.054688 33.019531 C 347.886719 33.019531 349.644531 33.75 350.941406 35.042969 C 352.238281 36.339844 352.964844 38.097656 352.964844 39.933594 L 352.964844 124.042969 C 352.964844 125.878906 352.238281 127.636719 350.941406 128.933594 C 349.644531 130.226562 347.886719 130.957031 346.054688 130.957031 L 261.941406 130.957031 C 260.109375 130.957031 258.351562 130.226562 257.054688 128.933594 C 255.757812 127.636719 255.027344 125.878906 255.027344 124.042969 L 255.027344 39.933594 C 255.027344 38.097656 255.757812 36.339844 257.054688 35.042969 C 258.351562 33.75 260.109375 33.019531 261.941406 33.019531 Z M 261.941406 33.019531 " clip-rule="nonzero"/></clipPath><clipPath id="b7648a089e"><path d="M 32.507812 143.257812 L 130.445312 143.257812 L 130.445312 241.191406 L 32.507812 241.191406 Z M 32.507812 143.257812 " clip-rule="nonzero"/></clipPath><clipPath id="28f7028875"><path d="M 39.421875 143.257812 L 123.53125 143.257812 C 125.367188 143.257812 127.125 143.984375 128.421875 145.28125 C 129.714844 146.578125 130.445312 148.335938 130.445312 150.167969 L 130.445312 234.28125 C 130.445312 236.113281 129.714844 237.871094 128.421875 239.167969 C 127.125 240.464844 125.367188 241.191406 123.53125 241.191406 L 39.421875 241.191406 C 37.585938 241.191406 35.828125 240.464844 34.53125 239.167969 C 33.238281 237.871094 32.507812 236.113281 32.507812 234.28125 L 32.507812 150.167969 C 32.507812 148.335938 33.238281 146.578125 34.53125 145.28125 C 35.828125 143.984375 37.585938 143.257812 39.421875 143.257812 Z M 39.421875 143.257812 " clip-rule="nonzero"/></clipPath><clipPath id="6d48f99af4"><path d="M 143.769531 143.257812 L 241.703125 143.257812 L 241.703125 241.191406 L 143.769531 241.191406 Z M 143.769531 143.257812 " clip-rule="nonzero"/></clipPath><clipPath id="fb64f2a3fc"><path d="M 150.679688 143.257812 L 234.792969 143.257812 C 236.625 143.257812 238.382812 143.984375 239.679688 145.28125 C 240.976562 146.578125 241.703125 148.335938 241.703125 150.167969 L 241.703125 234.28125 C 241.703125 236.113281 240.976562 237.871094 239.679688 239.167969 C 238.382812 240.464844 236.625 241.191406 234.792969 241.191406 L 150.679688 241.191406 C 148.847656 241.191406 147.089844 240.464844 145.792969 239.167969 C 144.496094 237.871094 143.769531 236.113281 143.769531 234.28125 L 143.769531 150.167969 C 143.769531 148.335938 144.496094 146.578125 145.792969 145.28125 C 147.089844 143.984375 148.847656 143.257812 150.679688 143.257812 Z M 150.679688 143.257812 " clip-rule="nonzero"/></clipPath><clipPath id="5ba14b52b4"><path d="M 255.027344 143.257812 L 352.964844 143.257812 L 352.964844 241.191406 L 255.027344 241.191406 Z M 255.027344 143.257812 " clip-rule="nonzero"/></clipPath><clipPath id="758e0e8027"><path d="M 261.941406 143.257812 L 346.054688 143.257812 C 347.886719 143.257812 349.644531 143.984375 350.941406 145.28125 C 352.238281 146.578125 352.964844 148.335938 352.964844 150.167969 L 352.964844 234.28125 C 352.964844 236.113281 352.238281 237.871094 350.941406 239.167969 C 349.644531 240.464844 347.886719 241.191406 346.054688 241.191406 L 261.941406 241.191406 C 260.109375 241.191406 258.351562 240.464844 257.054688 239.167969 C 255.757812 237.871094 255.027344 236.113281 255.027344 234.28125 L 255.027344 150.167969 C 255.027344 148.335938 255.757812 146.578125 257.054688 145.28125 C 258.351562 143.984375 260.109375 143.257812 261.941406 143.257812 Z M 261.941406 143.257812 " clip-rule="nonzero"/></clipPath><clipPath id="1e99086c70"><path d="M 32.507812 253.492188 L 130.445312 253.492188 L 130.445312 351.429688 L 32.507812 351.429688 Z M 32.507812 253.492188 " clip-rule="nonzero"/></clipPath><clipPath id="e7e2365b30"><path d="M 39.421875 253.492188 L 123.53125 253.492188 C 125.367188 253.492188 127.125 254.222656 128.421875 255.519531 C 129.714844 256.816406 130.445312 258.574219 130.445312 260.40625 L 130.445312 344.519531 C 130.445312 346.351562 129.714844 348.109375 128.421875 349.40625 C 127.125 350.703125 125.367188 351.429688 123.53125 351.429688 L 39.421875 351.429688 C 37.585938 351.429688 35.828125 350.703125 34.53125 349.40625 C 33.238281 348.109375 32.507812 346.351562 32.507812 344.519531 L 32.507812 260.40625 C 32.507812 258.574219 33.238281 256.816406 34.53125 255.519531 C 35.828125 254.222656 37.585938 253.492188 39.421875 253.492188 Z M 39.421875 253.492188 " clip-rule="nonzero"/></clipPath><clipPath id="70623d5577"><path d="M 143.769531 253.492188 L 241.703125 253.492188 L 241.703125 351.429688 L 143.769531 351.429688 Z M 143.769531 253.492188 " clip-rule="nonzero"/></clipPath><clipPath id="591455f8e5"><path d="M 150.679688 253.492188 L 234.792969 253.492188 C 236.625 253.492188 238.382812 254.222656 239.679688 255.519531 C 240.976562 256.816406 241.703125 258.574219 241.703125 260.40625 L 241.703125 344.519531 C 241.703125 346.351562 240.976562 348.109375 239.679688 349.40625 C 238.382812 350.703125 236.625 351.429688 234.792969 351.429688 L 150.679688 351.429688 C 148.847656 351.429688 147.089844 350.703125 145.792969 349.40625 C 144.496094 348.109375 143.769531 346.351562 143.769531 344.519531 L 143.769531 260.40625 C 143.769531 258.574219 144.496094 256.816406 145.792969 255.519531 C 147.089844 254.222656 148.847656 253.492188 150.679688 253.492188 Z M 150.679688 253.492188 " clip-rule="nonzero"/></clipPath><clipPath id="3e449ec87f"><path d="M 255.203125 253.492188 L 353.140625 253.492188 L 353.140625 351.429688 L 255.203125 351.429688 Z M 255.203125 253.492188 " clip-rule="nonzero"/></clipPath><clipPath id="064d97581c"><path d="M 262.117188 253.492188 L 346.230469 253.492188 C 348.0625 253.492188 349.820312 254.222656 351.117188 255.519531 C 352.414062 256.816406 353.140625 258.574219 353.140625 260.40625 L 353.140625 344.519531 C 353.140625 346.351562 352.414062 348.109375 351.117188 349.40625 C 349.820312 350.703125 348.0625 351.429688 346.230469 351.429688 L 262.117188 351.429688 C 260.285156 351.429688 258.527344 350.703125 257.230469 349.40625 C 255.933594 348.109375 255.203125 346.351562 255.203125 344.519531 L 255.203125 260.40625 C 255.203125 258.574219 255.933594 256.816406 257.230469 255.519531 C 258.527344 254.222656 260.285156 253.492188 262.117188 253.492188 Z M 262.117188 253.492188 " clip-rule="nonzero"/></clipPath></defs><rect x="-38.4" width="460.8" fill="#ffffff" y="-38.399999" height="460.799983" fill-opacity="1"/><rect x="-38.4" width="460.8" fill="#001933" y="-38.399999" height="460.799983" fill-opacity="1"/><g clip-path="url(#96c3a8e8bd)"><g clip-path="url(#d05fc03c21)"><path fill="#ff0040" d="M 32.507812 33.019531 L 130.445312 33.019531 L 130.445312 130.957031 L 32.507812 130.957031 Z M 32.507812 33.019531 " fill-opacity="1" fill-rule="nonzero"/></g></g><g clip-path="url(#93547888ee)"><g clip-path="url(#9c694a57fb)"><path fill="#ff9500" d="M 143.769531 33.019531 L 241.703125 33.019531 L 241.703125 130.957031 L 143.769531 130.957031 Z M 143.769531 33.019531 " fill-opacity="1" fill-rule="nonzero"/></g></g><g clip-path="url(#b8c94eabfa)"><g clip-path="url(#2ebcfb903a)"><path fill="#ffff00" d="M 255.027344 33.019531 L 352.964844 33.019531 L 352.964844 130.957031 L 255.027344 130.957031 Z M 255.027344 33.019531 " fill-opacity="1" fill-rule="nonzero"/></g></g><g clip-path="url(#b7648a089e)"><g clip-path="url(#28f7028875)"><path fill="#aaff00" d="M 32.507812 143.257812 L 130.445312 143.257812 L 130.445312 241.191406 L 32.507812 241.191406 Z M 32.507812 143.257812 " fill-opacity="1" fill-rule="nonzero"/></g></g><g clip-path="url(#6d48f99af4)"><g clip-path="url(#fb64f2a3fc)"><path fill="#00ff15" d="M 143.769531 143.257812 L 241.703125 143.257812 L 241.703125 241.191406 L 143.769531 241.191406 Z M 143.769531 143.257812 " fill-opacity="1" fill-rule="nonzero"/></g></g><g clip-path="url(#5ba14b52b4)"><g clip-path="url(#758e0e8027)"><path fill="#00ffff" d="M 255.027344 143.257812 L 352.964844 143.257812 L 352.964844 241.191406 L 255.027344 241.191406 Z M 255.027344 143.257812 " fill-opacity="1" fill-rule="nonzero"/></g></g><g clip-path="url(#1e99086c70)"><g clip-path="url(#e7e2365b30)"><path fill="#0095ff" d="M 32.507812 253.492188 L 130.445312 253.492188 L 130.445312 351.429688 L 32.507812 351.429688 Z M 32.507812 253.492188 " fill-opacity="1" fill-rule="nonzero"/></g></g><g clip-path="url(#70623d5577)"><g clip-path="url(#591455f8e5)"><path fill="#6a00ff" d="M 143.769531 253.492188 L 241.703125 253.492188 L 241.703125 351.429688 L 143.769531 351.429688 Z M 143.769531 253.492188 " fill-opacity="1" fill-rule="nonzero"/></g></g><g clip-path="url(#3e449ec87f)"><g clip-path="url(#064d97581c)"><path fill="#ff00ff" d="M 255.203125 253.492188 L 353.140625 253.492188 L 353.140625 351.429688 L 255.203125 351.429688 Z M 255.203125 253.492188 " fill-opacity="1" fill-rule="nonzero"/></g></g></svg>