<svg xmlns="http://www.w3.org/2000/svg" xmlns:xlink="http://www.w3.org/1999/xlink" width="500" zoomAndPan="magnify" viewBox="0 0 375 374.999991" height="500" preserveAspectRatio="xMidYMid meet" version="1.0"><defs><clipPath id="41e11a4c70"><path d="M 14.027344 14.007812 L 360.972656 14.007812 L 360.972656 361 L 14.027344 361 Z M 14.027344 14.007812 " clip-rule="nonzero"/></clipPath><clipPath id="d6fd10ac06"><path d="M 20.777344 14.007812 L 354.222656 14.007812 C 356.011719 14.007812 357.730469 14.71875 358.996094 15.984375 C 360.261719 17.25 360.972656 18.96875 360.972656 20.757812 L 360.972656 354.242188 C 360.972656 356.03125 360.261719 357.75 358.996094 359.015625 C 357.730469 360.28125 356.011719 360.992188 354.222656 360.992188 L 20.777344 360.992188 C 18.988281 360.992188 17.269531 360.28125 16.003906 359.015625 C 14.738281 357.75 14.027344 356.03125 14.027344 354.242188 L 14.027344 20.757812 C 14.027344 18.96875 14.738281 17.25 16.003906 15.984375 C 17.269531 14.71875 18.988281 14.007812 20.777344 14.007812 Z M 20.777344 14.007812 " clip-rule="nonzero"/></clipPath><clipPath id="fb7fb4850d"><path d="M 31.746094 32.246094 L 127.386719 32.246094 L 127.386719 127.886719 L 31.746094 127.886719 Z M 31.746094 32.246094 " clip-rule="nonzero"/></clipPath><clipPath id="56dcae1bbc"><path d="M 38.496094 32.246094 L 120.636719 32.246094 C 122.425781 32.246094 124.144531 32.957031 125.410156 34.222656 C 126.675781 35.488281 127.386719 37.207031 127.386719 38.996094 L 127.386719 121.136719 C 127.386719 122.925781 126.675781 124.644531 125.410156 125.910156 C 124.144531 127.175781 122.425781 127.886719 120.636719 127.886719 L 38.496094 127.886719 C 36.707031 127.886719 34.988281 127.175781 33.722656 125.910156 C 32.457031 124.644531 31.746094 122.925781 31.746094 121.136719 L 31.746094 38.996094 C 31.746094 37.207031 32.457031 35.488281 33.722656 34.222656 C 34.988281 32.957031 36.707031 32.246094 38.496094 32.246094 Z M 38.496094 32.246094 " clip-rule="nonzero"/></clipPath><clipPath id="ab4cbf0265"><path d="M 140.398438 32.246094 L 236.039062 32.246094 L 236.039062 127.886719 L 140.398438 127.886719 Z M 140.398438 32.246094 " clip-rule="nonzero"/></clipPath><clipPath id="513c35508a"><path d="M 147.148438 32.246094 L 229.289062 32.246094 C 231.082031 32.246094 232.796875 32.957031 234.0625 34.222656 C 235.328125 35.488281 236.039062 37.207031 236.039062 38.996094 L 236.039062 121.136719 C 236.039062 122.925781 235.328125 124.644531 234.0625 125.910156 C 232.796875 127.175781 231.082031 127.886719 229.289062 127.886719 L 147.148438 127.886719 C 145.359375 127.886719 143.640625 127.175781 142.375 125.910156 C 141.109375 124.644531 140.398438 122.925781 140.398438 121.136719 L 140.398438 38.996094 C 140.398438 37.207031 141.109375 35.488281 142.375 34.222656 C 143.640625 32.957031 145.359375 32.246094 147.148438 32.246094 Z M 147.148438 32.246094 " clip-rule="nonzero"/></clipPath><clipPath id="5621bb9784"><path d="M 249.050781 32.246094 L 344.691406 32.246094 L 344.691406 127.886719 L 249.050781 127.886719 Z M 249.050781 32.246094 " clip-rule="nonzero"/></clipPath><clipPath id="6478c47308"><path d="M 255.800781 32.246094 L 337.941406 32.246094 C 339.734375 32.246094 341.449219 32.957031 342.714844 34.222656 C 343.980469 35.488281 344.691406 37.207031 344.691406 38.996094 L 344.691406 121.136719 C 344.691406 122.925781 343.980469 124.644531 342.714844 125.910156 C 341.449219 127.175781 339.734375 127.886719 337.941406 127.886719 L 255.800781 127.886719 C 254.011719 127.886719 252.292969 127.175781 251.027344 125.910156 C 249.761719 124.644531 249.050781 122.925781 249.050781 121.136719 L 249.050781 38.996094 C 249.050781 37.207031 249.761719 35.488281 251.027344 34.222656 C 252.292969 32.957031 254.011719 32.246094 255.800781 32.246094 Z M 255.800781 32.246094 " clip-rule="nonzero"/></clipPath><clipPath id="07df8a1213"><path d="M 31.746094 139.898438 L 127.386719 139.898438 L 127.386719 235.539062 L 31.746094 235.539062 Z M 31.746094 139.898438 " clip-rule="nonzero"/></clipPath><clipPath id="e7cf613652"><path d="M 38.496094 139.898438 L 120.636719 139.898438 C 122.425781 139.898438 124.144531 140.609375 125.410156 141.875 C 126.675781 143.140625 127.386719 144.859375 127.386719 146.648438 L 127.386719 228.789062 C 127.386719 230.582031 126.675781 232.296875 125.410156 233.5625 C 124.144531 234.828125 122.425781 235.539062 120.636719 235.539062 L 38.496094 235.539062 C 36.707031 235.539062 34.988281 234.828125 33.722656 233.5625 C 32.457031 232.296875 31.746094 230.582031 31.746094 228.789062 L 31.746094 146.648438 C 31.746094 144.859375 32.457031 143.140625 33.722656 141.875 C 34.988281 140.609375 36.707031 139.898438 38.496094 139.898438 Z M 38.496094 139.898438 " clip-rule="nonzero"/></clipPath><clipPath id="fbdd2937e0"><path d="M 140.398438 139.898438 L 236.039062 139.898438 L 236.039062 235.539062 L 140.398438 235.539062 Z M 140.398438 139.898438 " clip-rule="nonzero"/></clipPath><clipPath id="cfc3dc16a3"><path d="M 147.148438 139.898438 L 229.289062 139.898438 C 231.082031 139.898438 232.796875 140.609375 234.0625 141.875 C 235.328125 143.140625 236.039062 144.859375 236.039062 146.648438 L 236.039062 228.789062 C 236.039062 230.582031 235.328125 232.296875 234.0625 233.5625 C 232.796875 234.828125 231.082031 235.539062 229.289062 235.539062 L 147.148438 235.539062 C 145.359375 235.539062 143.640625 234.828125 142.375 233.5625 C 141.109375 232.296875 140.398438 230.582031 140.398438 228.789062 L 140.398438 146.648438 C 140.398438 144.859375 141.109375 143.140625 142.375 141.875 C 143.640625 140.609375 145.359375 139.898438 147.148438 139.898438 Z M 147.148438 139.898438 " clip-rule="nonzero"/></clipPath><clipPath id="0b05386128"><path d="M 249.050781 139.898438 L 344.691406 139.898438 L 344.691406 235.539062 L 249.050781 235.539062 Z M 249.050781 139.898438 " clip-rule="nonzero"/></clipPath><clipPath id="6895ec0400"><path d="M 255.800781 139.898438 L 337.941406 139.898438 C 339.734375 139.898438 341.449219 140.609375 342.714844 141.875 C 343.980469 143.140625 344.691406 144.859375 344.691406 146.648438 L 344.691406 228.789062 C 344.691406 230.582031 343.980469 232.296875 342.714844 233.5625 C 341.449219 234.828125 339.734375 235.539062 337.941406 235.539062 L 255.800781 235.539062 C 254.011719 235.539062 252.292969 234.828125 251.027344 233.5625 C 249.761719 232.296875 249.050781 230.582031 249.050781 228.789062 L 249.050781 146.648438 C 249.050781 144.859375 249.761719 143.140625 251.027344 141.875 C 252.292969 140.609375 254.011719 139.898438 255.800781 139.898438 Z M 255.800781 139.898438 " clip-rule="nonzero"/></clipPath><clipPath id="3072ec60e1"><path d="M 31.746094 247.554688 L 127.386719 247.554688 L 127.386719 343.195312 L 31.746094 343.195312 Z M 31.746094 247.554688 " clip-rule="nonzero"/></clipPath><clipPath id="83e2e17739"><path d="M 38.496094 247.554688 L 120.636719 247.554688 C 122.425781 247.554688 124.144531 248.265625 125.410156 249.53125 C 126.675781 250.796875 127.386719 252.511719 127.386719 254.304688 L 127.386719 336.445312 C 127.386719 338.234375 126.675781 339.949219 125.410156 341.214844 C 124.144531 342.480469 122.425781 343.195312 120.636719 343.195312 L 38.496094 343.195312 C 36.707031 343.195312 34.988281 342.480469 33.722656 341.214844 C 32.457031 339.949219 31.746094 338.234375 31.746094 336.445312 L 31.746094 254.304688 C 31.746094 252.511719 32.457031 250.796875 33.722656 249.53125 C 34.988281 248.265625 36.707031 247.554688 38.496094 247.554688 Z M 38.496094 247.554688 " clip-rule="nonzero"/></clipPath><clipPath id="049a762e18"><path d="M 140.398438 247.554688 L 236.039062 247.554688 L 236.039062 343.195312 L 140.398438 343.195312 Z M 140.398438 247.554688 " clip-rule="nonzero"/></clipPath><clipPath id="1b895efce5"><path d="M 147.148438 247.554688 L 229.289062 247.554688 C 231.082031 247.554688 232.796875 248.265625 234.0625 249.53125 C 235.328125 250.796875 236.039062 252.511719 236.039062 254.304688 L 236.039062 336.445312 C 236.039062 338.234375 235.328125 339.949219 234.0625 341.214844 C 232.796875 342.480469 231.082031 343.195312 229.289062 343.195312 L 147.148438 343.195312 C 145.359375 343.195312 143.640625 342.480469 142.375 341.214844 C 141.109375 339.949219 140.398438 338.234375 140.398438 336.445312 L 140.398438 254.304688 C 140.398438 252.511719 141.109375 250.796875 142.375 249.53125 C 143.640625 248.265625 145.359375 247.554688 147.148438 247.554688 Z M 147.148438 247.554688 " clip-rule="nonzero"/></clipPath></defs><rect x="-37.5" width="450" fill="#ffffff" y="-37.499999" height="449.999989" fill-opacity="1"/><rect x="-37.5" width="450" fill="#e4f0c9" y="-37.499999" height="449.999989" fill-opacity="1"/><g clip-path="url(#41e11a4c70)"><g clip-path="url(#d6fd10ac06)"><path fill="#0055ff" d="M 14.027344 14.007812 L 360.972656 14.007812 L 360.972656 360.949219 L 14.027344 360.949219 Z M 14.027344 14.007812 " fill-opacity="1" fill-rule="nonzero"/></g></g><g clip-path="url(#fb7fb4850d)"><g clip-path="url(#56dcae1bbc)"><path fill="#fff7cf" d="M 31.746094 32.246094 L 127.386719 32.246094 L 127.386719 127.886719 L 31.746094 127.886719 Z M 31.746094 32.246094 " fill-opacity="1" fill-rule="nonzero"/></g></g><g clip-path="url(#ab4cbf0265)"><g clip-path="url(#513c35508a)"><path fill="#fff7cf" d="M 140.398438 32.246094 L 236.039062 32.246094 L 236.039062 127.886719 L 140.398438 127.886719 Z M 140.398438 32.246094 " fill-opacity="1" fill-rule="nonzero"/></g></g><g clip-path="url(#5621bb9784)"><g clip-path="url(#6478c47308)"><path fill="#fff7cf" d="M 249.050781 32.246094 L 344.691406 32.246094 L 344.691406 127.886719 L 249.050781 127.886719 Z M 249.050781 32.246094 " fill-opacity="1" fill-rule="nonzero"/></g></g><g clip-path="url(#07df8a1213)"><g clip-path="url(#e7cf613652)"><path fill="#fff7cf" d="M 31.746094 139.898438 L 127.386719 139.898438 L 127.386719 235.539062 L 31.746094 235.539062 Z M 31.746094 139.898438 " fill-opacity="1" fill-rule="nonzero"/></g></g><g clip-path="url(#fbdd2937e0)"><g clip-path="url(#cfc3dc16a3)"><path fill="#fff7cf" d="M 140.398438 139.898438 L 236.039062 139.898438 L 236.039062 235.539062 L 140.398438 235.539062 Z M 140.398438 139.898438 " fill-opacity="1" fill-rule="nonzero"/></g></g><g clip-path="url(#0b05386128)"><g clip-path="url(#6895ec0400)"><path fill="#fff7cf" d="M 249.050781 139.898438 L 344.691406 139.898438 L 344.691406 235.539062 L 249.050781 235.539062 Z M 249.050781 139.898438 " fill-opacity="1" fill-rule="nonzero"/></g></g><g clip-path="url(#3072ec60e1)"><g clip-path="url(#83e2e17739)"><path fill="#fff7cf" d="M 31.746094 247.554688 L 127.386719 247.554688 L 127.386719 343.195312 L 31.746094 343.195312 Z M 31.746094 247.554688 " fill-opacity="1" fill-rule="nonzero"/></g></g><g clip-path="url(#049a762e18)"><g clip-path="url(#1b895efce5)"><path fill="#fff7cf" d="M 140.398438 247.554688 L 236.039062 247.554688 L 236.039062 343.195312 L 140.398438 343.195312 Z M 140.398438 247.554688 " fill-opacity="1" fill-rule="nonzero"/></g></g><path fill="#ffffff" d="M 293.183594 234.683594 L 291.652344 235.371094 L 297.316406 247.976562 L 293.230469 238.886719 C 293.171875 238.886719 293.117188 238.886719 293.058594 238.886719 C 288.78125 232.027344 279.996094 229.210938 272.421875 232.621094 L 269.691406 233.851562 C 269.691406 233.851562 278.25 252.894531 278.496094 253.445312 C 278.832031 254.191406 270.953125 236.65625 271.628906 238.164062 C 268.203125 230.542969 259.253906 227.140625 251.636719 230.570312 L 247.730469 232.328125 L 260.183594 260.039062 L 232.855469 199.226562 C 230.214844 193.359375 223.324219 190.742188 217.460938 193.382812 C 211.597656 196.019531 208.980469 202.917969 211.617188 208.789062 L 246.304688 285.960938 C 214.664062 277.320312 214.742188 282.117188 211.597656 287.390625 C 208.304688 292.917969 210.109375 300.070312 215.628906 303.367188 L 264.582031 332.605469 C 270.691406 336.269531 279.742188 343.671875 303.097656 333.15625 L 318.230469 326.347656 C 334.574219 318.988281 341.828125 299.671875 334.425781 283.207031 L 333.242188 280.574219 L 323.195312 258.222656 L 316.617188 243.582031 C 312.601562 234.648438 302.109375 230.664062 293.183594 234.683594 " fill-opacity="1" fill-rule="nonzero"/><path fill="#1d1d1b" d="M 217.195312 284.460938 C 215.894531 285.042969 215.339844 286.042969 214.496094 287.558594 C 214.28125 287.941406 214.066406 288.332031 213.832031 288.722656 C 212.59375 290.800781 212.238281 293.234375 212.828125 295.578125 C 213.417969 297.921875 214.886719 299.894531 216.960938 301.132812 L 265.914062 330.371094 C 266.335938 330.625 266.765625 330.894531 267.214844 331.171875 C 273.238281 334.910156 281.492188 340.03125 302.035156 330.785156 L 317.164062 323.976562 C 332.175781 317.21875 338.855469 299.40625 332.054688 284.273438 L 314.246094 244.652344 C 310.953125 237.320312 302.511719 233.890625 295.097656 236.703125 L 299.6875 246.910156 C 300.273438 248.21875 299.691406 249.757812 298.382812 250.347656 C 297.074219 250.9375 295.535156 250.351562 294.945312 249.042969 L 291.191406 240.691406 C 291.066406 240.5625 290.953125 240.417969 290.855469 240.261719 C 287.222656 234.4375 279.753906 232.171875 273.488281 234.992188 L 273.125 235.15625 L 280.878906 252.398438 C 281.464844 253.710938 280.882812 255.25 279.574219 255.839844 C 278.265625 256.429688 276.726562 255.84375 276.136719 254.535156 L 269.261719 239.230469 C 266.425781 232.929688 259 230.109375 252.703125 232.941406 L 251.167969 233.632812 L 262.554688 258.972656 C 263.144531 260.28125 262.558594 261.824219 261.25 262.410156 C 259.941406 263 258.402344 262.417969 257.816406 261.105469 L 230.484375 200.292969 C 228.4375 195.742188 223.074219 193.707031 218.527344 195.753906 C 213.980469 197.800781 211.941406 203.167969 213.988281 207.71875 L 248.671875 284.894531 C 249.085938 285.8125 248.933594 286.886719 248.277344 287.652344 C 247.625 288.414062 246.589844 288.734375 245.617188 288.46875 C 232.578125 284.90625 224.035156 283.414062 219.511719 283.90625 C 218.523438 284.011719 217.785156 284.195312 217.195312 284.460938 Z M 319.296875 328.71875 L 304.164062 335.53125 C 281.101562 345.914062 270.691406 339.453125 264.472656 335.589844 C 264.050781 335.328125 263.640625 335.074219 263.246094 334.835938 L 214.296875 305.601562 C 211.03125 303.648438 208.71875 300.542969 207.789062 296.851562 C 206.855469 293.160156 207.417969 289.328125 209.367188 286.058594 C 209.574219 285.710938 209.765625 285.367188 209.957031 285.027344 C 213.625 278.433594 217.960938 276.011719 241.695312 282.050781 L 209.25 209.855469 C 206.027344 202.6875 209.234375 194.234375 216.394531 191.007812 C 223.554688 187.785156 232.003906 190.992188 235.222656 198.160156 L 249.035156 228.890625 L 250.570312 228.199219 C 257.101562 225.257812 264.488281 226.617188 269.550781 231.0625 L 271.355469 230.25 C 278 227.257812 285.628906 228.421875 291.066406 232.785156 L 292.117188 232.3125 C 302.335938 227.710938 314.390625 232.289062 318.988281 242.515625 L 336.796875 282.136719 C 344.773438 299.886719 336.921875 320.785156 319.296875 328.71875 " fill-opacity="1" fill-rule="nonzero"/></svg>