<svg xmlns="http://www.w3.org/2000/svg" xmlns:xlink="http://www.w3.org/1999/xlink" width="500" zoomAndPan="magnify" viewBox="0 0 375 374.999991" height="500" preserveAspectRatio="xMidYMid meet" version="1.0"><defs><clipPath id="a3ab3dfe62"><path d="M 11.003906 307 L 223 307 L 223 315 L 11.003906 315 Z M 11.003906 307 " clip-rule="nonzero"/></clipPath><clipPath id="3c27c20738"><path d="M 11.003906 299 L 248 299 L 248 308 L 11.003906 308 Z M 11.003906 299 " clip-rule="nonzero"/></clipPath><clipPath id="3a3105ec7e"><path d="M 132 306 L 166 306 L 166 323.015625 L 132 323.015625 Z M 132 306 " clip-rule="nonzero"/></clipPath><clipPath id="93caf25eef"><path d="M 155 216 L 375 216 L 375 323.015625 L 155 323.015625 Z M 155 216 " clip-rule="nonzero"/></clipPath></defs><rect x="-37.5" width="450" fill="#ffffff" y="-37.499999" height="449.999989" fill-opacity="1"/><rect x="-37.5" width="450" fill="#e4f0c9" y="-37.499999" height="449.999989" fill-opacity="1"/><path fill="#e7352e" d="M 449.628906 125.335938 C 449.628906 125.335938 448.621094 119.472656 418.699219 108.929688 C 388.777344 98.386719 293.109375 61.832031 268.105469 57.054688 C 243.097656 52.273438 190.558594 53.257812 155.160156 55.929688 C 119.757812 58.597656 109.585938 69.773438 109.585938 69.773438 L 449.628906 125.335938 " fill-opacity="1" fill-rule="nonzero"/><g clip-path="url(#a3ab3dfe62)"><path fill="#6c391e" d="M 222.511719 307.703125 L 11.359375 307.703125 L 11.359375 314.054688 L 222.140625 314.054688 L 222.511719 307.703125 " fill-opacity="1" fill-rule="nonzero"/></g><g clip-path="url(#3c27c20738)"><path fill="#b07e55" d="M 247.765625 299.066406 L 36.613281 299.066406 L 11.359375 307.703125 L 222.511719 307.703125 L 247.765625 299.066406 " fill-opacity="1" fill-rule="nonzero"/></g><path fill="#915631" d="M 247.765625 299.066406 L 247.765625 303.492188 L 222.140625 314.054688 C 222.140625 314.054688 221.613281 308.011719 222.511719 307.703125 C 223.410156 307.394531 247.765625 299.066406 247.765625 299.066406 " fill-opacity="1" fill-rule="nonzero"/><path fill="#6c391e" d="M 273.792969 288.460938 L 68.230469 288.460938 L 68.230469 294.644531 L 273.433594 294.644531 L 273.792969 288.460938 " fill-opacity="1" fill-rule="nonzero"/><path fill="#b07e55" d="M 298.378906 280.046875 L 92.816406 280.046875 L 68.230469 288.460938 L 273.792969 288.460938 L 298.378906 280.046875 " fill-opacity="1" fill-rule="nonzero"/><path fill="#915631" d="M 298.378906 280.046875 L 298.378906 284.359375 L 273.433594 294.644531 C 273.433594 294.644531 272.917969 288.757812 273.792969 288.460938 C 274.671875 288.160156 298.378906 280.046875 298.378906 280.046875 " fill-opacity="1" fill-rule="nonzero"/><path fill="#6c391e" d="M 311.59375 272.171875 L 139.066406 272.171875 L 139.066406 277.359375 L 311.289062 277.359375 L 311.59375 272.171875 " fill-opacity="1" fill-rule="nonzero"/><path fill="#b07e55" d="M 332.226562 265.109375 L 159.703125 265.109375 L 139.066406 272.171875 L 311.59375 272.171875 L 332.226562 265.109375 " fill-opacity="1" fill-rule="nonzero"/><path fill="#915631" d="M 332.226562 265.109375 L 332.226562 268.730469 L 311.289062 277.359375 C 311.289062 277.359375 310.859375 272.421875 311.59375 272.171875 C 312.328125 271.921875 332.226562 265.109375 332.226562 265.109375 " fill-opacity="1" fill-rule="nonzero"/><path fill="#6c391e" d="M 343.625 259.421875 L 205.953125 259.421875 L 205.953125 263.5625 L 343.378906 263.5625 L 343.625 259.421875 " fill-opacity="1" fill-rule="nonzero"/><path fill="#b07e55" d="M 360.089844 253.785156 L 222.417969 253.785156 L 205.953125 259.421875 L 343.625 259.421875 L 360.089844 253.785156 " fill-opacity="1" fill-rule="nonzero"/><path fill="#915631" d="M 360.089844 253.785156 L 360.089844 256.675781 L 343.378906 263.5625 C 343.378906 263.5625 343.039062 259.621094 343.625 259.421875 C 344.210938 259.21875 360.089844 253.785156 360.089844 253.785156 " fill-opacity="1" fill-rule="nonzero"/><path fill="#6c391e" d="M 375.203125 248.789062 L 253.648438 248.789062 L 253.648438 252.445312 L 374.988281 252.445312 L 375.203125 248.789062 " fill-opacity="1" fill-rule="nonzero"/><path fill="#b07e55" d="M 389.742188 243.8125 L 268.1875 243.8125 L 253.648438 248.789062 L 375.203125 248.789062 L 389.742188 243.8125 " fill-opacity="1" fill-rule="nonzero"/><path fill="#915631" d="M 389.742188 243.8125 L 389.742188 246.363281 L 374.988281 252.445312 C 374.988281 252.445312 374.683594 248.964844 375.203125 248.789062 C 375.722656 248.613281 389.742188 243.8125 389.742188 243.8125 " fill-opacity="1" fill-rule="nonzero"/><path fill="#6c391e" d="M 396.464844 240.488281 L 309.9375 240.488281 L 309.9375 243.089844 L 396.308594 243.089844 L 396.464844 240.488281 " fill-opacity="1" fill-rule="nonzero"/><path fill="#b07e55" d="M 406.8125 236.945312 L 320.285156 236.945312 L 309.9375 240.488281 L 396.464844 240.488281 L 406.8125 236.945312 " fill-opacity="1" fill-rule="nonzero"/><path fill="#6c391e" d="M 413.203125 234.046875 L 348.957031 234.046875 L 348.957031 235.980469 L 413.089844 235.980469 L 413.203125 234.046875 " fill-opacity="1" fill-rule="nonzero"/><path fill="#b07e55" d="M 420.886719 231.417969 L 356.636719 231.417969 L 348.957031 234.046875 L 413.203125 234.046875 L 420.886719 231.417969 " fill-opacity="1" fill-rule="nonzero"/><path fill="#6c391e" d="M 426.46875 228.71875 L 372.847656 228.71875 L 372.847656 230.332031 L 426.371094 230.332031 L 426.46875 228.71875 " fill-opacity="1" fill-rule="nonzero"/><path fill="#b07e55" d="M 432.882812 226.523438 L 379.265625 226.523438 L 372.851562 228.714844 L 426.46875 228.714844 L 432.882812 226.523438 " fill-opacity="1" fill-rule="nonzero"/><path fill="#6e6960" d="M 24.390625 307.183594 L 24.273438 312.921875 C 24.273438 312.921875 24.714844 317.359375 21.261719 317.921875 C 17.929688 318.464844 16.507812 318.496094 16.507812 318.496094 L 16.472656 320.320312 L 47.722656 320.957031 L 47.757812 319.132812 L 48.585938 306.140625 L 39.621094 304.484375 L 24.390625 307.183594 " fill-opacity="1" fill-rule="nonzero"/><path fill="#d9d5ca" d="M 332.917969 222.730469 L 24.390625 307.183594 L 39.558594 307.492188 L 335.464844 222.78125 L 332.917969 222.730469 " fill-opacity="1" fill-rule="nonzero"/><path fill="#a49f93" d="M 39.558594 307.492188 L 39.421875 314.179688 C 39.421875 314.179688 39.648438 317.136719 42.160156 318.03125 C 44.671875 318.929688 47.757812 319.132812 47.757812 319.132812 L 47.722656 320.957031 L 335.425781 224.683594 L 335.464844 222.78125 L 39.558594 307.492188 " fill-opacity="1" fill-rule="nonzero"/><g clip-path="url(#3a3105ec7e)"><path fill="#6e6960" d="M 140.898438 309.261719 L 140.78125 315 C 140.78125 315 141.222656 319.4375 137.769531 320 C 134.433594 320.542969 133.015625 320.574219 133.015625 320.574219 L 132.976562 322.398438 L 164.226562 323.035156 L 164.265625 321.207031 L 165.089844 308.21875 L 156.128906 306.558594 L 140.898438 309.261719 " fill-opacity="1" fill-rule="nonzero"/></g><path fill="#d9d5ca" d="M 449.429688 216.839844 L 140.898438 309.261719 L 156.066406 309.570312 L 451.972656 216.890625 L 449.429688 216.839844 " fill-opacity="1" fill-rule="nonzero"/><g clip-path="url(#93caf25eef)"><path fill="#a49f93" d="M 156.066406 309.570312 L 155.929688 316.257812 C 155.929688 316.257812 156.15625 319.214844 158.667969 320.109375 C 161.179688 321.003906 164.265625 321.207031 164.265625 321.207031 L 164.230469 323.035156 L 451.933594 218.792969 L 451.972656 216.890625 L 156.066406 309.570312 " fill-opacity="1" fill-rule="nonzero"/></g><path fill="#7c7865" d="M 55.980469 277.359375 C 55.980469 277.359375 51.765625 284.488281 59.140625 291.550781 C 66.515625 298.609375 144.902344 299.453125 173.351562 298.820312 C 201.796875 298.1875 233.675781 284.890625 235.648438 280.046875 C 237.621094 275.203125 237.621094 272.25 237.621094 272.25 L 55.980469 277.359375 " fill-opacity="1" fill-rule="nonzero"/><path fill="#d1caa9" d="M 39.34375 213.835938 C 39.34375 213.835938 27.53125 234.761719 27.953125 250.128906 C 28.375 265.5 31.746094 274.679688 59.140625 280.597656 C 86.535156 286.519531 183.191406 290.988281 205.953125 283.6875 C 228.710938 276.390625 447.6875 212.988281 449.628906 211.304688 C 451.566406 209.613281 456.886719 134.191406 449.628906 125.335938 C 442.371094 116.476562 284.832031 64.621094 265.011719 62.5625 C 245.195312 60.5 39.34375 213.835938 39.34375 213.835938 " fill-opacity="1" fill-rule="nonzero"/><path fill="#e7352e" d="M 263.890625 67.902344 C 263.890625 67.902344 212.191406 216.929688 204.324219 225.363281 C 196.457031 233.800781 168.363281 236.890625 108.519531 236.890625 C 48.671875 236.890625 38.839844 227.902344 38.839844 216.652344 C 38.839844 205.398438 95.875 85.617188 105.988281 73.246094 C 116.105469 60.875 141.71875 59.1875 179.34375 59.1875 C 216.96875 59.1875 265.011719 60.59375 265.011719 62.5625 C 265.011719 64.53125 263.890625 67.902344 263.890625 67.902344 " fill-opacity="1" fill-rule="nonzero"/><path fill="#404c52" d="M 249.824219 270.828125 C 249.824219 270.828125 255.847656 266.269531 259.8125 251.195312 C 263.777344 236.125 262.984375 232.210938 262.984375 232.210938 L 316.449219 223.609375 C 316.449219 223.609375 316.621094 229.644531 315.695312 238.238281 C 314.773438 246.832031 302.867188 258.804688 302.867188 258.804688 L 249.824219 270.828125 " fill-opacity="1" fill-rule="nonzero"/><path fill="#0b0c0d" d="M 289.839844 225.945312 C 289.839844 225.945312 290.132812 240.222656 288.8125 243.460938 C 287.488281 246.703125 281.042969 250.667969 281.042969 250.667969 C 281.042969 250.667969 280.433594 248.089844 280.75 247.890625 C 281.070312 247.6875 286.761719 244.320312 287.289062 241.875 C 287.820312 239.429688 287.511719 229.015625 287.511719 229.015625 L 289.839844 225.945312 " fill-opacity="1" fill-rule="nonzero"/><path fill="#0b0c0d" d="M 298.585938 234.472656 C 298.390625 234.472656 279.675781 237.535156 279.675781 237.535156 L 281.082031 239.890625 L 297.992188 238.304688 L 298.585938 234.472656 " fill-opacity="1" fill-rule="nonzero"/><path fill="#0b0c0d" d="M 286.234375 247.492188 L 281.871094 256.351562 L 281.871094 259.457031 C 281.871094 259.457031 297.398438 257.472656 297.664062 255.296875 C 297.925781 253.113281 297.597656 244.519531 297.398438 244.320312 C 297.199219 244.121094 294.820312 244.109375 294.359375 242.398438 C 293.894531 240.6875 293.765625 237.910156 293.765625 237.910156 L 292.179688 237.574219 C 292.179688 237.574219 290.660156 243.59375 289.867188 244.71875 C 289.078125 245.839844 286.234375 247.492188 286.234375 247.492188 " fill-opacity="1" fill-rule="nonzero"/><path fill="#151a1c" d="M 272.988281 272.21875 L 263.742188 272.21875 L 262.195312 272.679688 C 262.195312 272.679688 256.742188 268.050781 257.535156 249.511719 C 258.328125 230.964844 262.933594 227 262.933594 227 L 271.703125 230.472656 L 272.988281 272.21875 " fill-opacity="1" fill-rule="nonzero"/><path fill="#242d31" d="M 283.589844 248.71875 C 283.589844 261.695312 278.960938 272.21875 273.261719 272.21875 C 267.554688 272.21875 262.933594 261.695312 262.933594 248.71875 C 262.933594 235.738281 267.554688 225.214844 273.261719 225.214844 C 278.960938 225.214844 283.589844 235.738281 283.589844 248.71875 " fill-opacity="1" fill-rule="nonzero"/><path fill="#0b0c0d" d="M 273.261719 229.183594 C 272.621094 229.183594 272.003906 229.378906 271.414062 229.734375 C 274.839844 231.8125 277.382812 239.519531 277.382812 248.71875 C 277.382812 257.914062 274.839844 265.617188 271.414062 267.695312 C 272.003906 268.054688 272.621094 268.25 273.261719 268.25 C 277.582031 268.25 281.082031 259.503906 281.082031 248.71875 C 281.082031 237.929688 277.582031 229.183594 273.261719 229.183594 " fill-opacity="1" fill-rule="nonzero"/><path fill="#151a1c" d="M 277.382812 248.71875 C 277.382812 239.519531 274.839844 231.8125 271.414062 229.734375 C 267.984375 231.8125 265.4375 239.519531 265.4375 248.71875 C 265.4375 257.914062 267.984375 265.617188 271.414062 267.695312 C 274.839844 265.617188 277.382812 257.914062 277.382812 248.71875 " fill-opacity="1" fill-rule="nonzero"/><path fill="#151a1c" d="M 308.1875 261.25 L 300.394531 261.25 L 299.089844 261.640625 C 299.089844 261.640625 294.496094 257.738281 295.164062 242.117188 C 295.832031 226.496094 299.710938 223.15625 299.710938 223.15625 L 307.101562 226.078125 L 308.1875 261.25 " fill-opacity="1" fill-rule="nonzero"/><path fill="#242d31" d="M 317.117188 241.449219 C 317.117188 252.386719 313.21875 261.25 308.414062 261.25 C 303.609375 261.25 299.710938 252.386719 299.710938 241.449219 C 299.710938 230.515625 303.609375 221.652344 308.414062 221.652344 C 313.21875 221.652344 317.117188 230.515625 317.117188 241.449219 " fill-opacity="1" fill-rule="nonzero"/><path fill="#0b0c0d" d="M 308.414062 224.996094 C 307.878906 224.996094 307.355469 225.160156 306.855469 225.460938 C 309.742188 227.207031 311.890625 233.703125 311.890625 241.449219 C 311.890625 249.199219 309.742188 255.695312 306.855469 257.445312 C 307.355469 257.742188 307.878906 257.90625 308.414062 257.90625 C 312.054688 257.90625 315.003906 250.542969 315.003906 241.449219 C 315.003906 232.359375 312.054688 224.996094 308.414062 224.996094 " fill-opacity="1" fill-rule="nonzero"/><path fill="#151a1c" d="M 311.890625 241.449219 C 311.890625 233.703125 309.742188 227.207031 306.855469 225.460938 C 303.96875 227.207031 301.820312 233.703125 301.820312 241.449219 C 301.820312 249.199219 303.96875 255.695312 306.855469 257.445312 C 309.742188 255.695312 311.890625 249.199219 311.890625 241.449219 " fill-opacity="1" fill-rule="nonzero"/><path fill="#151a1c" d="M 280.125 232.851562 C 280.421875 232.851562 298.585938 229.734375 298.585938 229.734375 L 299.710938 227 L 278.414062 230.199219 L 280.125 232.851562 " fill-opacity="1" fill-rule="nonzero"/><path fill="#d1caa9" d="M 316.449219 223.609375 L 262.933594 232.851562 C 262.933594 232.851562 261.710938 249.410156 257.589844 257.445312 C 253.472656 265.472656 245.675781 243.925781 246.074219 243.925781 C 246.46875 243.925781 253.867188 227.53125 254.792969 227 C 255.71875 226.472656 281.871094 220.457031 281.871094 220.457031 L 325.601562 217.613281 L 316.449219 223.609375 " fill-opacity="1" fill-rule="nonzero"/><path fill="#162a39" d="M 113.714844 92.367188 L 231.71875 92.367188 L 200.53125 170.394531 L 74.523438 170.394531 L 113.714844 92.367188 " fill-opacity="1" fill-rule="nonzero"/><path fill="#0e1921" d="M 200.53125 170.394531 C 200.53125 170.394531 188.941406 207.929688 180.726562 210.886719 C 172.507812 213.835938 155.859375 218.683594 111.398438 215.734375 C 66.9375 212.78125 59.5625 212.148438 61.667969 201.390625 C 63.773438 190.636719 74.523438 170.394531 74.523438 170.394531 L 200.53125 170.394531 " fill-opacity="1" fill-rule="nonzero"/><path fill="#ebc337" d="M 189.609375 180.84375 C 188.421875 183.820312 185.878906 185.597656 183.933594 184.820312 C 181.992188 184.039062 181.378906 181 182.566406 178.027344 C 183.753906 175.050781 186.292969 173.273438 188.238281 174.050781 C 190.183594 174.828125 190.796875 177.871094 189.609375 180.84375 " fill-opacity="1" fill-rule="nonzero"/><path fill="#ebc337" d="M 182.867188 198.90625 C 181.675781 201.878906 179.136719 203.660156 177.191406 202.882812 C 175.246094 202.105469 174.632812 199.0625 175.824219 196.089844 C 177.011719 193.117188 179.550781 191.332031 181.496094 192.113281 C 183.441406 192.890625 184.054688 195.933594 182.867188 198.90625 " fill-opacity="1" fill-rule="nonzero"/><path fill="#ebc337" d="M 79.441406 180.832031 C 79.09375 184.019531 77.125 186.414062 75.042969 186.1875 C 72.960938 185.960938 71.554688 183.195312 71.898438 180.015625 C 72.246094 176.828125 74.214844 174.429688 76.296875 174.660156 C 78.378906 174.882812 79.789062 177.648438 79.441406 180.832031 " fill-opacity="1" fill-rule="nonzero"/><path fill="#ebc337" d="M 74.382812 197.035156 C 74.039062 200.222656 72.070312 202.617188 69.984375 202.390625 C 67.902344 202.167969 66.496094 199.402344 66.84375 196.21875 C 67.1875 193.03125 69.15625 190.636719 71.238281 190.863281 C 73.320312 191.089844 74.730469 193.855469 74.382812 197.035156 " fill-opacity="1" fill-rule="nonzero"/><path fill="#b51e23" d="M 113.714844 92.367188 C 113.714844 92.367188 111.890625 73.527344 170.046875 71.277344 C 228.207031 69.027344 231.71875 92.367188 231.71875 92.367188 L 113.714844 92.367188 " fill-opacity="1" fill-rule="nonzero"/><path fill="#ffffff" d="M 161.621094 237.734375 C 161.621094 237.734375 167.285156 238.296875 179.34375 236.894531 C 191.402344 235.484375 197.441406 232.957031 197.441406 234.082031 C 197.441406 235.203125 197.160156 246.3125 195.757812 247.4375 C 194.351562 248.5625 183.394531 250.8125 174.402344 251.511719 C 165.414062 252.214844 159.792969 253.621094 159.792969 251.511719 C 159.792969 249.402344 161.621094 237.734375 161.621094 237.734375 " fill-opacity="1" fill-rule="nonzero"/><path fill="#ffffff" d="M 37.578125 224.660156 C 37.578125 224.660156 38.558594 229.722656 47.410156 233.238281 C 56.261719 236.75 60.15625 236.539062 60.296875 238.085938 C 60.4375 239.632812 60.753906 249.296875 58.507812 250.277344 C 56.261719 251.261719 46.222656 249.503906 41.226562 247.050781 C 35.222656 244.097656 34.238281 242.5 34.378906 239.667969 C 34.519531 236.835938 37.578125 224.660156 37.578125 224.660156 " fill-opacity="1" fill-rule="nonzero"/><path fill="#2e4352" d="M 106.136719 170.394531 L 76.015625 170.394531 C 79.972656 162.925781 83.476562 156.90625 83.476562 156.90625 L 84.003906 157.011719 L 153.121094 93.328125 L 194 93.328125 L 106.136719 170.394531 " fill-opacity="1" fill-rule="nonzero"/><path fill="#23323a" d="M 66.09375 205.515625 C 66.09375 205.515625 62.484375 204.667969 65.566406 193.523438 C 67.152344 187.796875 71.835938 178.285156 76.015625 170.394531 L 106.136719 170.394531 L 74.101562 198.496094 C 74.230469 198.03125 74.328125 197.546875 74.382812 197.035156 C 74.730469 193.855469 73.320312 191.089844 71.238281 190.863281 C 71.148438 190.851562 71.058594 190.847656 70.964844 190.847656 C 68.988281 190.847656 67.171875 193.171875 66.84375 196.21875 C 66.511719 199.257812 67.78125 201.914062 69.707031 202.347656 L 66.09375 205.515625 M 76.023438 174.644531 C 74.042969 174.644531 72.230469 176.96875 71.898438 180.015625 C 71.554688 183.195312 72.960938 185.960938 75.042969 186.1875 C 75.132812 186.199219 75.226562 186.203125 75.316406 186.203125 C 77.296875 186.203125 79.109375 183.878906 79.441406 180.832031 C 79.789062 177.648438 78.378906 174.882812 76.296875 174.660156 C 76.203125 174.648438 76.113281 174.644531 76.023438 174.644531 " fill-opacity="1" fill-rule="nonzero"/><path fill="#eecb49" d="M 75.316406 186.203125 C 75.226562 186.203125 75.132812 186.199219 75.042969 186.1875 C 72.960938 185.960938 71.554688 183.195312 71.898438 180.015625 C 72.230469 176.96875 74.042969 174.644531 76.023438 174.644531 C 76.113281 174.644531 76.203125 174.648438 76.296875 174.660156 C 78.378906 174.882812 79.789062 177.648438 79.441406 180.832031 C 79.109375 183.878906 77.296875 186.203125 75.316406 186.203125 " fill-opacity="1" fill-rule="nonzero"/><path fill="#eecb49" d="M 69.707031 202.347656 C 67.78125 201.914062 66.511719 199.257812 66.84375 196.21875 C 67.171875 193.171875 68.988281 190.847656 70.964844 190.847656 C 71.058594 190.847656 71.148438 190.851562 71.238281 190.863281 C 73.320312 191.089844 74.730469 193.855469 74.382812 197.035156 C 74.328125 197.546875 74.230469 198.03125 74.101562 198.496094 L 69.707031 202.347656 " fill-opacity="1" fill-rule="nonzero"/><path fill="#162a39" d="M 452.386719 135.523438 C 452.386719 135.523438 344.265625 104.292969 343.621094 107.246094 C 342.976562 110.199219 341.898438 173.1875 343.277344 175.011719 C 344.660156 176.835938 453.09375 170.394531 453.09375 170.394531 C 453.09375 170.394531 455.148438 145.710938 452.386719 135.523438 " fill-opacity="1" fill-rule="nonzero"/><path fill="#e7352e" d="M 211.535156 281.960938 C 211.535156 281.960938 255.320312 229.210938 265.011719 223.691406 C 274.707031 218.167969 451.890625 193.210938 451.890625 193.210938 L 451.703125 195.617188 C 451.703125 195.617188 300.695312 225.621094 289.457031 230.328125 C 278.21875 235.039062 266.925781 263.539062 251.910156 269.964844 C 236.898438 276.390625 211.535156 281.960938 211.535156 281.960938 " fill-opacity="1" fill-rule="nonzero"/><path fill="#e7352e" d="M 255.683594 91.339844 C 255.683594 91.339844 264.273438 75.390625 275.441406 71.125 C 286.609375 66.863281 300.371094 71.746094 300.371094 71.746094 L 300.371094 69.378906 L 260.796875 60.535156 L 255.683594 91.339844 " fill-opacity="1" fill-rule="nonzero"/><path fill="#7c7865" d="M 290.71875 73.519531 L 290.71875 217.9375 L 287.796875 218.46875 L 287.796875 72.101562 L 290.71875 73.519531 " fill-opacity="1" fill-rule="nonzero"/><path fill="#7c7865" d="M 326.277344 248.128906 L 326.277344 85.171875 L 327.804688 85.171875 L 327.804688 247.679688 L 326.277344 248.128906 " fill-opacity="1" fill-rule="nonzero"/><path fill="#162a39" d="M 322.75 106.964844 L 322.75 169.964844 C 322.75 172.820312 320.570312 175.207031 317.726562 175.460938 L 298.828125 177.144531 C 295.605469 177.433594 292.828125 174.890625 292.828125 171.648438 L 292.828125 101.503906 C 292.828125 97.832031 296.34375 95.1875 299.867188 96.203125 L 318.765625 101.664062 C 321.125 102.347656 322.75 104.507812 322.75 106.964844 " fill-opacity="1" fill-rule="nonzero"/></svg>